NotoAmalgamated-DisplayCondensed.ufo
<glyph name="exclam" format="2">
  <advance width="228"/>
  <unicode hex="0021"/>
  <outline>
    <contour>
      <point x="147" y="201" type="line"/>
      <point x="163" y="714" type="line"/>
      <point x="65" y="714" type="line"/>
      <point x="81" y="201" type="line"/>
    </contour>
    <contour>
      <point x="61" y="55" type="curve" smooth="yes"/>
      <point x="61" y="13"/>
      <point x="80" y="-9"/>
      <point x="115" y="-9" type="curve" smooth="yes"/>
      <point x="146" y="-9"/>
      <point x="168" y="11"/>
      <point x="168" y="55" type="curve" smooth="yes"/>
      <point x="168" y="100"/>
      <point x="148" y="119"/>
      <point x="115" y="119" type="curve" smooth="yes"/>
      <point x="79" y="119"/>
      <point x="61" y="97"/>
    </contour>
  </outline>
</glyph>
<glyph name="exclam.serif" format="2">
  <advance width="274"/>
  <unicode hex="0021"/>
  <outline>
    <contour>
      <point x="125" y="209" type="line"/>
      <point x="141" y="209" type="line"/>
      <point x="179" y="714" type="line"/>
      <point x="85" y="714" type="line"/>
    </contour>
    <contour>
      <point x="132" y="-6" type="curve" smooth="yes"/>
      <point x="154" y="-6"/>
      <point x="173" y="7"/>
      <point x="173" y="52" type="curve" smooth="yes"/>
      <point x="173" y="96"/>
      <point x="154" y="109"/>
      <point x="132" y="109" type="curve" smooth="yes"/>
      <point x="109" y="109"/>
      <point x="91" y="96"/>
      <point x="91" y="52" type="curve" smooth="yes"/>
      <point x="91" y="7"/>
      <point x="109" y="-6"/>
    </contour>
  </outline>
</glyph>
<glyph name="quotedbl" format="2">
  <advance width="372"/>
  <unicode hex="0022"/>
  <outline>
    <contour>
      <point x="150" y="714" type="line"/>
      <point x="56" y="714" type="line"/>
      <point x="73" y="456" type="line"/>
      <point x="134" y="456" type="line"/>
    </contour>
    <contour>
      <point x="317" y="714" type="line"/>
      <point x="223" y="714" type="line"/>
      <point x="240" y="456" type="line"/>
      <point x="301" y="456" type="line"/>
    </contour>
  </outline>
</glyph>
<glyph name="numbersign" format="2">
  <advance width="448"/>
  <unicode hex="0023"/>
  <outline>
    <contour>
      <point x="345" y="449" type="line"/>
      <point x="432" y="449" type="line"/>
      <point x="432" y="513" type="line"/>
      <point x="352" y="513" type="line"/>
      <point x="376" y="714" type="line"/>
      <point x="315" y="714" type="line"/>
      <point x="291" y="513" type="line"/>
      <point x="196" y="513" type="line"/>
      <point x="220" y="714" type="line"/>
      <point x="157" y="714" type="line"/>
      <point x="134" y="513" type="line"/>
      <point x="40" y="513" type="line"/>
      <point x="40" y="449" type="line"/>
      <point x="126" y="449" type="line"/>
      <point x="107" y="282" type="line"/>
      <point x="18" y="282" type="line"/>
      <point x="18" y="217" type="line"/>
      <point x="99" y="217" type="line"/>
      <point x="73" y="0" type="line"/>
      <point x="134" y="0" type="line"/>
      <point x="160" y="217" type="line"/>
      <point x="254" y="217" type="line"/>
      <point x="228" y="0" type="line"/>
      <point x="291" y="0" type="line"/>
      <point x="317" y="217" type="line"/>
      <point x="410" y="217" type="line"/>
      <point x="410" y="282" type="line"/>
      <point x="325" y="282" type="line"/>
    </contour>
    <contour>
      <point x="169" y="282" type="line"/>
      <point x="188" y="449" type="line"/>
      <point x="283" y="449" type="line"/>
      <point x="262" y="282" type="line"/>
    </contour>
  </outline>
</glyph>
<glyph name="dollar" format="2">
  <advance width="419"/>
  <unicode hex="0024"/>
  <outline>
    <contour>
      <point x="185" y="52" type="curve"/>
      <point x="185" y="-58" type="line"/>
      <point x="234" y="-58" type="line"/>
      <point x="234" y="56" type="line"/>
      <point x="327" y="72"/>
      <point x="380" y="135"/>
      <point x="380" y="222" type="curve" smooth="yes"/>
      <point x="380" y="308"/>
      <point x="332" y="350"/>
      <point x="234" y="392" type="curve"/>
      <point x="234" y="607" type="line"/>
      <point x="276" y="604"/>
      <point x="311" y="595"/>
      <point x="345" y="577" type="curve"/>
      <point x="368" y="642" type="line"/>
      <point x="327" y="663"/>
      <point x="283" y="674"/>
      <point x="234" y="677" type="curve"/>
      <point x="234" y="760" type="line"/>
      <point x="185" y="760" type="line"/>
      <point x="185" y="675" type="line"/>
      <point x="98" y="666"/>
      <point x="39" y="603"/>
      <point x="39" y="511" type="curve" smooth="yes"/>
      <point x="39" y="423"/>
      <point x="80" y="378"/>
      <point x="185" y="335" type="curve"/>
      <point x="185" y="120" type="line"/>
      <point x="130" y="122"/>
      <point x="76" y="140"/>
      <point x="40" y="163" type="curve"/>
      <point x="40" y="85" type="line"/>
      <point x="77" y="66"/>
      <point x="127" y="53"/>
    </contour>
    <contour>
      <point x="234" y="124" type="curve"/>
      <point x="234" y="315" type="line"/>
      <point x="287" y="291"/>
      <point x="310" y="264"/>
      <point x="310" y="217" type="curve" smooth="yes"/>
      <point x="310" y="171"/>
      <point x="284" y="135"/>
    </contour>
    <contour>
      <point x="185" y="606" type="curve"/>
      <point x="185" y="413" type="line"/>
      <point x="130" y="439"/>
      <point x="111" y="461"/>
      <point x="111" y="513" type="curve"/>
      <point x="111" y="562"/>
      <point x="137" y="598"/>
    </contour>
  </outline>
</glyph>
<glyph name="dollar.serif" format="2">
  <advance width="439"/>
  <unicode hex="0024"/>
  <outline>
    <contour>
      <point x="217" y="42" type="curve"/>
      <point x="217" y="-79" type="line"/>
      <point x="227" y="-79" type="line"/>
      <point x="227" y="42" type="line"/>
      <point x="331" y="48"/>
      <point x="390" y="111"/>
      <point x="390" y="213" type="curve" smooth="yes"/>
      <point x="390" y="299"/>
      <point x="332" y="355"/>
      <point x="227" y="411" type="curve"/>
      <point x="227" y="673" type="line"/>
      <point x="303" y="670"/>
      <point x="316" y="612"/>
      <point x="316" y="518" type="curve"/>
      <point x="356" y="518"/>
      <point x="374" y="541"/>
      <point x="374" y="578" type="curve" smooth="yes"/>
      <point x="374" y="636"/>
      <point x="329" y="683"/>
      <point x="227" y="684" type="curve"/>
      <point x="227" y="760" type="line"/>
      <point x="217" y="760" type="line"/>
      <point x="217" y="684" type="line"/>
      <point x="124" y="678"/>
      <point x="65" y="620"/>
      <point x="65" y="525" type="curve" smooth="yes"/>
      <point x="65" y="418"/>
      <point x="134" y="376"/>
      <point x="217" y="331" type="curve"/>
      <point x="217" y="52" type="line"/>
      <point x="136" y="53"/>
      <point x="100" y="99"/>
      <point x="100" y="238" type="curve"/>
      <point x="72" y="238"/>
      <point x="46" y="214"/>
      <point x="46" y="174" type="curve" smooth="yes"/>
      <point x="46" y="117"/>
      <point x="84" y="44"/>
    </contour>
    <contour>
      <point x="227" y="52" type="curve"/>
      <point x="227" y="325" type="line"/>
      <point x="297" y="288"/>
      <point x="332" y="247"/>
      <point x="332" y="176" type="curve" smooth="yes"/>
      <point x="332" y="100"/>
      <point x="297" y="55"/>
    </contour>
    <contour>
      <point x="217" y="673" type="curve"/>
      <point x="217" y="417" type="line"/>
      <point x="157" y="452"/>
      <point x="122" y="485"/>
      <point x="122" y="554" type="curve" smooth="yes"/>
      <point x="122" y="623"/>
      <point x="149" y="669"/>
    </contour>
  </outline>
</glyph>
<glyph name="ampersand" format="2">
  <advance width="469"/>
  <unicode hex="0026"/>
  <outline>
    <contour>
      <point x="202" y="724" type="curve" smooth="yes"/>
      <point x="127" y="724"/>
      <point x="80" y="668"/>
      <point x="80" y="577" type="curve" smooth="yes"/>
      <point x="80" y="504"/>
      <point x="96" y="456"/>
      <point x="136" y="388" type="curve"/>
      <point x="61" y="328"/>
      <point x="28" y="266"/>
      <point x="28" y="181" type="curve" smooth="yes"/>
      <point x="28" y="72"/>
      <point x="75" y="-10"/>
      <point x="175" y="-10" type="curve" smooth="yes"/>
      <point x="243" y="-10"/>
      <point x="288" y="20"/>
      <point x="331" y="73" type="curve"/>
      <point x="372" y="0" type="line"/>
      <point x="471" y="0" type="line"/>
      <point x="383" y="134" type="line"/>
      <point x="417" y="191"/>
      <point x="439" y="274"/>
      <point x="444" y="340" type="curve"/>
      <point x="360" y="340" type="line"/>
      <point x="358" y="287"/>
      <point x="349" y="242"/>
      <point x="333" y="207" type="curve"/>
      <point x="236" y="377" type="line"/>
      <point x="294" y="433"/>
      <point x="322" y="493"/>
      <point x="322" y="574" type="curve" smooth="yes"/>
      <point x="322" y="669"/>
      <point x="279" y="724"/>
    </contour>
    <contour>
      <point x="174" y="333" type="curve"/>
      <point x="287" y="138" type="line"/>
      <point x="258" y="88"/>
      <point x="227" y="65"/>
      <point x="188" y="65" type="curve" smooth="yes"/>
      <point x="141" y="65"/>
      <point x="111" y="110"/>
      <point x="111" y="184" type="curve" smooth="yes"/>
      <point x="111" y="249"/>
      <point x="129" y="289"/>
    </contour>
    <contour>
      <point x="200" y="658" type="curve" smooth="yes"/>
      <point x="230" y="658"/>
      <point x="247" y="631"/>
      <point x="247" y="576" type="curve" smooth="yes"/>
      <point x="247" y="518"/>
      <point x="233" y="469"/>
      <point x="197" y="433" type="curve"/>
      <point x="172" y="471"/>
      <point x="158" y="530"/>
      <point x="158" y="575" type="curve" smooth="yes"/>
      <point x="158" y="629"/>
      <point x="174" y="658"/>
    </contour>
  </outline>
</glyph>
<glyph name="ampersand.serif" format="2">
  <advance width="599"/>
  <unicode hex="0026"/>
  <outline>
    <contour>
      <point x="216" y="-10" type="curve" smooth="yes"/>
      <point x="300" y="-10"/>
      <point x="355" y="32"/>
      <point x="395" y="90" type="curve"/>
      <point x="463" y="0" type="line"/>
      <point x="591" y="0" type="line"/>
      <point x="591" y="10" type="line"/>
      <point x="586" y="10" type="line" smooth="yes"/>
      <point x="560" y="10"/>
      <point x="548" y="16"/>
      <point x="516" y="58" type="curve" smooth="yes"/>
      <point x="436" y="161" type="line"/>
      <point x="455" y="213"/>
      <point x="464" y="266"/>
      <point x="473" y="331" type="curve" smooth="yes"/>
      <point x="482" y="397"/>
      <point x="495" y="411"/>
      <point x="555" y="411" type="curve" smooth="yes"/>
      <point x="567" y="411" type="line"/>
      <point x="567" y="421" type="line"/>
      <point x="419" y="421" type="line"/>
      <point x="419" y="367" type="line" smooth="yes"/>
      <point x="419" y="313"/>
      <point x="413" y="256"/>
      <point x="400" y="207" type="curve"/>
      <point x="253" y="407" type="line"/>
      <point x="360" y="447"/>
      <point x="394" y="511"/>
      <point x="394" y="584" type="curve" smooth="yes"/>
      <point x="394" y="662"/>
      <point x="346" y="724"/>
      <point x="252" y="724" type="curve" smooth="yes"/>
      <point x="152" y="724"/>
      <point x="100" y="661"/>
      <point x="100" y="571" type="curve" smooth="yes"/>
      <point x="100" y="502"/>
      <point x="125" y="452"/>
      <point x="175" y="388" type="curve"/>
      <point x="72" y="351"/>
      <point x="29" y="287"/>
      <point x="29" y="193" type="curve" smooth="yes"/>
      <point x="29" y="71"/>
      <point x="99" y="-10"/>
    </contour>
    <contour>
      <point x="235" y="3" type="curve" smooth="yes"/>
      <point x="164" y="3"/>
      <point x="108" y="51"/>
      <point x="108" y="198" type="curve" smooth="yes"/>
      <point x="108" y="297"/>
      <point x="144" y="350"/>
      <point x="182" y="378" type="curve"/>
      <point x="377" y="115" type="line"/>
      <point x="345" y="40"/>
      <point x="299" y="3"/>
    </contour>
    <contour>
      <point x="247" y="415" type="curve"/>
      <point x="189" y="490"/>
      <point x="168" y="536"/>
      <point x="168" y="597" type="curve" smooth="yes"/>
      <point x="168" y="671"/>
      <point x="197" y="714"/>
      <point x="252" y="714" type="curve" smooth="yes"/>
      <point x="309" y="714"/>
      <point x="335" y="665"/>
      <point x="335" y="584" type="curve" smooth="yes"/>
      <point x="335" y="492"/>
      <point x="302" y="444"/>
    </contour>
  </outline>
</glyph>
<glyph name="quotesingle.serif" format="2">
  <advance width="133"/>
  <unicode hex="0027"/>
  <outline>
    <contour>
      <point x="60" y="479" type="line"/>
      <point x="74" y="479" type="line"/>
      <point x="103" y="714" type="line"/>
      <point x="30" y="714" type="line"/>
    </contour>
  </outline>
</glyph>
<glyph name="parenleft" format="2">
  <advance width="283"/>
  <unicode hex="0028"/>
  <outline>
    <contour>
      <point x="47" y="277" type="curve" smooth="yes"/>
      <point x="47" y="110"/>
      <point x="94" y="-44"/>
      <point x="184" y="-158" type="curve"/>
      <point x="255" y="-158" type="line"/>
      <point x="174" y="-34"/>
      <point x="129" y="122"/>
      <point x="129" y="278" type="curve" smooth="yes"/>
      <point x="129" y="436"/>
      <point x="172" y="589"/>
      <point x="256" y="720" type="curve"/>
      <point x="184" y="720" type="line"/>
      <point x="97" y="604"/>
      <point x="47" y="446"/>
    </contour>
  </outline>
</glyph>
<glyph name="parenleft.serif" format="2">
  <advance width="284"/>
  <unicode hex="0028"/>
  <outline>
    <contour>
      <point x="259" y="-127" type="curve"/>
      <point x="259" y="-117" type="line"/>
      <point x="179" y="-62"/>
      <point x="134" y="88"/>
      <point x="134" y="316" type="curve" smooth="yes"/>
      <point x="134" y="544"/>
      <point x="179" y="693"/>
      <point x="259" y="748" type="curve"/>
      <point x="259" y="758" type="line"/>
      <point x="117" y="693"/>
      <point x="45" y="548"/>
      <point x="45" y="316" type="curve" smooth="yes"/>
      <point x="45" y="82"/>
      <point x="117" y="-62"/>
    </contour>
  </outline>
</glyph>
<glyph name="parenright" format="2">
  <advance width="283"/>
  <unicode hex="0029"/>
  <outline>
    <contour>
      <point x="236" y="277" type="curve" smooth="yes"/>
      <point x="236" y="442"/>
      <point x="187" y="604"/>
      <point x="99" y="720" type="curve"/>
      <point x="27" y="720" type="line"/>
      <point x="110" y="590"/>
      <point x="154" y="439"/>
      <point x="154" y="278" type="curve" smooth="yes"/>
      <point x="154" y="123"/>
      <point x="109" y="-33"/>
      <point x="28" y="-158" type="curve"/>
      <point x="99" y="-158" type="line"/>
      <point x="187" y="-45"/>
      <point x="236" y="111"/>
    </contour>
  </outline>
</glyph>
<glyph name="parenright.serif" format="2">
  <advance width="284"/>
  <unicode hex="0029"/>
  <outline>
    <contour>
      <point x="24" y="-117" type="curve"/>
      <point x="24" y="-127" type="line"/>
      <point x="167" y="-62"/>
      <point x="239" y="82"/>
      <point x="239" y="316" type="curve" smooth="yes"/>
      <point x="239" y="548"/>
      <point x="167" y="693"/>
      <point x="24" y="758" type="curve"/>
      <point x="24" y="748" type="line"/>
      <point x="105" y="693"/>
      <point x="149" y="544"/>
      <point x="149" y="316" type="curve" smooth="yes"/>
      <point x="149" y="88"/>
      <point x="105" y="-62"/>
    </contour>
  </outline>
</glyph>
<glyph name="asterisk" format="2">
  <advance width="388"/>
  <unicode hex="002A"/>
  <outline>
    <contour>
      <point x="236" y="761" type="line"/>
      <point x="152" y="761" type="line"/>
      <point x="166" y="631" type="line"/>
      <point x="50" y="666" type="line"/>
      <point x="34" y="588" type="line"/>
      <point x="148" y="580" type="line"/>
      <point x="68" y="469" type="line"/>
      <point x="135" y="428" type="line"/>
      <point x="194" y="550" type="line"/>
      <point x="252" y="428" type="line"/>
      <point x="321" y="469" type="line"/>
      <point x="238" y="580" type="line"/>
      <point x="354" y="589" type="line"/>
      <point x="338" y="667" type="line"/>
      <point x="222" y="631" type="line"/>
    </contour>
  </outline>
</glyph>
<glyph name="asterisk.serif" format="2">
  <advance width="376"/>
  <unicode hex="002A"/>
  <outline>
    <contour>
      <point x="157" y="374" type="line"/>
      <point x="220" y="374" type="line"/>
      <point x="195" y="554" type="line"/>
      <point x="316" y="457" type="line"/>
      <point x="344" y="516" type="line"/>
      <point x="200" y="567" type="line"/>
      <point x="344" y="618" type="line"/>
      <point x="316" y="679" type="line"/>
      <point x="195" y="580" type="line"/>
      <point x="220" y="760" type="line"/>
      <point x="157" y="760" type="line"/>
      <point x="180" y="581" type="line"/>
      <point x="59" y="681" type="line"/>
      <point x="31" y="619" type="line"/>
      <point x="175" y="567" type="line"/>
      <point x="31" y="515" type="line"/>
      <point x="59" y="455" type="line"/>
      <point x="180" y="553" type="line"/>
    </contour>
  </outline>
</glyph>
<glyph name="plus" format="2">
  <advance width="419"/>
  <unicode hex="002B"/>
  <outline>
    <contour>
      <point x="244" y="387" type="line"/>
      <point x="244" y="588" type="line"/>
      <point x="174" y="588" type="line"/>
      <point x="174" y="387" type="line"/>
      <point x="29" y="387" type="line"/>
      <point x="29" y="319" type="line"/>
      <point x="174" y="319" type="line"/>
      <point x="174" y="119" type="line"/>
      <point x="244" y="119" type="line"/>
      <point x="244" y="319" type="line"/>
      <point x="388" y="319" type="line"/>
      <point x="388" y="387" type="line"/>
    </contour>
  </outline>
</glyph>
<glyph name="comma" format="2">
  <advance width="221"/>
  <unicode hex="002C"/>
  <outline>
    <contour>
      <point x="171" y="103" type="curve"/>
      <point x="164" y="114" type="line"/>
      <point x="78" y="114" type="line"/>
      <point x="72" y="42"/>
      <point x="55" y="-51"/>
      <point x="35" y="-132" type="curve"/>
      <point x="98" y="-132" type="line"/>
      <point x="129" y="-60"/>
      <point x="152" y="19"/>
    </contour>
  </outline>
</glyph>
<glyph name="comma.serif" format="2">
  <advance width="207"/>
  <unicode hex="002C"/>
  <outline>
    <contour>
      <point x="32" y="-144" type="curve"/>
      <point x="32" y="-155" type="line"/>
      <point x="122" y="-123"/>
      <point x="156" y="-52"/>
      <point x="156" y="17" type="curve" smooth="yes"/>
      <point x="156" y="80"/>
      <point x="129" y="109"/>
      <point x="94" y="109" type="curve" smooth="yes"/>
      <point x="68" y="109"/>
      <point x="48" y="95"/>
      <point x="48" y="60" type="curve" smooth="yes"/>
      <point x="48" y="-4"/>
      <point x="118" y="17"/>
      <point x="118" y="-42" type="curve" smooth="yes"/>
      <point x="118" y="-88"/>
      <point x="74" y="-128"/>
    </contour>
  </outline>
</glyph>
<glyph name="hyphen.serif" format="2">
  <advance width="246"/>
  <unicode hex="002D"/>
  <outline>
    <contour>
      <point x="20" y="263" type="line"/>
      <point x="226" y="263" type="line"/>
      <point x="226" y="283" type="line"/>
      <point x="20" y="283" type="line"/>
    </contour>
  </outline>
</glyph>
<glyph name="period" format="2">
  <advance width="221"/>
  <unicode hex="002E"/>
  <outline>
    <contour>
      <point x="57" y="55" type="curve" smooth="yes"/>
      <point x="57" y="13"/>
      <point x="77" y="-9"/>
      <point x="111" y="-9" type="curve" smooth="yes"/>
      <point x="143" y="-9"/>
      <point x="164" y="11"/>
      <point x="164" y="55" type="curve" smooth="yes"/>
      <point x="164" y="100"/>
      <point x="144" y="119"/>
      <point x="111" y="119" type="curve" smooth="yes"/>
      <point x="76" y="119"/>
      <point x="57" y="97"/>
    </contour>
  </outline>
</glyph>
<glyph name="period.serif" format="2">
  <advance width="207"/>
  <unicode hex="002E"/>
  <outline>
    <contour>
      <point x="99" y="-7" type="curve" smooth="yes"/>
      <point x="123" y="-7"/>
      <point x="140" y="9"/>
      <point x="140" y="51" type="curve" smooth="yes"/>
      <point x="140" y="93"/>
      <point x="123" y="108"/>
      <point x="99" y="108" type="curve" smooth="yes"/>
      <point x="74" y="108"/>
      <point x="57" y="93"/>
      <point x="57" y="51" type="curve" smooth="yes"/>
      <point x="57" y="9"/>
      <point x="74" y="-7"/>
    </contour>
  </outline>
</glyph>
<glyph name="zero" format="2">
  <advance width="419"/>
  <unicode hex="0030"/>
  <outline>
    <contour>
      <point x="378" y="357" type="curve" smooth="yes"/>
      <point x="378" y="603"/>
      <point x="324" y="724"/>
      <point x="209" y="724" type="curve" smooth="yes"/>
      <point x="96" y="724"/>
      <point x="40" y="604"/>
      <point x="40" y="357" type="curve" smooth="yes"/>
      <point x="40" y="71"/>
      <point x="103" y="-10"/>
      <point x="209" y="-10" type="curve" smooth="yes"/>
      <point x="330" y="-10"/>
      <point x="378" y="126"/>
    </contour>
    <contour>
      <point x="125" y="357" type="curve" smooth="yes"/>
      <point x="125" y="553"/>
      <point x="149" y="648"/>
      <point x="209" y="648" type="curve" smooth="yes"/>
      <point x="269" y="648"/>
      <point x="294" y="551"/>
      <point x="294" y="357" type="curve" smooth="yes"/>
      <point x="294" y="162"/>
      <point x="269" y="66"/>
      <point x="209" y="66" type="curve" smooth="yes"/>
      <point x="149" y="66"/>
      <point x="125" y="161"/>
    </contour>
  </outline>
</glyph>
<glyph name="zero.serif" format="2">
  <advance width="443"/>
  <unicode hex="0030"/>
  <outline>
    <contour>
      <point x="221" y="-10" type="curve" smooth="yes"/>
      <point x="351" y="-10"/>
      <point x="408" y="116"/>
      <point x="408" y="358" type="curve" smooth="yes"/>
      <point x="408" y="594"/>
      <point x="354" y="724"/>
      <point x="222" y="724" type="curve" smooth="yes"/>
      <point x="81" y="724"/>
      <point x="33" y="588"/>
      <point x="33" y="359" type="curve" smooth="yes"/>
      <point x="33" y="121"/>
      <point x="84" y="-10"/>
    </contour>
    <contour>
      <point x="221" y="0" type="curve" smooth="yes"/>
      <point x="147" y="0"/>
      <point x="119" y="91"/>
      <point x="119" y="358" type="curve" smooth="yes"/>
      <point x="119" y="624"/>
      <point x="147" y="714"/>
      <point x="222" y="714" type="curve" smooth="yes"/>
      <point x="294" y="714"/>
      <point x="323" y="624"/>
      <point x="323" y="358" type="curve" smooth="yes"/>
      <point x="323" y="91"/>
      <point x="294" y="0"/>
    </contour>
  </outline>
</glyph>
<glyph name="one" format="2">
  <advance width="419"/>
  <unicode hex="0031"/>
  <outline>
    <contour>
      <point x="289" y="0" type="line"/>
      <point x="289" y="714" type="line"/>
      <point x="216" y="714" type="line"/>
      <point x="59" y="557" type="line"/>
      <point x="107" y="506" type="line"/>
      <point x="166" y="566" type="line" smooth="yes"/>
      <point x="188" y="588"/>
      <point x="201" y="604"/>
      <point x="209" y="615" type="curve"/>
      <point x="207" y="570"/>
      <point x="205" y="524"/>
      <point x="205" y="481" type="curve" smooth="yes"/>
      <point x="205" y="0" type="line"/>
    </contour>
  </outline>
</glyph>
<glyph name="one.serif" format="2">
  <advance width="443"/>
  <unicode hex="0031"/>
  <outline>
    <contour>
      <point x="79" y="0" type="line"/>
      <point x="375" y="0" type="line"/>
      <point x="375" y="10" type="line"/>
      <point x="325" y="10" type="line" smooth="yes"/>
      <point x="282" y="10"/>
      <point x="274" y="26"/>
      <point x="274" y="86" type="curve" smooth="yes"/>
      <point x="274" y="718" type="line"/>
      <point x="226" y="718" type="line"/>
      <point x="198" y="682" type="line" smooth="yes"/>
      <point x="142" y="613"/>
      <point x="109" y="593"/>
      <point x="47" y="584" type="curve"/>
      <point x="47" y="559"/>
      <point x="62" y="547"/>
      <point x="83" y="547" type="curve" smooth="yes"/>
      <point x="113" y="547"/>
      <point x="139" y="576"/>
      <point x="191" y="659" type="curve"/>
      <point x="191" y="86" type="line" smooth="yes"/>
      <point x="191" y="22"/>
      <point x="181" y="10"/>
      <point x="140" y="10" type="curve" smooth="yes"/>
      <point x="79" y="10" type="line"/>
    </contour>
  </outline>
</glyph>
<glyph name="two" format="2">
  <advance width="419"/>
  <unicode hex="0032"/>
  <outline>
    <contour>
      <point x="373" y="0" type="line"/>
      <point x="373" y="75" type="line"/>
      <point x="131" y="75" type="line"/>
      <point x="131" y="79" type="line"/>
      <point x="243" y="244" type="line" smooth="yes"/>
      <point x="321" y="359"/>
      <point x="359" y="431"/>
      <point x="359" y="545" type="curve" smooth="yes"/>
      <point x="359" y="651"/>
      <point x="297" y="724"/>
      <point x="192" y="724" type="curve" smooth="yes"/>
      <point x="131" y="724"/>
      <point x="86" y="705"/>
      <point x="36" y="657" type="curve"/>
      <point x="79" y="599" type="line"/>
      <point x="115" y="635"/>
      <point x="145" y="649"/>
      <point x="185" y="649" type="curve" smooth="yes"/>
      <point x="244" y="649"/>
      <point x="275" y="606"/>
      <point x="275" y="542" type="curve" smooth="yes"/>
      <point x="275" y="450"/>
      <point x="250" y="393"/>
      <point x="168" y="269" type="curve" smooth="yes"/>
      <point x="32" y="62" type="line"/>
      <point x="32" y="0" type="line"/>
    </contour>
  </outline>
</glyph>
<glyph name="two.serif" format="2">
  <advance width="443"/>
  <unicode hex="0032"/>
  <outline>
    <contour>
      <point x="37" y="0" type="line"/>
      <point x="393" y="0" type="line"/>
      <point x="397" y="170" type="line"/>
      <point x="387" y="170" type="line"/>
      <point x="386" y="135" type="line" smooth="yes"/>
      <point x="383" y="84"/>
      <point x="371" y="67"/>
      <point x="322" y="67" type="curve" smooth="yes"/>
      <point x="58" y="67" type="line"/>
      <point x="166" y="194" type="line" smooth="yes"/>
      <point x="340" y="396"/>
      <point x="380" y="461"/>
      <point x="380" y="555" type="curve" smooth="yes"/>
      <point x="380" y="655"/>
      <point x="325" y="724"/>
      <point x="212" y="724" type="curve" smooth="yes"/>
      <point x="102" y="724"/>
      <point x="53" y="650"/>
      <point x="53" y="593" type="curve" smooth="yes"/>
      <point x="53" y="545"/>
      <point x="86" y="531"/>
      <point x="122" y="531" type="curve"/>
      <point x="122" y="657"/>
      <point x="143" y="714"/>
      <point x="209" y="714" type="curve" smooth="yes"/>
      <point x="276" y="714"/>
      <point x="296" y="658"/>
      <point x="296" y="551" type="curve" smooth="yes"/>
      <point x="296" y="460"/>
      <point x="275" y="381"/>
      <point x="161" y="227" type="curve" smooth="yes"/>
      <point x="37" y="57" type="line"/>
    </contour>
  </outline>
</glyph>
<glyph name="three" format="2">
  <advance width="419"/>
  <unicode hex="0033"/>
  <outline>
    <contour>
      <point x="361" y="550" type="curve" smooth="yes"/>
      <point x="361" y="657"/>
      <point x="299" y="724"/>
      <point x="197" y="724" type="curve" smooth="yes"/>
      <point x="134" y="724"/>
      <point x="85" y="706"/>
      <point x="34" y="658" type="curve"/>
      <point x="74" y="600" type="line"/>
      <point x="110" y="634"/>
      <point x="141" y="651"/>
      <point x="186" y="651" type="curve" smooth="yes"/>
      <point x="245" y="651"/>
      <point x="277" y="611"/>
      <point x="277" y="541" type="curve" smooth="yes"/>
      <point x="277" y="460"/>
      <point x="229" y="405"/>
      <point x="148" y="405" type="curve" smooth="yes"/>
      <point x="110" y="405" type="line"/>
      <point x="110" y="332" type="line"/>
      <point x="145" y="332" type="line" smooth="yes"/>
      <point x="240" y="332"/>
      <point x="285" y="285"/>
      <point x="285" y="200" type="curve" smooth="yes"/>
      <point x="285" y="119"/>
      <point x="249" y="63"/>
      <point x="172" y="63" type="curve" smooth="yes"/>
      <point x="126" y="63"/>
      <point x="79" y="76"/>
      <point x="37" y="102" type="curve"/>
      <point x="37" y="19" type="line"/>
      <point x="79" y="-1"/>
      <point x="123" y="-10"/>
      <point x="180" y="-10" type="curve" smooth="yes"/>
      <point x="302" y="-10"/>
      <point x="372" y="73"/>
      <point x="372" y="196" type="curve" smooth="yes"/>
      <point x="372" y="290"/>
      <point x="328" y="353"/>
      <point x="246" y="371" type="curve"/>
      <point x="246" y="375" type="line"/>
      <point x="322" y="403"/>
      <point x="361" y="466"/>
    </contour>
  </outline>
</glyph>
<glyph name="three.serif" format="2">
  <advance width="443"/>
  <unicode hex="0033"/>
  <outline>
    <contour>
      <point x="202" y="-9" type="curve"/>
      <point x="300" y="-9"/>
      <point x="401" y="43"/>
      <point x="401" y="192" type="curve" smooth="yes"/>
      <point x="401" y="322"/>
      <point x="324" y="369"/>
      <point x="222" y="375" type="curve"/>
      <point x="333" y="390"/>
      <point x="381" y="470"/>
      <point x="381" y="561" type="curve" smooth="yes"/>
      <point x="381" y="664"/>
      <point x="319" y="724"/>
      <point x="218" y="724" type="curve" smooth="yes"/>
      <point x="115" y="724"/>
      <point x="57" y="666"/>
      <point x="57" y="597" type="curve" smooth="yes"/>
      <point x="57" y="550"/>
      <point x="85" y="534"/>
      <point x="125" y="534" type="curve"/>
      <point x="125" y="657"/>
      <point x="146" y="714"/>
      <point x="212" y="714" type="curve" smooth="yes"/>
      <point x="272" y="714"/>
      <point x="297" y="667"/>
      <point x="297" y="560" type="curve" smooth="yes"/>
      <point x="297" y="432"/>
      <point x="251" y="377"/>
      <point x="177" y="377" type="curve"/>
      <point x="143" y="377" type="line"/>
      <point x="143" y="367" type="line"/>
      <point x="179" y="367" type="line" smooth="yes"/>
      <point x="276" y="367"/>
      <point x="316" y="312"/>
      <point x="316" y="190" type="curve" smooth="yes"/>
      <point x="316" y="55"/>
      <point x="269" y="1"/>
      <point x="195" y="1" type="curve" smooth="yes"/>
      <point x="119" y="1"/>
      <point x="94" y="57"/>
      <point x="94" y="159" type="curve"/>
      <point x="65" y="159"/>
      <point x="42" y="139"/>
      <point x="42" y="102" type="curve" smooth="yes"/>
      <point x="42" y="45"/>
      <point x="94" y="-9"/>
    </contour>
  </outline>
</glyph>
<glyph name="four" format="2">
  <advance width="419"/>
  <unicode hex="0034"/>
  <outline>
    <contour>
      <point x="405" y="155" type="line"/>
      <point x="405" y="226" type="line"/>
      <point x="333" y="226" type="line"/>
      <point x="333" y="720" type="line"/>
      <point x="244" y="720" type="line"/>
      <point x="16" y="223" type="line"/>
      <point x="16" y="155" type="line"/>
      <point x="250" y="155" type="line"/>
      <point x="250" y="0" type="line"/>
      <point x="333" y="0" type="line"/>
      <point x="333" y="155" type="line"/>
    </contour>
    <contour>
      <point x="250" y="498" type="curve" smooth="yes"/>
      <point x="250" y="226" type="line"/>
      <point x="90" y="226" type="line"/>
      <point x="218" y="525" type="line" smooth="yes"/>
      <point x="229" y="552"/>
      <point x="240" y="580"/>
      <point x="250" y="611" type="curve"/>
      <point x="253" y="611" type="line"/>
      <point x="252" y="583"/>
      <point x="250" y="529"/>
    </contour>
  </outline>
</glyph>
<glyph name="four.serif" format="2">
  <advance width="443"/>
  <unicode hex="0034"/>
  <outline>
    <contour>
      <point x="165" y="0" type="line"/>
      <point x="412" y="0" type="line"/>
      <point x="412" y="10" type="line"/>
      <point x="403" y="10" type="line" smooth="yes"/>
      <point x="356" y="10"/>
      <point x="336" y="19"/>
      <point x="336" y="87" type="curve" smooth="yes"/>
      <point x="336" y="198" type="line"/>
      <point x="429" y="198" type="line"/>
      <point x="429" y="241" type="line"/>
      <point x="336" y="241" type="line"/>
      <point x="336" y="714" type="line"/>
      <point x="256" y="714" type="line"/>
      <point x="14" y="232" type="line"/>
      <point x="14" y="198" type="line"/>
      <point x="253" y="198" type="line"/>
      <point x="253" y="87" type="line" smooth="yes"/>
      <point x="253" y="19"/>
      <point x="233" y="10"/>
      <point x="183" y="10" type="curve" smooth="yes"/>
      <point x="165" y="10" type="line"/>
    </contour>
    <contour>
      <point x="29" y="241" type="line"/>
      <point x="180" y="541" type="line" smooth="yes"/>
      <point x="200" y="580"/>
      <point x="243" y="666"/>
      <point x="255" y="694" type="curve"/>
      <point x="253" y="634"/>
      <point x="253" y="544"/>
      <point x="253" y="457" type="curve" smooth="yes"/>
      <point x="253" y="241" type="line"/>
    </contour>
  </outline>
</glyph>
<glyph name="five" format="2">
  <advance width="419"/>
  <unicode hex="0035"/>
  <outline>
    <contour>
      <point x="208" y="439" type="curve" smooth="yes"/>
      <point x="185" y="439"/>
      <point x="159" y="436"/>
      <point x="131" y="430" type="curve"/>
      <point x="145" y="638" type="line"/>
      <point x="339" y="638" type="line"/>
      <point x="339" y="714" type="line"/>
      <point x="74" y="714" type="line"/>
      <point x="54" y="384" type="line"/>
      <point x="87" y="352" type="line"/>
      <point x="118" y="362"/>
      <point x="147" y="368"/>
      <point x="177" y="368" type="curve" smooth="yes"/>
      <point x="249" y="368"/>
      <point x="291" y="320"/>
      <point x="291" y="227" type="curve" smooth="yes"/>
      <point x="291" y="138"/>
      <point x="251" y="63"/>
      <point x="170" y="63" type="curve" smooth="yes"/>
      <point x="128" y="63"/>
      <point x="85" y="78"/>
      <point x="48" y="103" type="curve"/>
      <point x="48" y="20" type="line"/>
      <point x="80" y="0"/>
      <point x="122" y="-10"/>
      <point x="176" y="-10" type="curve" smooth="yes"/>
      <point x="306" y="-10"/>
      <point x="376" y="87"/>
      <point x="376" y="230" type="curve" smooth="yes"/>
      <point x="376" y="354"/>
      <point x="312" y="439"/>
    </contour>
  </outline>
</glyph>
<glyph name="five.serif" format="2">
  <advance width="443"/>
  <unicode hex="0035"/>
  <outline>
    <contour>
      <point x="192" y="-10" type="curve" smooth="yes"/>
      <point x="302" y="-10"/>
      <point x="387" y="56"/>
      <point x="387" y="214" type="curve" smooth="yes"/>
      <point x="387" y="355"/>
      <point x="315" y="428"/>
      <point x="205" y="428" type="curve" smooth="yes"/>
      <point x="151" y="428"/>
      <point x="109" y="408"/>
      <point x="83" y="376" type="curve"/>
      <point x="103" y="646" type="line"/>
      <point x="297" y="646" type="line" smooth="yes"/>
      <point x="341" y="646"/>
      <point x="351" y="637"/>
      <point x="354" y="588" type="curve" smooth="yes"/>
      <point x="355" y="568" type="line"/>
      <point x="364" y="568" type="line"/>
      <point x="360" y="713" type="line"/>
      <point x="95" y="713" type="line"/>
      <point x="68" y="360" type="line"/>
      <point x="79" y="356" type="line"/>
      <point x="102" y="387"/>
      <point x="138" y="412"/>
      <point x="184" y="412" type="curve" smooth="yes"/>
      <point x="262" y="412"/>
      <point x="303" y="355"/>
      <point x="303" y="214" type="curve" smooth="yes"/>
      <point x="303" y="63"/>
      <point x="263" y="0"/>
      <point x="187" y="0" type="curve" smooth="yes"/>
      <point x="116" y="0"/>
      <point x="88" y="61"/>
      <point x="88" y="154" type="curve"/>
      <point x="61" y="154"/>
      <point x="40" y="134"/>
      <point x="40" y="100" type="curve" smooth="yes"/>
      <point x="40" y="53"/>
      <point x="85" y="-10"/>
    </contour>
  </outline>
</glyph>
<glyph name="six" format="2">
  <advance width="419"/>
  <unicode hex="0036"/>
  <outline>
    <contour>
      <point x="42" y="303" type="curve" smooth="yes"/>
      <point x="42" y="102"/>
      <point x="104" y="-10"/>
      <point x="215" y="-10" type="curve" smooth="yes"/>
      <point x="325" y="-10"/>
      <point x="379" y="93"/>
      <point x="379" y="226" type="curve" smooth="yes"/>
      <point x="379" y="352"/>
      <point x="332" y="452"/>
      <point x="235" y="452" type="curve" smooth="yes"/>
      <point x="185" y="452"/>
      <point x="147" y="422"/>
      <point x="126" y="372" type="curve"/>
      <point x="122" y="372" type="line"/>
      <point x="128" y="556"/>
      <point x="179" y="650"/>
      <point x="274" y="650" type="curve" smooth="yes"/>
      <point x="299" y="650"/>
      <point x="322" y="646"/>
      <point x="343" y="639" type="curve"/>
      <point x="343" y="714" type="line"/>
      <point x="322" y="720"/>
      <point x="298" y="724"/>
      <point x="270" y="724" type="curve" smooth="yes"/>
      <point x="106" y="724"/>
      <point x="42" y="568"/>
    </contour>
    <contour>
      <point x="214" y="65" type="curve" smooth="yes"/>
      <point x="151" y="65"/>
      <point x="127" y="173"/>
      <point x="127" y="255" type="curve" smooth="yes"/>
      <point x="127" y="319"/>
      <point x="157" y="378"/>
      <point x="214" y="378" type="curve" smooth="yes"/>
      <point x="268" y="378"/>
      <point x="295" y="325"/>
      <point x="295" y="224" type="curve" smooth="yes"/>
      <point x="295" y="117"/>
      <point x="265" y="65"/>
    </contour>
  </outline>
</glyph>
<glyph name="six.serif" format="2">
  <advance width="443"/>
  <unicode hex="0036"/>
  <outline>
    <contour>
      <point x="232" y="-10" type="curve" smooth="yes"/>
      <point x="333" y="-10"/>
      <point x="405" y="62"/>
      <point x="405" y="220" type="curve" smooth="yes"/>
      <point x="405" y="358"/>
      <point x="346" y="433"/>
      <point x="248" y="433" type="curve" smooth="yes"/>
      <point x="189" y="433"/>
      <point x="148" y="395"/>
      <point x="125" y="364" type="curve"/>
      <point x="125" y="626"/>
      <point x="166" y="714"/>
      <point x="251" y="714" type="curve" smooth="yes"/>
      <point x="306" y="714"/>
      <point x="324" y="670"/>
      <point x="324" y="562" type="curve"/>
      <point x="364" y="562"/>
      <point x="388" y="581"/>
      <point x="388" y="620" type="curve" smooth="yes"/>
      <point x="388" y="675"/>
      <point x="346" y="724"/>
      <point x="258" y="724" type="curve" smooth="yes"/>
      <point x="116" y="724"/>
      <point x="45" y="601"/>
      <point x="45" y="342" type="curve" smooth="yes"/>
      <point x="45" y="94"/>
      <point x="115" y="-10"/>
    </contour>
    <contour>
      <point x="235" y="0" type="curve" smooth="yes"/>
      <point x="161" y="0"/>
      <point x="126" y="95"/>
      <point x="125" y="348" type="curve"/>
      <point x="147" y="381"/>
      <point x="182" y="418"/>
      <point x="233" y="418" type="curve" smooth="yes"/>
      <point x="297" y="418"/>
      <point x="325" y="363"/>
      <point x="325" y="219" type="curve" smooth="yes"/>
      <point x="325" y="58"/>
      <point x="293" y="0"/>
    </contour>
  </outline>
</glyph>
<glyph name="seven" format="2">
  <advance width="419"/>
  <unicode hex="0037"/>
  <outline>
    <contour>
      <point x="90" y="0" type="line"/>
      <point x="177" y="0" type="line"/>
      <point x="383" y="652" type="line"/>
      <point x="383" y="714" type="line"/>
      <point x="30" y="714" type="line"/>
      <point x="30" y="637" type="line"/>
      <point x="299" y="637" type="line"/>
    </contour>
  </outline>
</glyph>
<glyph name="seven.serif" format="2">
  <advance width="443"/>
  <unicode hex="0037"/>
  <outline>
    <contour>
      <point x="135" y="0" type="line"/>
      <point x="190" y="0" type="line"/>
      <point x="403" y="677" type="line"/>
      <point x="403" y="713" type="line"/>
      <point x="47" y="713" type="line"/>
      <point x="41" y="537" type="line"/>
      <point x="51" y="537" type="line"/>
      <point x="54" y="580" type="line" smooth="yes"/>
      <point x="58" y="635"/>
      <point x="72" y="646"/>
      <point x="115" y="646" type="curve" smooth="yes"/>
      <point x="382" y="646" type="line"/>
    </contour>
  </outline>
</glyph>
<glyph name="eight" format="2">
  <advance width="419"/>
  <unicode hex="0038"/>
  <outline>
    <contour>
      <point x="211" y="724" type="curve" smooth="yes"/>
      <point x="113" y="724"/>
      <point x="50" y="658"/>
      <point x="50" y="556" type="curve" smooth="yes"/>
      <point x="50" y="485"/>
      <point x="80" y="425"/>
      <point x="146" y="372" type="curve"/>
      <point x="69" y="321"/>
      <point x="33" y="260"/>
      <point x="33" y="176" type="curve" smooth="yes"/>
      <point x="33" y="64"/>
      <point x="98" y="-10"/>
      <point x="214" y="-10" type="curve" smooth="yes"/>
      <point x="318" y="-10"/>
      <point x="387" y="68"/>
      <point x="387" y="181" type="curve" smooth="yes"/>
      <point x="387" y="268"/>
      <point x="337" y="322"/>
      <point x="264" y="373" type="curve"/>
      <point x="336" y="418"/>
      <point x="371" y="479"/>
      <point x="371" y="557" type="curve" smooth="yes"/>
      <point x="371" y="659"/>
      <point x="312" y="724"/>
    </contour>
    <contour>
      <point x="115" y="176" type="curve" smooth="yes"/>
      <point x="115" y="245"/>
      <point x="138" y="290"/>
      <point x="202" y="334" type="curve"/>
      <point x="221" y="320" type="line" smooth="yes"/>
      <point x="279" y="277"/>
      <point x="304" y="232"/>
      <point x="304" y="181" type="curve" smooth="yes"/>
      <point x="304" y="110"/>
      <point x="272" y="60"/>
      <point x="210" y="60" type="curve" smooth="yes"/>
      <point x="149" y="60"/>
      <point x="115" y="109"/>
    </contour>
    <contour>
      <point x="209" y="654" type="curve" smooth="yes"/>
      <point x="259" y="654"/>
      <point x="289" y="615"/>
      <point x="289" y="551" type="curve" smooth="yes"/>
      <point x="289" y="494"/>
      <point x="266" y="452"/>
      <point x="209" y="413" type="curve"/>
      <point x="157" y="451"/>
      <point x="131" y="490"/>
      <point x="131" y="551" type="curve" smooth="yes"/>
      <point x="131" y="615"/>
      <point x="161" y="654"/>
    </contour>
  </outline>
</glyph>
<glyph name="eight.serif" format="2">
  <advance width="443"/>
  <unicode hex="0038"/>
  <outline>
    <contour>
      <point x="219" y="-10" type="curve" smooth="yes"/>
      <point x="336" y="-10"/>
      <point x="409" y="58"/>
      <point x="409" y="179" type="curve" smooth="yes"/>
      <point x="409" y="295"/>
      <point x="347" y="345"/>
      <point x="264" y="395" type="curve"/>
      <point x="349" y="428"/>
      <point x="388" y="476"/>
      <point x="388" y="557" type="curve" smooth="yes"/>
      <point x="388" y="652"/>
      <point x="336" y="724"/>
      <point x="225" y="724" type="curve" smooth="yes"/>
      <point x="107" y="724"/>
      <point x="55" y="644"/>
      <point x="55" y="546" type="curve" smooth="yes"/>
      <point x="55" y="459"/>
      <point x="105" y="404"/>
      <point x="180" y="363" type="curve"/>
      <point x="81" y="325"/>
      <point x="35" y="266"/>
      <point x="35" y="174" type="curve" smooth="yes"/>
      <point x="35" y="63"/>
      <point x="98" y="-10"/>
    </contour>
    <contour>
      <point x="223" y="0" type="curve" smooth="yes"/>
      <point x="142" y="0"/>
      <point x="107" y="59"/>
      <point x="107" y="171" type="curve" smooth="yes"/>
      <point x="107" y="255"/>
      <point x="131" y="319"/>
      <point x="193" y="354" type="curve"/>
      <point x="287" y="303"/>
      <point x="339" y="249"/>
      <point x="339" y="145" type="curve" smooth="yes"/>
      <point x="339" y="48"/>
      <point x="295" y="0"/>
    </contour>
    <contour>
      <point x="252" y="402" type="curve"/>
      <point x="169" y="449"/>
      <point x="125" y="493"/>
      <point x="125" y="581" type="curve" smooth="yes"/>
      <point x="125" y="664"/>
      <point x="161" y="714"/>
      <point x="224" y="714" type="curve" smooth="yes"/>
      <point x="293" y="714"/>
      <point x="320" y="653"/>
      <point x="320" y="560" type="curve" smooth="yes"/>
      <point x="320" y="490"/>
      <point x="308" y="438"/>
    </contour>
  </outline>
</glyph>
<glyph name="nine" format="2">
  <advance width="419"/>
  <unicode hex="0039"/>
  <outline>
    <contour>
      <point x="373" y="417" type="curve" smooth="yes"/>
      <point x="373" y="614"/>
      <point x="313" y="724"/>
      <point x="204" y="724" type="curve" smooth="yes"/>
      <point x="90" y="724"/>
      <point x="36" y="621"/>
      <point x="36" y="488" type="curve" smooth="yes"/>
      <point x="36" y="362"/>
      <point x="82" y="262"/>
      <point x="180" y="262" type="curve" smooth="yes"/>
      <point x="229" y="262"/>
      <point x="267" y="292"/>
      <point x="289" y="342" type="curve"/>
      <point x="293" y="342" type="line"/>
      <point x="288" y="196"/>
      <point x="255" y="64"/>
      <point x="140" y="64" type="curve" smooth="yes"/>
      <point x="111" y="64"/>
      <point x="88" y="68"/>
      <point x="67" y="76" type="curve"/>
      <point x="67" y="0" type="line"/>
      <point x="86" y="-5"/>
      <point x="119" y="-10"/>
      <point x="143" y="-10" type="curve" smooth="yes"/>
      <point x="309" y="-10"/>
      <point x="373" y="149"/>
    </contour>
    <contour>
      <point x="203" y="649" type="curve" smooth="yes"/>
      <point x="273" y="649"/>
      <point x="288" y="534"/>
      <point x="288" y="467" type="curve" smooth="yes"/>
      <point x="288" y="401"/>
      <point x="261" y="336"/>
      <point x="201" y="336" type="curve" smooth="yes"/>
      <point x="148" y="336"/>
      <point x="120" y="389"/>
      <point x="120" y="490" type="curve" smooth="yes"/>
      <point x="120" y="597"/>
      <point x="148" y="649"/>
    </contour>
  </outline>
</glyph>
<glyph name="nine.serif" format="2">
  <advance width="443"/>
  <unicode hex="0039"/>
  <outline>
    <contour>
      <point x="183" y="-10" type="curve" smooth="yes"/>
      <point x="326" y="-10"/>
      <point x="398" y="122"/>
      <point x="398" y="375" type="curve" smooth="yes"/>
      <point x="398" y="628"/>
      <point x="323" y="724"/>
      <point x="210" y="724" type="curve" smooth="yes"/>
      <point x="95" y="724"/>
      <point x="37" y="633"/>
      <point x="37" y="490" type="curve" smooth="yes"/>
      <point x="37" y="350"/>
      <point x="97" y="281"/>
      <point x="196" y="281" type="curve" smooth="yes"/>
      <point x="259" y="281"/>
      <point x="297" y="317"/>
      <point x="318" y="346" type="curve"/>
      <point x="318" y="99"/>
      <point x="276" y="1"/>
      <point x="189" y="1" type="curve" smooth="yes"/>
      <point x="131" y="1"/>
      <point x="107" y="41"/>
      <point x="103" y="127" type="curve"/>
      <point x="73" y="124"/>
      <point x="58" y="106"/>
      <point x="58" y="80" type="curve" smooth="yes"/>
      <point x="58" y="35"/>
      <point x="101" y="-10"/>
    </contour>
    <contour>
      <point x="211" y="296" type="curve" smooth="yes"/>
      <point x="144" y="296"/>
      <point x="117" y="349"/>
      <point x="117" y="492" type="curve" smooth="yes"/>
      <point x="117" y="646"/>
      <point x="143" y="714"/>
      <point x="205" y="714" type="curve" smooth="yes"/>
      <point x="281" y="714"/>
      <point x="318" y="612"/>
      <point x="318" y="363" type="curve"/>
      <point x="299" y="334"/>
      <point x="267" y="296"/>
    </contour>
  </outline>
</glyph>
<glyph name="colon" format="2">
  <advance width="221"/>
  <unicode hex="003A"/>
  <outline>
    <contour>
      <point x="58" y="55" type="curve" smooth="yes"/>
      <point x="58" y="13"/>
      <point x="77" y="-9"/>
      <point x="112" y="-9" type="curve" smooth="yes"/>
      <point x="143" y="-9"/>
      <point x="165" y="11"/>
      <point x="165" y="55" type="curve" smooth="yes"/>
      <point x="165" y="100"/>
      <point x="145" y="119"/>
      <point x="112" y="119" type="curve" smooth="yes"/>
      <point x="76" y="119"/>
      <point x="58" y="97"/>
    </contour>
    <contour>
      <point x="58" y="476" type="curve" smooth="yes"/>
      <point x="58" y="433"/>
      <point x="77" y="411"/>
      <point x="112" y="411" type="curve" smooth="yes"/>
      <point x="143" y="411"/>
      <point x="165" y="432"/>
      <point x="165" y="476" type="curve" smooth="yes"/>
      <point x="165" y="518"/>
      <point x="147" y="540"/>
      <point x="112" y="540" type="curve" smooth="yes"/>
      <point x="76" y="540"/>
      <point x="58" y="518"/>
    </contour>
  </outline>
</glyph>
<glyph name="colon.serif" format="2">
  <advance width="220"/>
  <unicode hex="003A"/>
  <outline>
    <contour>
      <point x="105" y="410" type="curve" smooth="yes"/>
      <point x="128" y="410"/>
      <point x="146" y="426"/>
      <point x="146" y="468" type="curve" smooth="yes"/>
      <point x="146" y="510"/>
      <point x="128" y="525"/>
      <point x="105" y="525" type="curve" smooth="yes"/>
      <point x="80" y="525"/>
      <point x="64" y="510"/>
      <point x="64" y="468" type="curve" smooth="yes"/>
      <point x="64" y="426"/>
      <point x="80" y="410"/>
    </contour>
    <contour>
      <point x="105" y="-6" type="curve" smooth="yes"/>
      <point x="128" y="-6"/>
      <point x="146" y="9"/>
      <point x="146" y="52" type="curve" smooth="yes"/>
      <point x="146" y="94"/>
      <point x="128" y="109"/>
      <point x="105" y="109" type="curve" smooth="yes"/>
      <point x="80" y="109"/>
      <point x="64" y="94"/>
      <point x="64" y="52" type="curve" smooth="yes"/>
      <point x="64" y="9"/>
      <point x="80" y="-6"/>
    </contour>
  </outline>
</glyph>
<glyph name="semicolon" format="2">
  <advance width="221"/>
  <unicode hex="003B"/>
  <outline>
    <contour>
      <point x="171" y="103" type="curve"/>
      <point x="164" y="114" type="line"/>
      <point x="79" y="114" type="line"/>
      <point x="72" y="42"/>
      <point x="56" y="-50"/>
      <point x="35" y="-132" type="curve"/>
      <point x="98" y="-132" type="line"/>
      <point x="129" y="-60"/>
      <point x="153" y="19"/>
    </contour>
    <contour>
      <point x="58" y="476" type="curve" smooth="yes"/>
      <point x="58" y="433"/>
      <point x="77" y="411"/>
      <point x="112" y="411" type="curve" smooth="yes"/>
      <point x="143" y="411"/>
      <point x="165" y="432"/>
      <point x="165" y="476" type="curve" smooth="yes"/>
      <point x="165" y="518"/>
      <point x="147" y="540"/>
      <point x="112" y="540" type="curve" smooth="yes"/>
      <point x="76" y="540"/>
      <point x="58" y="518"/>
    </contour>
  </outline>
</glyph>
<glyph name="semicolon.serif" format="2">
  <advance width="220"/>
  <unicode hex="003B"/>
  <outline>
    <contour>
      <point x="40" y="-144" type="curve"/>
      <point x="40" y="-155" type="line"/>
      <point x="131" y="-123"/>
      <point x="164" y="-52"/>
      <point x="164" y="17" type="curve" smooth="yes"/>
      <point x="164" y="80"/>
      <point x="138" y="109"/>
      <point x="102" y="109" type="curve" smooth="yes"/>
      <point x="77" y="109"/>
      <point x="56" y="95"/>
      <point x="56" y="60" type="curve" smooth="yes"/>
      <point x="56" y="-4"/>
      <point x="126" y="17"/>
      <point x="126" y="-42" type="curve" smooth="yes"/>
      <point x="126" y="-88"/>
      <point x="83" y="-128"/>
    </contour>
    <contour>
      <point x="110" y="408" type="curve" smooth="yes"/>
      <point x="133" y="408"/>
      <point x="152" y="422"/>
      <point x="152" y="467" type="curve" smooth="yes"/>
      <point x="152" y="510"/>
      <point x="133" y="524"/>
      <point x="110" y="524" type="curve" smooth="yes"/>
      <point x="88" y="524"/>
      <point x="69" y="510"/>
      <point x="69" y="467" type="curve" smooth="yes"/>
      <point x="69" y="422"/>
      <point x="88" y="408"/>
    </contour>
  </outline>
</glyph>
<glyph name="less" format="2">
  <advance width="419"/>
  <unicode hex="003C"/>
  <outline>
    <contour>
      <point x="390" y="132" type="line"/>
      <point x="390" y="210" type="line"/>
      <point x="121" y="355" type="line"/>
      <point x="390" y="500" type="line"/>
      <point x="390" y="578" type="line"/>
      <point x="28" y="380" type="line"/>
      <point x="28" y="332" type="line"/>
    </contour>
  </outline>
</glyph>
<glyph name="equal.serif" format="2">
  <advance width="425"/>
  <unicode hex="003D"/>
  <outline>
    <contour>
      <point x="51" y="447" type="line"/>
      <point x="373" y="447" type="line"/>
      <point x="373" y="467" type="line"/>
      <point x="51" y="467" type="line"/>
    </contour>
    <contour>
      <point x="51" y="248" type="line"/>
      <point x="373" y="248" type="line"/>
      <point x="373" y="268" type="line"/>
      <point x="51" y="268" type="line"/>
    </contour>
  </outline>
</glyph>
<glyph name="greater.serif" format="2">
  <advance width="425"/>
  <unicode hex="003E"/>
  <outline>
    <contour>
      <point x="54" y="119" type="line"/>
      <point x="371" y="347" type="line"/>
      <point x="371" y="367" type="line"/>
      <point x="54" y="595" type="line"/>
      <point x="54" y="571" type="line"/>
      <point x="353" y="357" type="line"/>
      <point x="54" y="143" type="line"/>
    </contour>
  </outline>
</glyph>
<glyph name="question" format="2">
  <advance width="311"/>
  <unicode hex="003F"/>
  <outline>
    <contour>
      <point x="95" y="230" type="curve" smooth="yes"/>
      <point x="95" y="201" type="line"/>
      <point x="161" y="201" type="line"/>
      <point x="161" y="221" type="line" smooth="yes"/>
      <point x="161" y="275"/>
      <point x="172" y="306"/>
      <point x="211" y="358" type="curve" smooth="yes"/>
      <point x="267" y="433"/>
      <point x="291" y="474"/>
      <point x="291" y="560" type="curve" smooth="yes"/>
      <point x="291" y="665"/>
      <point x="238" y="724"/>
      <point x="142" y="724" type="curve" smooth="yes"/>
      <point x="96" y="724"/>
      <point x="52" y="709"/>
      <point x="11" y="678" type="curve"/>
      <point x="42" y="614" type="line"/>
      <point x="74" y="637"/>
      <point x="102" y="650"/>
      <point x="138" y="650" type="curve" smooth="yes"/>
      <point x="183" y="650"/>
      <point x="210" y="617"/>
      <point x="210" y="553" type="curve" smooth="yes"/>
      <point x="210" y="495"/>
      <point x="193" y="455"/>
      <point x="147" y="394" type="curve" smooth="yes"/>
      <point x="107" y="342"/>
      <point x="95" y="298"/>
    </contour>
    <contour>
      <point x="76" y="55" type="curve" smooth="yes"/>
      <point x="76" y="13"/>
      <point x="96" y="-9"/>
      <point x="129" y="-9" type="curve" smooth="yes"/>
      <point x="161" y="-9"/>
      <point x="183" y="11"/>
      <point x="183" y="55" type="curve" smooth="yes"/>
      <point x="183" y="100"/>
      <point x="162" y="119"/>
      <point x="129" y="119" type="curve" smooth="yes"/>
      <point x="94" y="119"/>
      <point x="76" y="97"/>
    </contour>
  </outline>
</glyph>
<glyph name="question.serif" format="2">
  <advance width="412"/>
  <unicode hex="003F"/>
  <outline>
    <contour>
      <point x="155" y="339" type="curve"/>
      <point x="178" y="209" type="line"/>
      <point x="193" y="209" type="line"/>
      <point x="212" y="336" type="line"/>
      <point x="314" y="373"/>
      <point x="365" y="437"/>
      <point x="365" y="546" type="curve" smooth="yes"/>
      <point x="365" y="664"/>
      <point x="296" y="724"/>
      <point x="189" y="724" type="curve" smooth="yes"/>
      <point x="81" y="724"/>
      <point x="34" y="663"/>
      <point x="34" y="610" type="curve" smooth="yes"/>
      <point x="34" y="566"/>
      <point x="64" y="553"/>
      <point x="109" y="553" type="curve"/>
      <point x="109" y="666"/>
      <point x="127" y="714"/>
      <point x="189" y="714" type="curve" smooth="yes"/>
      <point x="250" y="714"/>
      <point x="276" y="669"/>
      <point x="276" y="553" type="curve" smooth="yes"/>
      <point x="276" y="428"/>
      <point x="243" y="373"/>
    </contour>
    <contour>
      <point x="186" y="-6" type="curve" smooth="yes"/>
      <point x="208" y="-6"/>
      <point x="227" y="7"/>
      <point x="227" y="52" type="curve" smooth="yes"/>
      <point x="227" y="96"/>
      <point x="208" y="109"/>
      <point x="186" y="109" type="curve" smooth="yes"/>
      <point x="163" y="109"/>
      <point x="145" y="96"/>
      <point x="145" y="52" type="curve" smooth="yes"/>
      <point x="145" y="7"/>
      <point x="163" y="-6"/>
    </contour>
  </outline>
</glyph>
<glyph name="at" format="2">
  <advance width="635"/>
  <unicode hex="0040"/>
  <outline>
    <contour>
      <point x="592" y="362" type="curve" smooth="yes"/>
      <point x="592" y="559"/>
      <point x="497" y="720"/>
      <point x="334" y="720" type="curve" smooth="yes"/>
      <point x="162" y="720"/>
      <point x="46" y="552"/>
      <point x="46" y="287" type="curve" smooth="yes"/>
      <point x="46" y="49"/>
      <point x="140" y="-84"/>
      <point x="311" y="-84" type="curve" smooth="yes"/>
      <point x="367" y="-84"/>
      <point x="409" y="-73"/>
      <point x="450" y="-51" type="curve"/>
      <point x="450" y="12" type="line"/>
      <point x="413" y="-10"/>
      <point x="362" y="-26"/>
      <point x="313" y="-26" type="curve" smooth="yes"/>
      <point x="173" y="-26"/>
      <point x="112" y="118"/>
      <point x="112" y="294" type="curve" smooth="yes"/>
      <point x="112" y="463"/>
      <point x="174" y="662"/>
      <point x="334" y="662" type="curve" smooth="yes"/>
      <point x="451" y="662"/>
      <point x="526" y="540"/>
      <point x="526" y="364" type="curve" smooth="yes"/>
      <point x="526" y="232"/>
      <point x="506" y="174"/>
      <point x="468" y="174" type="curve" smooth="yes"/>
      <point x="442" y="174"/>
      <point x="426" y="194"/>
      <point x="426" y="244" type="curve" smooth="yes"/>
      <point x="426" y="256"/>
      <point x="427" y="279"/>
      <point x="428" y="299" type="curve" smooth="yes"/>
      <point x="436" y="507" type="line"/>
      <point x="406" y="519"/>
      <point x="372" y="525"/>
      <point x="340" y="525" type="curve" smooth="yes"/>
      <point x="246" y="525"/>
      <point x="194" y="443"/>
      <point x="194" y="294" type="curve" smooth="yes"/>
      <point x="194" y="179"/>
      <point x="233" y="113"/>
      <point x="300" y="113" type="curve" smooth="yes"/>
      <point x="340" y="113"/>
      <point x="367" y="142"/>
      <point x="382" y="204" type="curve"/>
      <point x="387" y="204" type="line"/>
      <point x="393" y="146"/>
      <point x="418" y="113"/>
      <point x="470" y="113" type="curve" smooth="yes"/>
      <point x="547" y="113"/>
      <point x="592" y="202"/>
    </contour>
    <contour>
      <point x="262" y="292" type="curve" smooth="yes"/>
      <point x="262" y="408"/>
      <point x="289" y="470"/>
      <point x="335" y="470" type="curve" smooth="yes"/>
      <point x="347" y="470"/>
      <point x="357" y="469"/>
      <point x="366" y="466" type="curve"/>
      <point x="359" y="336" type="line" smooth="yes"/>
      <point x="353" y="222"/>
      <point x="339" y="174"/>
      <point x="309" y="174" type="curve" smooth="yes"/>
      <point x="279" y="174"/>
      <point x="262" y="213"/>
    </contour>
  </outline>
</glyph>
<glyph name="at.serif" format="2">
  <advance width="727"/>
  <unicode hex="0040"/>
  <outline>
    <contour>
      <point x="324" y="-142" type="curve" smooth="yes"/>
      <point x="423" y="-142"/>
      <point x="490" y="-99"/>
      <point x="552" y="-43" type="curve"/>
      <point x="547" y="-35" type="line"/>
      <point x="480" y="-95"/>
      <point x="416" y="-132"/>
      <point x="330" y="-132" type="curve" smooth="yes"/>
      <point x="189" y="-132"/>
      <point x="104" y="-31"/>
      <point x="104" y="202" type="curve" smooth="yes"/>
      <point x="104" y="494"/>
      <point x="238" y="704"/>
      <point x="431" y="704" type="curve" smooth="yes"/>
      <point x="572" y="704"/>
      <point x="641" y="591"/>
      <point x="641" y="393" type="curve" smooth="yes"/>
      <point x="641" y="217"/>
      <point x="586" y="87"/>
      <point x="521" y="87" type="curve" smooth="yes"/>
      <point x="491" y="87"/>
      <point x="480" y="116"/>
      <point x="480" y="172" type="curve" smooth="yes"/>
      <point x="480" y="213"/>
      <point x="486" y="247"/>
      <point x="491" y="275" type="curve" smooth="yes"/>
      <point x="533" y="520" type="line"/>
      <point x="523" y="520" type="line"/>
      <point x="477" y="490" type="line"/>
      <point x="464" y="509"/>
      <point x="444" y="529"/>
      <point x="399" y="529" type="curve" smooth="yes"/>
      <point x="271" y="529"/>
      <point x="209" y="364"/>
      <point x="209" y="238" type="curve" smooth="yes"/>
      <point x="209" y="131"/>
      <point x="254" y="77"/>
      <point x="317" y="77" type="curve" smooth="yes"/>
      <point x="375" y="77"/>
      <point x="410" y="124"/>
      <point x="431" y="190" type="curve"/>
      <point x="433" y="190" type="line"/>
      <point x="436" y="112"/>
      <point x="475" y="77"/>
      <point x="520" y="77" type="curve" smooth="yes"/>
      <point x="605" y="77"/>
      <point x="686" y="206"/>
      <point x="686" y="388" type="curve" smooth="yes"/>
      <point x="686" y="579"/>
      <point x="596" y="714"/>
      <point x="425" y="714" type="curve" smooth="yes"/>
      <point x="209" y="714"/>
      <point x="52" y="497"/>
      <point x="52" y="212" type="curve" smooth="yes"/>
      <point x="52" y="-29"/>
      <point x="164" y="-142"/>
    </contour>
    <contour>
      <point x="331" y="92" type="curve" smooth="yes"/>
      <point x="294" y="92"/>
      <point x="270" y="134"/>
      <point x="270" y="224" type="curve" smooth="yes"/>
      <point x="270" y="342"/>
      <point x="312" y="519"/>
      <point x="406" y="519" type="curve" smooth="yes"/>
      <point x="438" y="519"/>
      <point x="460" y="498"/>
      <point x="468" y="472" type="curve"/>
      <point x="430" y="248" type="line" smooth="yes"/>
      <point x="417" y="169"/>
      <point x="381" y="92"/>
    </contour>
  </outline>
</glyph>
<glyph name="A" format="2">
  <advance width="441"/>
  <unicode hex="0041"/>
  <anchor x="216" y="0" name="bottom"/>
  <anchor x="220" y="714" name="top"/>
  <anchor x="383" y="714" name="topright"/>
  <outline>
    <contour>
      <point x="351" y="0" type="line"/>
      <point x="441" y="0" type="line"/>
      <point x="270" y="714" type="line"/>
      <point x="168" y="714" type="line"/>
      <point x="0" y="0" type="line"/>
      <point x="91" y="0" type="line"/>
      <point x="140" y="223" type="line"/>
      <point x="302" y="223" type="line"/>
    </contour>
    <contour>
      <point x="235" y="536" type="curve" smooth="yes"/>
      <point x="286" y="301" type="line"/>
      <point x="153" y="301" type="line"/>
      <point x="202" y="536" type="line" smooth="yes"/>
      <point x="209" y="571"/>
      <point x="216" y="607"/>
      <point x="219" y="638" type="curve"/>
      <point x="223" y="607"/>
      <point x="227" y="573"/>
    </contour>
  </outline>
</glyph>
<glyph name="A.serif" format="2">
  <advance width="567"/>
  <unicode hex="0041"/>
  <anchor x="466" y="0" name="bottom"/>
  <anchor x="284" y="714" name="top"/>
  <anchor x="463" y="714" name="topright"/>
  <outline>
    <contour>
      <point x="1" y="0" type="line"/>
      <point x="183" y="0" type="line"/>
      <point x="183" y="10" type="line"/>
      <point x="140" y="10" type="line" smooth="yes"/>
      <point x="107" y="10"/>
      <point x="96" y="18"/>
      <point x="96" y="39" type="curve" smooth="yes"/>
      <point x="96" y="56"/>
      <point x="104" y="86"/>
      <point x="112" y="116" type="curve" smooth="yes"/>
      <point x="150" y="260" type="line"/>
      <point x="365" y="260" type="line"/>
      <point x="406" y="99" type="line" smooth="yes"/>
      <point x="412" y="76"/>
      <point x="420" y="53"/>
      <point x="420" y="37" type="curve" smooth="yes"/>
      <point x="420" y="20"/>
      <point x="412" y="10"/>
      <point x="375" y="10" type="curve" smooth="yes"/>
      <point x="345" y="10" type="line"/>
      <point x="345" y="0" type="line"/>
      <point x="567" y="0" type="line"/>
      <point x="567" y="10" type="line"/>
      <point x="560" y="10" type="line" smooth="yes"/>
      <point x="528" y="10"/>
      <point x="518" y="19"/>
      <point x="507" y="57" type="curve" smooth="yes"/>
      <point x="324" y="714" type="line"/>
      <point x="258" y="714" type="line"/>
      <point x="94" y="89" type="line" smooth="yes"/>
      <point x="77" y="24"/>
      <point x="66" y="10"/>
      <point x="30" y="10" type="curve" smooth="yes"/>
      <point x="1" y="10" type="line"/>
    </contour>
    <contour>
      <point x="153" y="270" type="line"/>
      <point x="229" y="561" type="line" smooth="yes"/>
      <point x="243" y="613"/>
      <point x="247" y="628"/>
      <point x="258" y="680" type="curve"/>
      <point x="263" y="657"/>
      <point x="271" y="624"/>
      <point x="296" y="526" type="curve" smooth="yes"/>
      <point x="362" y="270" type="line"/>
    </contour>
  </outline>
</glyph>
<glyph name="B" format="2">
  <advance width="465"/>
  <unicode hex="0042"/>
  <anchor x="241" y="0" name="bottom"/>
  <anchor x="240" y="714" name="top"/>
  <anchor x="446" y="714" name="topright"/>
  <outline>
    <contour>
      <point x="225" y="714" type="curve" smooth="yes"/>
      <point x="70" y="714" type="line"/>
      <point x="70" y="0" type="line"/>
      <point x="249" y="0" type="line" smooth="yes"/>
      <point x="363" y="0"/>
      <point x="427" y="81"/>
      <point x="427" y="205" type="curve" smooth="yes"/>
      <point x="427" y="301"/>
      <point x="392" y="355"/>
      <point x="314" y="374" type="curve"/>
      <point x="314" y="378" type="line"/>
      <point x="379" y="393"/>
      <point x="414" y="450"/>
      <point x="414" y="542" type="curve" smooth="yes"/>
      <point x="414" y="657"/>
      <point x="348" y="714"/>
    </contour>
    <contour>
      <point x="225" y="408" type="curve" smooth="yes"/>
      <point x="155" y="408" type="line"/>
      <point x="155" y="642" type="line"/>
      <point x="224" y="642" type="line" smooth="yes"/>
      <point x="292" y="642"/>
      <point x="327" y="604"/>
      <point x="327" y="534" type="curve" smooth="yes"/>
      <point x="327" y="450"/>
      <point x="297" y="408"/>
    </contour>
    <contour>
      <point x="155" y="337" type="line"/>
      <point x="231" y="337" type="line"/>
      <point x="300" y="337"/>
      <point x="340" y="292"/>
      <point x="340" y="209" type="curve" smooth="yes"/>
      <point x="340" y="118"/>
      <point x="306" y="73"/>
      <point x="240" y="73" type="curve" smooth="yes"/>
      <point x="155" y="73" type="line"/>
    </contour>
  </outline>
</glyph>
<glyph name="B.serif" format="2">
  <advance width="529"/>
  <unicode hex="0042"/>
  <anchor x="264" y="0" name="bottom"/>
  <anchor x="264" y="714" name="top"/>
  <anchor x="509" y="714" name="topright"/>
  <outline>
    <contour>
      <point x="28" y="0" type="line"/>
      <point x="274" y="0" type="line" smooth="yes"/>
      <point x="416" y="0"/>
      <point x="484" y="63"/>
      <point x="484" y="192" type="curve" smooth="yes"/>
      <point x="484" y="312"/>
      <point x="427" y="367"/>
      <point x="313" y="377" type="curve"/>
      <point x="313" y="379" type="line"/>
      <point x="408" y="391"/>
      <point x="461" y="443"/>
      <point x="461" y="542" type="curve" smooth="yes"/>
      <point x="461" y="660"/>
      <point x="390" y="714"/>
      <point x="251" y="714" type="curve" smooth="yes"/>
      <point x="28" y="714" type="line"/>
      <point x="28" y="704" type="line"/>
      <point x="55" y="704" type="line" smooth="yes"/>
      <point x="90" y="704"/>
      <point x="103" y="694"/>
      <point x="103" y="630" type="curve" smooth="yes"/>
      <point x="103" y="87" type="line" smooth="yes"/>
      <point x="103" y="24"/>
      <point x="95" y="10"/>
      <point x="56" y="10" type="curve" smooth="yes"/>
      <point x="28" y="10" type="line"/>
    </contour>
    <contour>
      <point x="267" y="10" type="curve" smooth="yes"/>
      <point x="190" y="10" type="line"/>
      <point x="190" y="370" type="line"/>
      <point x="269" y="370" type="line" smooth="yes"/>
      <point x="361" y="370"/>
      <point x="391" y="310"/>
      <point x="391" y="189" type="curve" smooth="yes"/>
      <point x="391" y="62"/>
      <point x="359" y="10"/>
    </contour>
    <contour>
      <point x="247" y="380" type="curve" smooth="yes"/>
      <point x="190" y="380" type="line"/>
      <point x="190" y="704" type="line"/>
      <point x="249" y="704" type="line" smooth="yes"/>
      <point x="338" y="704"/>
      <point x="370" y="654"/>
      <point x="370" y="544" type="curve" smooth="yes"/>
      <point x="370" y="436"/>
      <point x="340" y="380"/>
    </contour>
  </outline>
</glyph>
<glyph name="C" format="2">
  <advance width="434"/>
  <unicode hex="0043"/>
  <anchor x="259" y="0" name="bottom"/>
  <anchor x="269" y="725" name="top"/>
  <anchor x="415" y="725" name="topright"/>
  <outline>
    <contour>
      <point x="284" y="649" type="curve" smooth="yes"/>
      <point x="320" y="649"/>
      <point x="352" y="637"/>
      <point x="382" y="618" type="curve"/>
      <point x="411" y="689" type="line"/>
      <point x="371" y="713"/>
      <point x="328" y="725"/>
      <point x="281" y="725" type="curve" smooth="yes"/>
      <point x="124" y="725"/>
      <point x="48" y="561"/>
      <point x="48" y="358" type="curve" smooth="yes"/>
      <point x="48" y="127"/>
      <point x="136" y="-10"/>
      <point x="279" y="-10" type="curve"/>
      <point x="324" y="-10"/>
      <point x="362" y="-1"/>
      <point x="394" y="17" type="curve"/>
      <point x="394" y="93" type="line"/>
      <point x="362" y="77"/>
      <point x="328" y="66"/>
      <point x="289" y="66" type="curve" smooth="yes"/>
      <point x="195" y="66"/>
      <point x="136" y="176"/>
      <point x="136" y="357" type="curve" smooth="yes"/>
      <point x="136" y="512"/>
      <point x="179" y="649"/>
    </contour>
  </outline>
</glyph>
<glyph name="C.serif" format="2">
  <advance width="498"/>
  <unicode hex="0043"/>
  <anchor x="297" y="-10" name="bottom"/>
  <anchor x="289" y="714" name="top"/>
  <anchor x="478" y="714" name="topright"/>
  <outline>
    <contour>
      <point x="295" y="-10" type="curve" smooth="yes"/>
      <point x="416" y="-10"/>
      <point x="467" y="57"/>
      <point x="467" y="105" type="curve" smooth="yes"/>
      <point x="467" y="117"/>
      <point x="462" y="136"/>
      <point x="442" y="142" type="curve"/>
      <point x="430" y="55"/>
      <point x="389" y="1"/>
      <point x="310" y="1" type="curve" smooth="yes"/>
      <point x="187" y="1"/>
      <point x="136" y="124"/>
      <point x="136" y="359" type="curve" smooth="yes"/>
      <point x="136" y="591"/>
      <point x="181" y="714"/>
      <point x="296" y="714" type="curve" smooth="yes"/>
      <point x="370" y="714"/>
      <point x="398" y="661"/>
      <point x="398" y="544" type="curve"/>
      <point x="443" y="544"/>
      <point x="468" y="570"/>
      <point x="468" y="609" type="curve" smooth="yes"/>
      <point x="468" y="671"/>
      <point x="407" y="724"/>
      <point x="298" y="724" type="curve" smooth="yes"/>
      <point x="131" y="724"/>
      <point x="44" y="580"/>
      <point x="44" y="359" type="curve" smooth="yes"/>
      <point x="44" y="136"/>
      <point x="130" y="-10"/>
    </contour>
  </outline>
</glyph>
<glyph name="D" format="2">
  <advance width="503"/>
  <unicode hex="0044"/>
  <anchor x="233" y="0" name="bottom"/>
  <anchor x="254" y="360" name="center"/>
  <anchor x="246" y="714" name="top"/>
  <anchor x="483" y="714" name="topright"/>
  <outline>
    <contour>
      <point x="456" y="366" type="curve" smooth="yes"/>
      <point x="456" y="593"/>
      <point x="372" y="714"/>
      <point x="217" y="714" type="curve" smooth="yes"/>
      <point x="70" y="714" type="line"/>
      <point x="70" y="0" type="line"/>
      <point x="211" y="0" type="line" smooth="yes"/>
      <point x="371" y="0"/>
      <point x="456" y="125"/>
    </contour>
    <contour>
      <point x="367" y="362" type="curve" smooth="yes"/>
      <point x="367" y="172"/>
      <point x="318" y="75"/>
      <point x="208" y="75" type="curve" smooth="yes"/>
      <point x="155" y="75" type="line"/>
      <point x="155" y="639" type="line"/>
      <point x="214" y="639" type="line" smooth="yes"/>
      <point x="315" y="639"/>
      <point x="367" y="546"/>
    </contour>
  </outline>
</glyph>
<glyph name="D.serif" format="2">
  <advance width="583"/>
  <unicode hex="0044"/>
  <anchor x="292" y="0" name="bottom"/>
  <anchor x="292" y="357" name="center"/>
  <anchor x="292" y="714" name="top"/>
  <anchor x="563" y="714" name="topright"/>
  <outline>
    <contour>
      <point x="28" y="0" type="line"/>
      <point x="266" y="0" type="line" smooth="yes"/>
      <point x="450" y="0"/>
      <point x="539" y="137"/>
      <point x="539" y="356" type="curve" smooth="yes"/>
      <point x="539" y="586"/>
      <point x="441" y="714"/>
      <point x="267" y="714" type="curve" smooth="yes"/>
      <point x="28" y="714" type="line"/>
      <point x="28" y="704" type="line"/>
      <point x="52" y="704" type="line" smooth="yes"/>
      <point x="92" y="704"/>
      <point x="103" y="693"/>
      <point x="103" y="631" type="curve" smooth="yes"/>
      <point x="103" y="86" type="line" smooth="yes"/>
      <point x="103" y="23"/>
      <point x="93" y="10"/>
      <point x="54" y="10" type="curve" smooth="yes"/>
      <point x="28" y="10" type="line"/>
    </contour>
    <contour>
      <point x="257" y="10" type="curve" smooth="yes"/>
      <point x="191" y="10" type="line"/>
      <point x="191" y="704" type="line"/>
      <point x="258" y="704" type="line" smooth="yes"/>
      <point x="388" y="704"/>
      <point x="446" y="589"/>
      <point x="446" y="357" type="curve" smooth="yes"/>
      <point x="446" y="113"/>
      <point x="388" y="10"/>
    </contour>
  </outline>
</glyph>
<glyph name="E.serif" format="2">
  <advance width="498"/>
  <unicode hex="0045"/>
  <anchor x="250" y="0" name="bottom"/>
  <anchor x="250" y="714" name="top"/>
  <anchor x="478" y="714" name="topright"/>
  <outline>
    <contour>
      <point x="28" y="0" type="line"/>
      <point x="462" y="0" type="line"/>
      <point x="468" y="173" type="line"/>
      <point x="458" y="173" type="line"/>
      <point x="454" y="110" type="line" smooth="yes"/>
      <point x="448" y="31"/>
      <point x="427" y="10"/>
      <point x="344" y="10" type="curve" smooth="yes"/>
      <point x="190" y="10" type="line"/>
      <point x="191" y="369" type="line"/>
      <point x="392" y="369" type="line"/>
      <point x="392" y="379" type="line"/>
      <point x="191" y="379" type="line"/>
      <point x="191" y="704" type="line"/>
      <point x="316" y="704" type="line" smooth="yes"/>
      <point x="401" y="704"/>
      <point x="423" y="683"/>
      <point x="429" y="593" type="curve" smooth="yes"/>
      <point x="431" y="541" type="line"/>
      <point x="441" y="541" type="line"/>
      <point x="436" y="714" type="line"/>
      <point x="28" y="714" type="line"/>
      <point x="28" y="704" type="line"/>
      <point x="49" y="704" type="line" smooth="yes"/>
      <point x="90" y="704"/>
      <point x="103" y="694"/>
      <point x="103" y="626" type="curve" smooth="yes"/>
      <point x="103" y="86" type="line" smooth="yes"/>
      <point x="103" y="19"/>
      <point x="89" y="10"/>
      <point x="49" y="10" type="curve" smooth="yes"/>
      <point x="28" y="10" type="line"/>
    </contour>
  </outline>
</glyph>
<glyph name="F" format="2">
  <advance width="371"/>
  <unicode hex="0046"/>
  <anchor x="185" y="0" name="bottom"/>
  <anchor x="214" y="714" name="top"/>
  <anchor x="351" y="714" name="topright"/>
  <outline>
    <contour>
      <point x="155" y="0" type="line"/>
      <point x="155" y="305" type="line"/>
      <point x="336" y="305" type="line"/>
      <point x="336" y="381" type="line"/>
      <point x="155" y="381" type="line"/>
      <point x="155" y="639" type="line"/>
      <point x="348" y="639" type="line"/>
      <point x="348" y="714" type="line"/>
      <point x="70" y="714" type="line"/>
      <point x="70" y="0" type="line"/>
    </contour>
  </outline>
</glyph>
<glyph name="F.serif" format="2">
  <advance width="473"/>
  <unicode hex="0046"/>
  <anchor x="147" y="0" name="bottom"/>
  <anchor x="237" y="714" name="top"/>
  <anchor x="453" y="714" name="topright"/>
  <outline>
    <contour>
      <point x="28" y="0" type="line"/>
      <point x="284" y="0" type="line"/>
      <point x="284" y="10" type="line"/>
      <point x="242" y="10" type="line" smooth="yes"/>
      <point x="199" y="10"/>
      <point x="191" y="24"/>
      <point x="191" y="83" type="curve" smooth="yes"/>
      <point x="191" y="346" type="line"/>
      <point x="384" y="346" type="line"/>
      <point x="384" y="356" type="line"/>
      <point x="191" y="356" type="line"/>
      <point x="191" y="704" type="line"/>
      <point x="330" y="704" type="line" smooth="yes"/>
      <point x="406" y="704"/>
      <point x="425" y="680"/>
      <point x="429" y="596" type="curve" smooth="yes"/>
      <point x="431" y="541" type="line"/>
      <point x="441" y="541" type="line"/>
      <point x="436" y="714" type="line"/>
      <point x="28" y="714" type="line"/>
      <point x="28" y="704" type="line"/>
      <point x="56" y="704" type="line" smooth="yes"/>
      <point x="93" y="704"/>
      <point x="103" y="692"/>
      <point x="103" y="631" type="curve" smooth="yes"/>
      <point x="103" y="82" type="line" smooth="yes"/>
      <point x="103" y="22"/>
      <point x="94" y="10"/>
      <point x="50" y="10" type="curve" smooth="yes"/>
      <point x="28" y="10" type="line"/>
    </contour>
  </outline>
</glyph>
<glyph name="G" format="2">
  <advance width="530"/>
  <unicode hex="0047"/>
  <anchor x="300" y="0" name="bottom"/>
  <anchor x="299" y="714" name="top"/>
  <anchor x="511" y="714" name="topright"/>
  <outline>
    <contour>
      <point x="298" y="377" type="line"/>
      <point x="298" y="302" type="line"/>
      <point x="395" y="302" type="line"/>
      <point x="395" y="81" type="line"/>
      <point x="369" y="71"/>
      <point x="337" y="66"/>
      <point x="302" y="66" type="curve" smooth="yes"/>
      <point x="185" y="66"/>
      <point x="137" y="192"/>
      <point x="137" y="357" type="curve" smooth="yes"/>
      <point x="137" y="547"/>
      <point x="198" y="649"/>
      <point x="313" y="649" type="curve" smooth="yes"/>
      <point x="356" y="649"/>
      <point x="398" y="635"/>
      <point x="440" y="607" type="curve"/>
      <point x="470" y="678" type="line"/>
      <point x="424" y="708"/>
      <point x="370" y="724"/>
      <point x="311" y="724" type="curve" smooth="yes"/>
      <point x="134" y="724"/>
      <point x="48" y="572"/>
      <point x="48" y="359" type="curve" smooth="yes"/>
      <point x="48" y="148"/>
      <point x="125" y="-10"/>
      <point x="295" y="-10" type="curve" smooth="yes"/>
      <point x="359" y="-10"/>
      <point x="420" y="2"/>
      <point x="478" y="25" type="curve"/>
      <point x="478" y="377" type="line"/>
    </contour>
  </outline>
</glyph>
<glyph name="G.serif" format="2">
  <advance width="576"/>
  <unicode hex="0047"/>
  <anchor x="324" y="-10" name="bottom"/>
  <anchor x="318" y="714" name="top"/>
  <anchor x="556" y="714" name="topright"/>
  <outline>
    <contour>
      <point x="322" y="-10" type="curve" smooth="yes"/>
      <point x="391" y="-10"/>
      <point x="446" y="4"/>
      <point x="501" y="35" type="curve"/>
      <point x="501" y="242" type="line" smooth="yes"/>
      <point x="501" y="306"/>
      <point x="509" y="319"/>
      <point x="550" y="319" type="curve" smooth="yes"/>
      <point x="556" y="319" type="line"/>
      <point x="556" y="329" type="line"/>
      <point x="342" y="329" type="line"/>
      <point x="342" y="319" type="line"/>
      <point x="355" y="319" type="line" smooth="yes"/>
      <point x="403" y="319"/>
      <point x="413" y="306"/>
      <point x="413" y="245" type="curve" smooth="yes"/>
      <point x="413" y="17" type="line"/>
      <point x="392" y="5"/>
      <point x="361" y="0"/>
      <point x="327" y="0" type="curve" smooth="yes"/>
      <point x="187" y="0"/>
      <point x="136" y="106"/>
      <point x="136" y="358" type="curve" smooth="yes"/>
      <point x="136" y="608"/>
      <point x="197" y="714"/>
      <point x="324" y="714" type="curve" smooth="yes"/>
      <point x="410" y="714"/>
      <point x="436" y="660"/>
      <point x="436" y="545" type="curve"/>
      <point x="482" y="545"/>
      <point x="506" y="570"/>
      <point x="506" y="608" type="curve" smooth="yes"/>
      <point x="506" y="666"/>
      <point x="450" y="724"/>
      <point x="323" y="724" type="curve" smooth="yes"/>
      <point x="147" y="724"/>
      <point x="44" y="594"/>
      <point x="44" y="358" type="curve" smooth="yes"/>
      <point x="44" y="128"/>
      <point x="133" y="-10"/>
    </contour>
  </outline>
</glyph>
<glyph name="H" format="2">
  <advance width="519"/>
  <unicode hex="0048"/>
  <anchor x="260" y="0" name="bottom"/>
  <anchor x="260" y="357" name="center"/>
  <anchor x="261" y="714" name="top"/>
  <anchor x="500" y="714" name="topright"/>
  <outline>
    <contour>
      <point x="450" y="0" type="line"/>
      <point x="450" y="714" type="line"/>
      <point x="365" y="714" type="line"/>
      <point x="365" y="411" type="line"/>
      <point x="155" y="411" type="line"/>
      <point x="155" y="714" type="line"/>
      <point x="70" y="714" type="line"/>
      <point x="70" y="0" type="line"/>
      <point x="155" y="0" type="line"/>
      <point x="155" y="335" type="line"/>
      <point x="365" y="335" type="line"/>
      <point x="365" y="0" type="line"/>
    </contour>
  </outline>
</glyph>
<glyph name="I" format="2">
  <advance width="278"/>
  <unicode hex="0049"/>
  <anchor x="139" y="0" name="bottom"/>
  <anchor x="138" y="714" name="top"/>
  <anchor x="258" y="714" name="topright"/>
  <outline>
    <contour>
      <point x="244" y="0" type="line"/>
      <point x="244" y="48" type="line"/>
      <point x="181" y="65" type="line"/>
      <point x="181" y="649" type="line"/>
      <point x="244" y="666" type="line"/>
      <point x="244" y="714" type="line"/>
      <point x="33" y="714" type="line"/>
      <point x="33" y="666" type="line"/>
      <point x="96" y="649" type="line"/>
      <point x="96" y="65" type="line"/>
      <point x="33" y="48" type="line"/>
      <point x="33" y="0" type="line"/>
    </contour>
  </outline>
</glyph>
<glyph name="I.serif" format="2">
  <advance width="297"/>
  <unicode hex="0049"/>
  <anchor x="149" y="0" name="bottom"/>
  <anchor x="149" y="714" name="top"/>
  <anchor x="277" y="714" name="topright"/>
  <outline>
    <contour>
      <point x="28" y="0" type="line"/>
      <point x="269" y="0" type="line"/>
      <point x="269" y="10" type="line"/>
      <point x="238" y="10" type="line" smooth="yes"/>
      <point x="199" y="10"/>
      <point x="192" y="22"/>
      <point x="192" y="83" type="curve" smooth="yes"/>
      <point x="192" y="629" type="line" smooth="yes"/>
      <point x="192" y="692"/>
      <point x="199" y="704"/>
      <point x="238" y="704" type="curve" smooth="yes"/>
      <point x="269" y="704" type="line"/>
      <point x="269" y="714" type="line"/>
      <point x="28" y="714" type="line"/>
      <point x="28" y="704" type="line"/>
      <point x="59" y="704" type="line" smooth="yes"/>
      <point x="97" y="704"/>
      <point x="104" y="692"/>
      <point x="104" y="629" type="curve" smooth="yes"/>
      <point x="104" y="83" type="line" smooth="yes"/>
      <point x="104" y="22"/>
      <point x="97" y="10"/>
      <point x="59" y="10" type="curve" smooth="yes"/>
      <point x="28" y="10" type="line"/>
    </contour>
  </outline>
</glyph>
<glyph name="J" format="2">
  <advance width="219"/>
  <unicode hex="004A"/>
  <anchor x="16" y="-193" name="bottom"/>
  <anchor x="110" y="714" name="top"/>
  <anchor x="200" y="714" name="topright"/>
  <outline>
    <contour>
      <point x="16" y="-193" type="curve" smooth="yes"/>
      <point x="104" y="-193"/>
      <point x="152" y="-141"/>
      <point x="152" y="-1" type="curve" smooth="yes"/>
      <point x="152" y="714" type="line"/>
      <point x="68" y="714" type="line"/>
      <point x="68" y="6" type="line" smooth="yes"/>
      <point x="68" y="-84"/>
      <point x="49" y="-117"/>
      <point x="6" y="-117" type="curve" smooth="yes"/>
      <point x="-14" y="-117"/>
      <point x="-32" y="-113"/>
      <point x="-48" y="-107" type="curve"/>
      <point x="-48" y="-182" type="line"/>
      <point x="-29" y="-190"/>
      <point x="-8" y="-193"/>
    </contour>
  </outline>
</glyph>
<glyph name="J.serif" format="2">
  <advance width="300"/>
  <unicode hex="004A"/>
  <anchor x="100" y="-240" name="bottom"/>
  <anchor x="153" y="714" name="top"/>
  <anchor x="274" y="714" name="topright"/>
  <outline>
    <contour>
      <point x="-5" y="-240" type="line"/>
      <point x="15" y="-240" type="line" smooth="yes"/>
      <point x="116" y="-240"/>
      <point x="200" y="-187"/>
      <point x="200" y="-9" type="curve" smooth="yes"/>
      <point x="200" y="629" type="line" smooth="yes"/>
      <point x="200" y="692"/>
      <point x="206" y="704"/>
      <point x="246" y="704" type="curve" smooth="yes"/>
      <point x="276" y="704" type="line"/>
      <point x="276" y="714" type="line"/>
      <point x="35" y="714" type="line"/>
      <point x="35" y="704" type="line"/>
      <point x="66" y="704" type="line" smooth="yes"/>
      <point x="104" y="704"/>
      <point x="111" y="692"/>
      <point x="111" y="630" type="curve" smooth="yes"/>
      <point x="111" y="-32" type="line" smooth="yes"/>
      <point x="111" y="-173"/>
      <point x="78" y="-230"/>
      <point x="5" y="-230" type="curve" smooth="yes"/>
      <point x="-5" y="-230" type="line"/>
    </contour>
  </outline>
</glyph>
<glyph name="K" format="2">
  <advance width="437"/>
  <unicode hex="004B"/>
  <anchor x="246" y="0" name="bottom"/>
  <anchor x="243" y="714" name="top"/>
  <anchor x="418" y="714" name="topright"/>
  <outline>
    <contour>
      <point x="441" y="0" type="line"/>
      <point x="261" y="398" type="line"/>
      <point x="433" y="714" type="line"/>
      <point x="342" y="714" type="line"/>
      <point x="207" y="459" type="line" smooth="yes"/>
      <point x="180" y="409"/>
      <point x="162" y="375"/>
      <point x="155" y="356" type="curve"/>
      <point x="155" y="714" type="line"/>
      <point x="70" y="714" type="line"/>
      <point x="70" y="0" type="line"/>
      <point x="155" y="0" type="line"/>
      <point x="155" y="270" type="line"/>
      <point x="204" y="330" type="line"/>
      <point x="347" y="0" type="line"/>
    </contour>
  </outline>
</glyph>
<glyph name="K.serif" format="2">
  <advance width="567"/>
  <unicode hex="004B"/>
  <anchor x="304" y="0" name="bottom"/>
  <anchor x="304" y="714" name="top"/>
  <anchor x="547" y="714" name="topright"/>
  <outline>
    <contour>
      <point x="28" y="0" type="line"/>
      <point x="264" y="0" type="line"/>
      <point x="264" y="10" type="line"/>
      <point x="241" y="10" type="line" smooth="yes"/>
      <point x="202" y="10"/>
      <point x="192" y="23"/>
      <point x="192" y="85" type="curve" smooth="yes"/>
      <point x="192" y="270" type="line"/>
      <point x="253" y="360" type="line"/>
      <point x="390" y="105" type="line" smooth="yes"/>
      <point x="436" y="18"/>
      <point x="462" y="0"/>
      <point x="539" y="0" type="curve" smooth="yes"/>
      <point x="577" y="0" type="line"/>
      <point x="577" y="10" type="line"/>
      <point x="575" y="10" type="line" smooth="yes"/>
      <point x="556" y="10"/>
      <point x="537" y="27"/>
      <point x="498" y="96" type="curve" smooth="yes"/>
      <point x="305" y="432" type="line"/>
      <point x="428" y="607" type="line" smooth="yes"/>
      <point x="487" y="691"/>
      <point x="497" y="704"/>
      <point x="543" y="704" type="curve"/>
      <point x="543" y="714" type="line"/>
      <point x="375" y="714" type="line"/>
      <point x="375" y="704" type="line"/>
      <point x="445" y="704"/>
      <point x="457" y="699"/>
      <point x="457" y="681" type="curve" smooth="yes"/>
      <point x="457" y="670"/>
      <point x="447" y="654"/>
      <point x="418" y="611" type="curve" smooth="yes"/>
      <point x="192" y="288" type="line"/>
      <point x="192" y="632" type="line" smooth="yes"/>
      <point x="192" y="691"/>
      <point x="200" y="704"/>
      <point x="237" y="704" type="curve" smooth="yes"/>
      <point x="264" y="704" type="line"/>
      <point x="264" y="714" type="line"/>
      <point x="28" y="714" type="line"/>
      <point x="28" y="704" type="line"/>
      <point x="56" y="704" type="line" smooth="yes"/>
      <point x="93" y="704"/>
      <point x="103" y="691"/>
      <point x="103" y="632" type="curve" smooth="yes"/>
      <point x="103" y="83" type="line" smooth="yes"/>
      <point x="103" y="22"/>
      <point x="92" y="10"/>
      <point x="54" y="10" type="curve" smooth="yes"/>
      <point x="28" y="10" type="line"/>
    </contour>
  </outline>
</glyph>
<glyph name="L" format="2">
  <advance width="361"/>
  <unicode hex="004C"/>
  <anchor x="210" y="0" name="bottom"/>
  <anchor x="181" y="357" name="center"/>
  <anchor x="112" y="714" name="top"/>
  <anchor x="245" y="714" name="topright"/>
  <outline>
    <contour>
      <point x="70" y="0" type="line"/>
      <point x="345" y="0" type="line"/>
      <point x="345" y="76" type="line"/>
      <point x="155" y="76" type="line"/>
      <point x="155" y="714" type="line"/>
      <point x="70" y="714" type="line"/>
    </contour>
  </outline>
</glyph>
<glyph name="L.serif" format="2">
  <advance width="498"/>
  <unicode hex="004C"/>
  <anchor x="249" y="0" name="bottom"/>
  <anchor x="148" y="357" name="center"/>
  <anchor x="144" y="714" name="top"/>
  <anchor x="478" y="714" name="topright"/>
  <outline>
    <contour>
      <point x="28" y="0" type="line"/>
      <point x="462" y="0" type="line"/>
      <point x="468" y="213" type="line"/>
      <point x="458" y="213" type="line"/>
      <point x="454" y="118" type="line" smooth="yes"/>
      <point x="450" y="37"/>
      <point x="425" y="10"/>
      <point x="343" y="10" type="curve" smooth="yes"/>
      <point x="192" y="10" type="line"/>
      <point x="192" y="628" type="line" smooth="yes"/>
      <point x="192" y="694"/>
      <point x="205" y="704"/>
      <point x="246" y="704" type="curve" smooth="yes"/>
      <point x="269" y="704" type="line"/>
      <point x="269" y="714" type="line"/>
      <point x="28" y="714" type="line"/>
      <point x="28" y="704" type="line"/>
      <point x="49" y="704" type="line" smooth="yes"/>
      <point x="90" y="704"/>
      <point x="103" y="694"/>
      <point x="103" y="626" type="curve" smooth="yes"/>
      <point x="103" y="88" type="line" smooth="yes"/>
      <point x="103" y="20"/>
      <point x="90" y="10"/>
      <point x="49" y="10" type="curve" smooth="yes"/>
      <point x="28" y="10" type="line"/>
    </contour>
  </outline>
</glyph>
<glyph name="M" format="2">
  <advance width="699"/>
  <unicode hex="004D"/>
  <anchor x="350" y="0" name="bottom"/>
  <anchor x="351" y="714" name="top"/>
  <anchor x="680" y="714" name="topright"/>
  <outline>
    <contour>
      <point x="312" y="0" type="line"/>
      <point x="386" y="0" type="line"/>
      <point x="549" y="599" type="line"/>
      <point x="553" y="599" type="line"/>
      <point x="550" y="533"/>
      <point x="548" y="485"/>
      <point x="548" y="456" type="curve" smooth="yes"/>
      <point x="548" y="0" type="line"/>
      <point x="631" y="0" type="line"/>
      <point x="631" y="714" type="line"/>
      <point x="510" y="714" type="line"/>
      <point x="351" y="131" type="line"/>
      <point x="349" y="131" type="line"/>
      <point x="190" y="714" type="line"/>
      <point x="70" y="714" type="line"/>
      <point x="70" y="0" type="line"/>
      <point x="150" y="0" type="line"/>
      <point x="150" y="458" type="line" smooth="yes"/>
      <point x="150" y="484"/>
      <point x="148" y="532"/>
      <point x="145" y="599" type="curve"/>
      <point x="148" y="599" type="line"/>
    </contour>
  </outline>
</glyph>
<glyph name="M.serif" format="2">
  <advance width="745"/>
  <unicode hex="004D"/>
  <anchor x="372" y="0" name="bottom"/>
  <anchor x="373" y="714" name="top"/>
  <anchor x="725" y="714" name="topright"/>
  <outline>
    <contour>
      <point x="28" y="0" type="line"/>
      <point x="220" y="0" type="line"/>
      <point x="220" y="10" type="line"/>
      <point x="187" y="10" type="line" smooth="yes"/>
      <point x="141" y="10"/>
      <point x="128" y="19"/>
      <point x="128" y="87" type="curve" smooth="yes"/>
      <point x="128" y="674" type="line"/>
      <point x="322" y="0" type="line"/>
      <point x="370" y="0" type="line"/>
      <point x="555" y="683" type="line"/>
      <point x="555" y="88" type="line" smooth="yes"/>
      <point x="555" y="23"/>
      <point x="547" y="10"/>
      <point x="503" y="10" type="curve" smooth="yes"/>
      <point x="487" y="10" type="line"/>
      <point x="487" y="0" type="line"/>
      <point x="717" y="0" type="line"/>
      <point x="717" y="10" type="line"/>
      <point x="692" y="10" type="line" smooth="yes"/>
      <point x="651" y="10"/>
      <point x="643" y="23"/>
      <point x="643" y="83" type="curve" smooth="yes"/>
      <point x="643" y="631" type="line" smooth="yes"/>
      <point x="643" y="691"/>
      <point x="653" y="704"/>
      <point x="688" y="704" type="curve" smooth="yes"/>
      <point x="717" y="704" type="line"/>
      <point x="717" y="714" type="line"/>
      <point x="553" y="714" type="line"/>
      <point x="380" y="80" type="line"/>
      <point x="200" y="714" type="line"/>
      <point x="28" y="714" type="line"/>
      <point x="28" y="704" type="line"/>
      <point x="71" y="704" type="line" smooth="yes"/>
      <point x="107" y="704"/>
      <point x="118" y="691"/>
      <point x="118" y="629" type="curve" smooth="yes"/>
      <point x="118" y="85" type="line" smooth="yes"/>
      <point x="118" y="22"/>
      <point x="107" y="10"/>
      <point x="65" y="10" type="curve" smooth="yes"/>
      <point x="28" y="10" type="line"/>
    </contour>
  </outline>
</glyph>
<glyph name="N" format="2">
  <advance width="554"/>
  <unicode hex="004E"/>
  <anchor x="277" y="0" name="bottom"/>
  <anchor x="277" y="714" name="top"/>
  <anchor x="535" y="714" name="topright"/>
  <outline>
    <contour>
      <point x="485" y="0" type="line"/>
      <point x="485" y="714" type="line"/>
      <point x="405" y="714" type="line"/>
      <point x="405" y="286" type="line" smooth="yes"/>
      <point x="405" y="248"/>
      <point x="407" y="200"/>
      <point x="410" y="141" type="curve"/>
      <point x="407" y="141" type="line"/>
      <point x="172" y="714" type="line"/>
      <point x="70" y="714" type="line"/>
      <point x="70" y="0" type="line"/>
      <point x="150" y="0" type="line"/>
      <point x="150" y="438" type="line" smooth="yes"/>
      <point x="150" y="479"/>
      <point x="148" y="527"/>
      <point x="144" y="582" type="curve"/>
      <point x="148" y="582" type="line"/>
      <point x="383" y="0" type="line"/>
    </contour>
  </outline>
</glyph>
<glyph name="O" format="2">
  <advance width="536"/>
  <unicode hex="004F"/>
  <anchor x="268" y="0" name="bottom"/>
  <anchor x="268" y="357" name="center"/>
  <anchor x="268" y="714" name="top"/>
  <anchor x="517" y="714" name="topright"/>
  <outline>
    <contour>
      <point x="489" y="358" type="curve" smooth="yes"/>
      <point x="489" y="563"/>
      <point x="427" y="724"/>
      <point x="269" y="724" type="curve" smooth="yes"/>
      <point x="122" y="724"/>
      <point x="48" y="603"/>
      <point x="48" y="359" type="curve" smooth="yes"/>
      <point x="48" y="156"/>
      <point x="108" y="-10"/>
      <point x="269" y="-10" type="curve" smooth="yes"/>
      <point x="427" y="-10"/>
      <point x="489" y="152"/>
    </contour>
    <contour>
      <point x="136" y="358" type="curve" smooth="yes"/>
      <point x="136" y="549"/>
      <point x="180" y="648"/>
      <point x="269" y="648" type="curve" smooth="yes"/>
      <point x="355" y="648"/>
      <point x="399" y="551"/>
      <point x="399" y="358" type="curve" smooth="yes"/>
      <point x="399" y="163"/>
      <point x="354" y="67"/>
      <point x="268" y="67" type="curve" smooth="yes"/>
      <point x="182" y="67"/>
      <point x="136" y="166"/>
    </contour>
  </outline>
</glyph>
<glyph name="O.serif" format="2">
  <advance width="597"/>
  <unicode hex="004F"/>
  <anchor x="298" y="0" name="bottom"/>
  <anchor x="298" y="357" name="center"/>
  <anchor x="298" y="714" name="top"/>
  <anchor x="577" y="714" name="topright"/>
  <outline>
    <contour>
      <point x="298" y="-10" type="curve" smooth="yes"/>
      <point x="460" y="-10"/>
      <point x="552" y="130"/>
      <point x="552" y="358" type="curve" smooth="yes"/>
      <point x="552" y="597"/>
      <point x="466" y="725"/>
      <point x="299" y="725" type="curve" smooth="yes"/>
      <point x="128" y="725"/>
      <point x="44" y="589"/>
      <point x="44" y="359" type="curve" smooth="yes"/>
      <point x="44" y="137"/>
      <point x="127" y="-10"/>
    </contour>
    <contour>
      <point x="298" y="0" type="curve" smooth="yes"/>
      <point x="186" y="0"/>
      <point x="136" y="111"/>
      <point x="136" y="358" type="curve" smooth="yes"/>
      <point x="136" y="611"/>
      <point x="183" y="715"/>
      <point x="299" y="715" type="curve" smooth="yes"/>
      <point x="419" y="715"/>
      <point x="460" y="611"/>
      <point x="460" y="358" type="curve" smooth="yes"/>
      <point x="460" y="107"/>
      <point x="411" y="0"/>
    </contour>
  </outline>
</glyph>
<glyph name="P" format="2">
  <advance width="432"/>
  <unicode hex="0050"/>
  <anchor x="216" y="0" name="bottom"/>
  <anchor x="225" y="714" name="top"/>
  <anchor x="413" y="714" name="topright"/>
  <outline>
    <contour>
      <point x="201" y="714" type="curve" smooth="yes"/>
      <point x="70" y="714" type="line"/>
      <point x="70" y="0" type="line"/>
      <point x="155" y="0" type="line"/>
      <point x="155" y="278" type="line"/>
      <point x="199" y="278" type="line" smooth="yes"/>
      <point x="335" y="278"/>
      <point x="402" y="357"/>
      <point x="402" y="503" type="curve" smooth="yes"/>
      <point x="402" y="646"/>
      <point x="338" y="714"/>
    </contour>
    <contour>
      <point x="198" y="640" type="line"/>
      <point x="279" y="640"/>
      <point x="316" y="600"/>
      <point x="316" y="502" type="curve" smooth="yes"/>
      <point x="316" y="395"/>
      <point x="279" y="352"/>
      <point x="191" y="352" type="curve" smooth="yes"/>
      <point x="155" y="352" type="line"/>
      <point x="155" y="640" type="line"/>
    </contour>
  </outline>
</glyph>
<glyph name="P.serif" format="2">
  <advance width="485"/>
  <unicode hex="0050"/>
  <anchor x="147" y="0" name="bottom"/>
  <anchor x="243" y="714" name="top"/>
  <anchor x="489" y="714" name="topright"/>
  <outline>
    <contour>
      <point x="28" y="0" type="line"/>
      <point x="280" y="0" type="line"/>
      <point x="280" y="10" type="line"/>
      <point x="239" y="10" type="line" smooth="yes"/>
      <point x="198" y="10"/>
      <point x="191" y="22"/>
      <point x="191" y="85" type="curve" smooth="yes"/>
      <point x="191" y="278" type="line"/>
      <point x="239" y="278" type="line" smooth="yes"/>
      <point x="404" y="278"/>
      <point x="461" y="387"/>
      <point x="461" y="506" type="curve" smooth="yes"/>
      <point x="461" y="645"/>
      <point x="397" y="714"/>
      <point x="252" y="714" type="curve" smooth="yes"/>
      <point x="28" y="714" type="line"/>
      <point x="28" y="704" type="line"/>
      <point x="54" y="704" type="line" smooth="yes"/>
      <point x="95" y="704"/>
      <point x="103" y="692"/>
      <point x="103" y="629" type="curve" smooth="yes"/>
      <point x="103" y="88" type="line" smooth="yes"/>
      <point x="103" y="23"/>
      <point x="95" y="10"/>
      <point x="52" y="10" type="curve" smooth="yes"/>
      <point x="28" y="10" type="line"/>
    </contour>
    <contour>
      <point x="237" y="288" type="curve" smooth="yes"/>
      <point x="191" y="288" type="line"/>
      <point x="191" y="704" type="line"/>
      <point x="246" y="704" type="line" smooth="yes"/>
      <point x="338" y="704"/>
      <point x="371" y="649"/>
      <point x="371" y="505" type="curve" smooth="yes"/>
      <point x="371" y="374"/>
      <point x="342" y="288"/>
    </contour>
  </outline>
</glyph>
<glyph name="Q" format="2">
  <advance width="536"/>
  <unicode hex="0051"/>
  <anchor x="268" y="-170" name="bottom"/>
  <anchor x="268" y="714" name="top"/>
  <anchor x="517" y="714" name="topright"/>
  <outline>
    <contour>
      <point x="489" y="358" type="curve" smooth="yes"/>
      <point x="489" y="600"/>
      <point x="411" y="724"/>
      <point x="269" y="724" type="curve" smooth="yes"/>
      <point x="122" y="724"/>
      <point x="48" y="603"/>
      <point x="48" y="359" type="curve" smooth="yes"/>
      <point x="48" y="161"/>
      <point x="106" y="-10"/>
      <point x="264" y="-10" type="curve"/>
      <point x="269" y="-10"/>
      <point x="278" y="-9"/>
      <point x="282" y="-8" type="curve"/>
      <point x="368" y="-170" type="line"/>
      <point x="468" y="-170" type="line"/>
      <point x="361" y="12" type="line"/>
      <point x="443" y="57"/>
      <point x="489" y="176"/>
    </contour>
    <contour>
      <point x="136" y="358" type="curve" smooth="yes"/>
      <point x="136" y="549"/>
      <point x="180" y="648"/>
      <point x="269" y="648" type="curve" smooth="yes"/>
      <point x="355" y="648"/>
      <point x="399" y="551"/>
      <point x="399" y="358" type="curve" smooth="yes"/>
      <point x="399" y="163"/>
      <point x="354" y="67"/>
      <point x="268" y="67" type="curve" smooth="yes"/>
      <point x="182" y="67"/>
      <point x="136" y="166"/>
    </contour>
  </outline>
</glyph>
<glyph name="Q.serif" format="2">
  <advance width="597"/>
  <unicode hex="0051"/>
  <anchor x="298" y="-227" name="bottom"/>
  <anchor x="298" y="714" name="top"/>
  <anchor x="577" y="714" name="topright"/>
  <outline>
    <contour>
      <point x="446" y="-227" type="curve" smooth="yes"/>
      <point x="487" y="-227" type="line"/>
      <point x="487" y="-217" type="line"/>
      <point x="474" y="-217" type="line" smooth="yes"/>
      <point x="418" y="-217"/>
      <point x="363" y="-189"/>
      <point x="353" y="-3" type="curve"/>
      <point x="480" y="23"/>
      <point x="552" y="155"/>
      <point x="552" y="358" type="curve" smooth="yes"/>
      <point x="552" y="597"/>
      <point x="466" y="725"/>
      <point x="299" y="725" type="curve" smooth="yes"/>
      <point x="128" y="725"/>
      <point x="44" y="589"/>
      <point x="44" y="359" type="curve" smooth="yes"/>
      <point x="44" y="152"/>
      <point x="115" y="10"/>
      <point x="261" y="-6" type="curve"/>
      <point x="272" y="-179"/>
      <point x="359" y="-227"/>
    </contour>
    <contour>
      <point x="298" y="0" type="curve" smooth="yes"/>
      <point x="186" y="0"/>
      <point x="136" y="111"/>
      <point x="136" y="358" type="curve" smooth="yes"/>
      <point x="136" y="611"/>
      <point x="183" y="715"/>
      <point x="299" y="715" type="curve" smooth="yes"/>
      <point x="419" y="715"/>
      <point x="460" y="611"/>
      <point x="460" y="358" type="curve" smooth="yes"/>
      <point x="460" y="107"/>
      <point x="411" y="0"/>
    </contour>
  </outline>
</glyph>
<glyph name="R" format="2">
  <advance width="450"/>
  <unicode hex="0052"/>
  <anchor x="235" y="0" name="bottom"/>
  <anchor x="227" y="714" name="top"/>
  <anchor x="430" y="714" name="topright"/>
  <outline>
    <contour>
      <point x="195" y="714" type="curve" smooth="yes"/>
      <point x="70" y="714" type="line"/>
      <point x="70" y="0" type="line"/>
      <point x="155" y="0" type="line"/>
      <point x="155" y="299" type="line"/>
      <point x="222" y="299" type="line"/>
      <point x="344" y="0" type="line"/>
      <point x="438" y="0" type="line"/>
      <point x="298" y="320" type="line"/>
      <point x="372" y="355"/>
      <point x="403" y="419"/>
      <point x="403" y="513" type="curve" smooth="yes"/>
      <point x="403" y="647"/>
      <point x="338" y="714"/>
    </contour>
    <contour>
      <point x="195" y="638" type="line"/>
      <point x="279" y="638"/>
      <point x="317" y="600"/>
      <point x="317" y="509" type="curve" smooth="yes"/>
      <point x="317" y="416"/>
      <point x="277" y="369"/>
      <point x="204" y="369" type="curve" smooth="yes"/>
      <point x="155" y="369" type="line"/>
      <point x="155" y="638" type="line"/>
    </contour>
  </outline>
</glyph>
<glyph name="R.serif" format="2">
  <advance width="531"/>
  <unicode hex="0052"/>
  <anchor x="295" y="0" name="bottom"/>
  <anchor x="266" y="714" name="top"/>
  <anchor x="511" y="714" name="topright"/>
  <outline>
    <contour>
      <point x="28" y="0" type="line"/>
      <point x="264" y="0" type="line"/>
      <point x="264" y="10" type="line"/>
      <point x="241" y="10" type="line" smooth="yes"/>
      <point x="199" y="10"/>
      <point x="192" y="22"/>
      <point x="192" y="85" type="curve" smooth="yes"/>
      <point x="192" y="326" type="line"/>
      <point x="252" y="326" type="line"/>
      <point x="364" y="94" type="line" smooth="yes"/>
      <point x="400" y="19"/>
      <point x="438" y="0"/>
      <point x="516" y="0" type="curve" smooth="yes"/>
      <point x="535" y="0" type="line"/>
      <point x="535" y="10" type="line"/>
      <point x="531" y="10" type="line" smooth="yes"/>
      <point x="511" y="10"/>
      <point x="498" y="20"/>
      <point x="449" y="114" type="curve" smooth="yes"/>
      <point x="336" y="333" type="line"/>
      <point x="417" y="357"/>
      <point x="462" y="417"/>
      <point x="462" y="526" type="curve" smooth="yes"/>
      <point x="462" y="646"/>
      <point x="407" y="714"/>
      <point x="252" y="714" type="curve" smooth="yes"/>
      <point x="28" y="714" type="line"/>
      <point x="28" y="704" type="line"/>
      <point x="52" y="704" type="line" smooth="yes"/>
      <point x="95" y="704"/>
      <point x="103" y="692"/>
      <point x="103" y="629" type="curve" smooth="yes"/>
      <point x="103" y="85" type="line" smooth="yes"/>
      <point x="103" y="22"/>
      <point x="95" y="10"/>
      <point x="52" y="10" type="curve" smooth="yes"/>
      <point x="28" y="10" type="line"/>
    </contour>
    <contour>
      <point x="243" y="336" type="curve" smooth="yes"/>
      <point x="192" y="336" type="line"/>
      <point x="192" y="704" type="line"/>
      <point x="245" y="704" type="line" smooth="yes"/>
      <point x="337" y="704"/>
      <point x="369" y="649"/>
      <point x="369" y="525" type="curve" smooth="yes"/>
      <point x="369" y="395"/>
      <point x="334" y="336"/>
    </contour>
  </outline>
</glyph>
<glyph name="S" format="2">
  <advance width="402"/>
  <unicode hex="0053"/>
  <anchor x="190" y="0" name="bottom"/>
  <anchor x="211" y="714" name="top"/>
  <anchor x="383" y="714" name="topright"/>
  <outline>
    <contour>
      <point x="366" y="196" type="curve" smooth="yes"/>
      <point x="366" y="288"/>
      <point x="323" y="347"/>
      <point x="233" y="396" type="curve" smooth="yes"/>
      <point x="153" y="440"/>
      <point x="127" y="467"/>
      <point x="127" y="540" type="curve" smooth="yes"/>
      <point x="127" y="601"/>
      <point x="162" y="645"/>
      <point x="222" y="645" type="curve" smooth="yes"/>
      <point x="257" y="645"/>
      <point x="295" y="634"/>
      <point x="334" y="612" type="curve"/>
      <point x="361" y="689" type="line"/>
      <point x="324" y="708"/>
      <point x="274" y="724"/>
      <point x="220" y="724" type="curve"/>
      <point x="115" y="724"/>
      <point x="42" y="647"/>
      <point x="42" y="536" type="curve"/>
      <point x="42" y="423"/>
      <point x="92" y="378"/>
      <point x="174" y="332" type="curve" smooth="yes"/>
      <point x="253" y="288"/>
      <point x="281" y="257"/>
      <point x="281" y="188" type="curve" smooth="yes"/>
      <point x="281" y="123"/>
      <point x="243" y="69"/>
      <point x="179" y="69" type="curve" smooth="yes"/>
      <point x="136" y="69"/>
      <point x="81" y="82"/>
      <point x="37" y="108" type="curve"/>
      <point x="37" y="21" type="line"/>
      <point x="78" y="0"/>
      <point x="126" y="-10"/>
      <point x="183" y="-10" type="curve" smooth="yes"/>
      <point x="293" y="-10"/>
      <point x="366" y="75"/>
    </contour>
  </outline>
</glyph>
<glyph name="S.serif" format="2">
  <advance width="435"/>
  <unicode hex="0053"/>
  <anchor x="209" y="-10" name="bottom"/>
  <anchor x="217" y="714" name="top"/>
  <anchor x="415" y="714" name="topright"/>
  <outline>
    <contour>
      <point x="207" y="-10" type="curve" smooth="yes"/>
      <point x="334" y="-10"/>
      <point x="401" y="66"/>
      <point x="401" y="189" type="curve" smooth="yes"/>
      <point x="401" y="305"/>
      <point x="341" y="347"/>
      <point x="253" y="399" type="curve" smooth="yes"/>
      <point x="166" y="450"/>
      <point x="117" y="479"/>
      <point x="117" y="577" type="curve" smooth="yes"/>
      <point x="117" y="668"/>
      <point x="160" y="714"/>
      <point x="220" y="714" type="curve" smooth="yes"/>
      <point x="285" y="714"/>
      <point x="317" y="660"/>
      <point x="317" y="550" type="curve"/>
      <point x="363" y="550"/>
      <point x="383" y="571"/>
      <point x="383" y="606" type="curve" smooth="yes"/>
      <point x="383" y="663"/>
      <point x="332" y="724"/>
      <point x="231" y="724" type="curve" smooth="yes"/>
      <point x="122" y="724"/>
      <point x="52" y="654"/>
      <point x="52" y="536" type="curve" smooth="yes"/>
      <point x="52" y="443"/>
      <point x="96" y="386"/>
      <point x="192" y="331" type="curve" smooth="yes"/>
      <point x="283" y="279"/>
      <point x="335" y="248"/>
      <point x="335" y="142" type="curve" smooth="yes"/>
      <point x="335" y="47"/>
      <point x="294" y="0"/>
      <point x="222" y="0" type="curve" smooth="yes"/>
      <point x="132" y="0"/>
      <point x="97" y="74"/>
      <point x="97" y="194" type="curve"/>
      <point x="61" y="194"/>
      <point x="36" y="169"/>
      <point x="36" y="125" type="curve" smooth="yes"/>
      <point x="36" y="67"/>
      <point x="79" y="-10"/>
    </contour>
  </outline>
</glyph>
<glyph name="T" format="2">
  <advance width="373"/>
  <unicode hex="0054"/>
  <anchor x="187" y="0" name="bottom"/>
  <anchor x="187" y="357" name="center"/>
  <anchor x="187" y="714" name="top"/>
  <anchor x="353" y="714" name="topright"/>
  <outline>
    <contour>
      <point x="228" y="0" type="line"/>
      <point x="228" y="638" type="line"/>
      <point x="362" y="638" type="line"/>
      <point x="362" y="714" type="line"/>
      <point x="10" y="714" type="line"/>
      <point x="10" y="638" type="line"/>
      <point x="144" y="638" type="line"/>
      <point x="144" y="0" type="line"/>
    </contour>
  </outline>
</glyph>
<glyph name="T.serif" format="2">
  <advance width="494"/>
  <unicode hex="0054"/>
  <anchor x="247" y="0" name="bottom"/>
  <anchor x="247" y="357" name="center"/>
  <anchor x="247" y="714" name="top"/>
  <anchor x="501" y="714" name="topright"/>
  <outline>
    <contour>
      <point x="116" y="0" type="line"/>
      <point x="375" y="0" type="line"/>
      <point x="375" y="10" type="line"/>
      <point x="344" y="10" type="line" smooth="yes"/>
      <point x="299" y="10"/>
      <point x="291" y="23"/>
      <point x="291" y="88" type="curve" smooth="yes"/>
      <point x="291" y="704" type="line"/>
      <point x="363" y="704" type="line" smooth="yes"/>
      <point x="442" y="704"/>
      <point x="462" y="681"/>
      <point x="466" y="604" type="curve" smooth="yes"/>
      <point x="469" y="544" type="line"/>
      <point x="479" y="544" type="line"/>
      <point x="473" y="714" type="line"/>
      <point x="20" y="714" type="line"/>
      <point x="14" y="544" type="line"/>
      <point x="24" y="544" type="line"/>
      <point x="27" y="604" type="line" smooth="yes"/>
      <point x="31" y="681"/>
      <point x="51" y="704"/>
      <point x="130" y="704" type="curve" smooth="yes"/>
      <point x="202" y="704" type="line"/>
      <point x="202" y="88" type="line" smooth="yes"/>
      <point x="202" y="23"/>
      <point x="193" y="10"/>
      <point x="148" y="10" type="curve" smooth="yes"/>
      <point x="116" y="10" type="line"/>
    </contour>
  </outline>
</glyph>
<glyph name="U" format="2">
  <advance width="510"/>
  <unicode hex="0055"/>
  <anchor x="257" y="0" name="bottom"/>
  <anchor x="255" y="714" name="top"/>
  <anchor x="490" y="714" name="topright"/>
  <outline>
    <contour>
      <point x="445" y="224" type="curve" smooth="yes"/>
      <point x="445" y="714" type="line"/>
      <point x="359" y="714" type="line"/>
      <point x="359" y="223" type="line" smooth="yes"/>
      <point x="359" y="111"/>
      <point x="325" y="67"/>
      <point x="256" y="67" type="curve" smooth="yes"/>
      <point x="188" y="67"/>
      <point x="150" y="112"/>
      <point x="150" y="222" type="curve" smooth="yes"/>
      <point x="150" y="714" type="line"/>
      <point x="65" y="714" type="line"/>
      <point x="65" y="223" type="line" smooth="yes"/>
      <point x="65" y="64"/>
      <point x="132" y="-10"/>
      <point x="256" y="-10" type="curve" smooth="yes"/>
      <point x="380" y="-10"/>
      <point x="445" y="62"/>
    </contour>
  </outline>
</glyph>
<glyph name="U.serif" format="2">
  <advance width="573"/>
  <unicode hex="0055"/>
  <anchor x="286" y="0" name="bottom"/>
  <anchor x="305" y="714" name="top"/>
  <anchor x="580" y="714" name="topright"/>
  <outline>
    <contour>
      <point x="290" y="-10" type="curve" smooth="yes"/>
      <point x="421" y="-10"/>
      <point x="473" y="65"/>
      <point x="473" y="206" type="curve" smooth="yes"/>
      <point x="473" y="627" type="line" smooth="yes"/>
      <point x="473" y="695"/>
      <point x="486" y="704"/>
      <point x="523" y="704" type="curve" smooth="yes"/>
      <point x="561" y="704" type="line"/>
      <point x="561" y="714" type="line"/>
      <point x="365" y="714" type="line"/>
      <point x="365" y="704" type="line"/>
      <point x="408" y="704" type="line" smooth="yes"/>
      <point x="450" y="704"/>
      <point x="463" y="695"/>
      <point x="463" y="629" type="curve" smooth="yes"/>
      <point x="463" y="206" type="line" smooth="yes"/>
      <point x="463" y="83"/>
      <point x="423" y="7"/>
      <point x="308" y="7" type="curve" smooth="yes"/>
      <point x="226" y="7"/>
      <point x="175" y="54"/>
      <point x="175" y="186" type="curve" smooth="yes"/>
      <point x="175" y="627" type="line" smooth="yes"/>
      <point x="175" y="695"/>
      <point x="189" y="704"/>
      <point x="230" y="704" type="curve" smooth="yes"/>
      <point x="253" y="704" type="line"/>
      <point x="253" y="714" type="line"/>
      <point x="12" y="714" type="line"/>
      <point x="12" y="704" type="line"/>
      <point x="32" y="704" type="line" smooth="yes"/>
      <point x="73" y="704"/>
      <point x="87" y="695"/>
      <point x="87" y="630" type="curve" smooth="yes"/>
      <point x="87" y="216" type="line" smooth="yes"/>
      <point x="87" y="53"/>
      <point x="169" y="-10"/>
    </contour>
  </outline>
</glyph>
<glyph name="V" format="2">
  <advance width="432"/>
  <unicode hex="0056"/>
  <anchor x="214" y="0" name="bottom"/>
  <anchor x="218" y="714" name="top"/>
  <anchor x="413" y="714" name="topright"/>
  <outline>
    <contour>
      <point x="432" y="714" type="line"/>
      <point x="343" y="714" type="line"/>
      <point x="239" y="233" type="line" smooth="yes"/>
      <point x="229" y="188"/>
      <point x="220" y="138"/>
      <point x="215" y="95" type="curve"/>
      <point x="210" y="138"/>
      <point x="201" y="189"/>
      <point x="192" y="231" type="curve" smooth="yes"/>
      <point x="89" y="714" type="line"/>
      <point x="0" y="714" type="line"/>
      <point x="166" y="0" type="line"/>
      <point x="264" y="0" type="line"/>
    </contour>
  </outline>
</glyph>
<glyph name="V.serif" format="2">
  <advance width="538"/>
  <unicode hex="0056"/>
  <anchor x="269" y="0" name="bottom"/>
  <anchor x="289" y="714" name="top"/>
  <anchor x="558" y="714" name="topright"/>
  <outline>
    <contour>
      <point x="63" y="656" type="curve" smooth="yes"/>
      <point x="240" y="0" type="line"/>
      <point x="297" y="0" type="line"/>
      <point x="457" y="656" type="line" smooth="yes"/>
      <point x="467" y="697"/>
      <point x="478" y="704"/>
      <point x="517" y="704" type="curve" smooth="yes"/>
      <point x="538" y="704" type="line"/>
      <point x="538" y="714" type="line"/>
      <point x="363" y="714" type="line"/>
      <point x="363" y="704" type="line"/>
      <point x="391" y="704" type="line" smooth="yes"/>
      <point x="439" y="704"/>
      <point x="445" y="696"/>
      <point x="445" y="673" type="curve" smooth="yes"/>
      <point x="445" y="650"/>
      <point x="439" y="624"/>
      <point x="427" y="575" type="curve" smooth="yes"/>
      <point x="348" y="249" type="line" smooth="yes"/>
      <point x="326" y="159"/>
      <point x="315" y="122"/>
      <point x="301" y="60" type="curve"/>
      <point x="290" y="111"/>
      <point x="273" y="185"/>
      <point x="256" y="252" type="curve" smooth="yes"/>
      <point x="167" y="598" type="line" smooth="yes"/>
      <point x="158" y="632"/>
      <point x="152" y="657"/>
      <point x="152" y="678" type="curve" smooth="yes"/>
      <point x="152" y="697"/>
      <point x="157" y="704"/>
      <point x="197" y="704" type="curve" smooth="yes"/>
      <point x="226" y="704" type="line"/>
      <point x="226" y="714" type="line"/>
      <point x="0" y="714" type="line"/>
      <point x="0" y="704" type="line"/>
      <point x="8" y="704" type="line" smooth="yes"/>
      <point x="42" y="704"/>
      <point x="52" y="697"/>
    </contour>
  </outline>
</glyph>
<glyph name="W" format="2">
  <advance width="701"/>
  <unicode hex="0057"/>
  <anchor x="351" y="0" name="bottom"/>
  <anchor x="351" y="714" name="top"/>
  <anchor x="682" y="714" name="topright"/>
  <outline>
    <contour>
      <point x="698" y="714" type="line"/>
      <point x="612" y="714" type="line"/>
      <point x="528" y="276" type="line" smooth="yes"/>
      <point x="518" y="225"/>
      <point x="509" y="162"/>
      <point x="501" y="97" type="curve"/>
      <point x="494" y="166"/>
      <point x="484" y="223"/>
      <point x="474" y="275" type="curve" smooth="yes"/>
      <point x="391" y="714" type="line"/>
      <point x="312" y="714" type="line"/>
      <point x="227" y="274" type="line" smooth="yes"/>
      <point x="217" y="220"/>
      <point x="206" y="155"/>
      <point x="199" y="97" type="curve"/>
      <point x="195" y="140"/>
      <point x="184" y="205"/>
      <point x="171" y="276" type="curve" smooth="yes"/>
      <point x="89" y="714" type="line"/>
      <point x="4" y="714" type="line"/>
      <point x="147" y="0" type="line"/>
      <point x="245" y="0" type="line"/>
      <point x="331" y="456" type="line" smooth="yes"/>
      <point x="340" y="501"/>
      <point x="345" y="552"/>
      <point x="351" y="595" type="curve"/>
      <point x="359" y="527"/>
      <point x="365" y="481"/>
      <point x="370" y="455" type="curve" smooth="yes"/>
      <point x="456" y="0" type="line"/>
      <point x="557" y="0" type="line"/>
    </contour>
  </outline>
</glyph>
<glyph name="W.serif" format="2">
  <advance width="832"/>
  <unicode hex="0057"/>
  <anchor x="416" y="0" name="bottom"/>
  <anchor x="442" y="714" name="top"/>
  <anchor x="852" y="714" name="topright"/>
  <outline>
    <contour>
      <point x="78" y="654" type="curve" smooth="yes"/>
      <point x="217" y="0" type="line"/>
      <point x="277" y="0" type="line"/>
      <point x="410" y="594" type="line"/>
      <point x="556" y="0" type="line"/>
      <point x="602" y="0" type="line"/>
      <point x="742" y="642" type="line" smooth="yes"/>
      <point x="754" y="697"/>
      <point x="767" y="704"/>
      <point x="806" y="704" type="curve" smooth="yes"/>
      <point x="827" y="704" type="line"/>
      <point x="827" y="714" type="line"/>
      <point x="643" y="714" type="line"/>
      <point x="643" y="704" type="line"/>
      <point x="680" y="704" type="line" smooth="yes"/>
      <point x="723" y="704"/>
      <point x="732" y="694"/>
      <point x="732" y="668" type="curve" smooth="yes"/>
      <point x="732" y="656"/>
      <point x="730" y="637"/>
      <point x="723" y="603" type="curve" smooth="yes"/>
      <point x="651" y="274" type="line" smooth="yes"/>
      <point x="634" y="198"/>
      <point x="626" y="160"/>
      <point x="614" y="105" type="curve"/>
      <point x="603" y="157"/>
      <point x="591" y="209"/>
      <point x="575" y="272" type="curve" smooth="yes"/>
      <point x="463" y="711" type="line"/>
      <point x="425" y="711" type="line"/>
      <point x="320" y="243" type="line" smooth="yes"/>
      <point x="307" y="185"/>
      <point x="295" y="133"/>
      <point x="282" y="74" type="curve"/>
      <point x="273" y="130"/>
      <point x="258" y="213"/>
      <point x="249" y="258" type="curve" smooth="yes"/>
      <point x="180" y="599" type="line" smooth="yes"/>
      <point x="178" y="610"/>
      <point x="170" y="655"/>
      <point x="170" y="672" type="curve" smooth="yes"/>
      <point x="170" y="693"/>
      <point x="182" y="704"/>
      <point x="222" y="704" type="curve" smooth="yes"/>
      <point x="245" y="704" type="line"/>
      <point x="245" y="714" type="line"/>
      <point x="6" y="714" type="line"/>
      <point x="6" y="704" type="line"/>
      <point x="22" y="704" type="line" smooth="yes"/>
      <point x="55" y="704"/>
      <point x="69" y="697"/>
    </contour>
  </outline>
</glyph>
<glyph name="X" format="2">
  <advance width="392"/>
  <unicode hex="0058"/>
  <anchor x="196" y="0" name="bottom"/>
  <anchor x="201" y="714" name="top"/>
  <anchor x="372" y="714" name="topright"/>
  <outline>
    <contour>
      <point x="386" y="0" type="line"/>
      <point x="248" y="367" type="line"/>
      <point x="379" y="714" type="line"/>
      <point x="290" y="714" type="line"/>
      <point x="200" y="447" type="line"/>
      <point x="111" y="714" type="line"/>
      <point x="23" y="714" type="line"/>
      <point x="153" y="373" type="line"/>
      <point x="6" y="0" type="line"/>
      <point x="94" y="0" type="line"/>
      <point x="199" y="292" type="line"/>
      <point x="296" y="0" type="line"/>
    </contour>
  </outline>
</glyph>
<glyph name="X.serif" format="2">
  <advance width="537"/>
  <unicode hex="0058"/>
  <anchor x="269" y="0" name="bottom"/>
  <anchor x="269" y="714" name="top"/>
  <anchor x="537" y="714" name="topright"/>
  <outline>
    <contour>
      <point x="6" y="0" type="line"/>
      <point x="189" y="0" type="line"/>
      <point x="189" y="10" type="line"/>
      <point x="141" y="10" type="line" smooth="yes"/>
      <point x="110" y="10"/>
      <point x="101" y="17"/>
      <point x="101" y="29" type="curve" smooth="yes"/>
      <point x="101" y="49"/>
      <point x="126" y="97"/>
      <point x="136" y="117" type="curve" smooth="yes"/>
      <point x="241" y="332" type="line"/>
      <point x="347" y="111" type="line" smooth="yes"/>
      <point x="368" y="67"/>
      <point x="376" y="45"/>
      <point x="376" y="32" type="curve" smooth="yes"/>
      <point x="376" y="17"/>
      <point x="367" y="10"/>
      <point x="332" y="10" type="curve" smooth="yes"/>
      <point x="305" y="10" type="line"/>
      <point x="305" y="0" type="line"/>
      <point x="529" y="0" type="line"/>
      <point x="529" y="10" type="line"/>
      <point x="524" y="10" type="line" smooth="yes"/>
      <point x="497" y="10"/>
      <point x="487" y="17"/>
      <point x="467" y="60" type="curve" smooth="yes"/>
      <point x="305" y="398" type="line"/>
      <point x="432" y="658" type="line" smooth="yes"/>
      <point x="451" y="698"/>
      <point x="463" y="704"/>
      <point x="496" y="704" type="curve" smooth="yes"/>
      <point x="515" y="704" type="line"/>
      <point x="515" y="714" type="line"/>
      <point x="344" y="714" type="line"/>
      <point x="344" y="704" type="line"/>
      <point x="389" y="704" type="line" smooth="yes"/>
      <point x="417" y="704"/>
      <point x="424" y="697"/>
      <point x="424" y="683" type="curve" smooth="yes"/>
      <point x="424" y="668"/>
      <point x="415" y="647"/>
      <point x="400" y="617" type="curve" smooth="yes"/>
      <point x="299" y="410" type="line"/>
      <point x="200" y="617" type="line" smooth="yes"/>
      <point x="186" y="647"/>
      <point x="176" y="670"/>
      <point x="176" y="684" type="curve" smooth="yes"/>
      <point x="176" y="698"/>
      <point x="186" y="704"/>
      <point x="218" y="704" type="curve" smooth="yes"/>
      <point x="245" y="704" type="line"/>
      <point x="245" y="714" type="line"/>
      <point x="19" y="714" type="line"/>
      <point x="19" y="704" type="line"/>
      <point x="26" y="704" type="line" smooth="yes"/>
      <point x="56" y="704"/>
      <point x="66" y="697"/>
      <point x="87" y="654" type="curve" smooth="yes"/>
      <point x="236" y="344" type="line"/>
      <point x="95" y="57" type="line" smooth="yes"/>
      <point x="75" y="16"/>
      <point x="63" y="10"/>
      <point x="22" y="10" type="curve" smooth="yes"/>
      <point x="6" y="10" type="line"/>
    </contour>
  </outline>
</glyph>
<glyph name="Y" format="2">
  <advance width="385"/>
  <unicode hex="0059"/>
  <anchor x="193" y="0" name="bottom"/>
  <anchor x="193" y="714" name="top"/>
  <anchor x="366" y="714" name="topright"/>
  <outline>
    <contour>
      <point x="193" y="378" type="line"/>
      <point x="89" y="714" type="line"/>
      <point x="0" y="714" type="line"/>
      <point x="150" y="276" type="line"/>
      <point x="150" y="0" type="line"/>
      <point x="235" y="0" type="line"/>
      <point x="235" y="278" type="line"/>
      <point x="385" y="714" type="line"/>
      <point x="297" y="714" type="line"/>
    </contour>
  </outline>
</glyph>
<glyph name="Y.serif" format="2">
  <advance width="508"/>
  <unicode hex="0059"/>
  <anchor x="254" y="0" name="bottom"/>
  <anchor x="284" y="714" name="top"/>
  <anchor x="488" y="714" name="topright"/>
  <outline>
    <contour>
      <point x="126" y="0" type="line"/>
      <point x="384" y="0" type="line"/>
      <point x="384" y="10" type="line"/>
      <point x="352" y="10" type="line" smooth="yes"/>
      <point x="308" y="10"/>
      <point x="300" y="23"/>
      <point x="300" y="89" type="curve" smooth="yes"/>
      <point x="300" y="327" type="line"/>
      <point x="445" y="661" type="line" smooth="yes"/>
      <point x="461" y="698"/>
      <point x="470" y="704"/>
      <point x="502" y="704" type="curve" smooth="yes"/>
      <point x="510" y="704" type="line"/>
      <point x="510" y="714" type="line"/>
      <point x="344" y="714" type="line"/>
      <point x="344" y="704" type="line"/>
      <point x="397" y="704" type="line" smooth="yes"/>
      <point x="429" y="704"/>
      <point x="436" y="698"/>
      <point x="436" y="682" type="curve" smooth="yes"/>
      <point x="436" y="671"/>
      <point x="433" y="661"/>
      <point x="420" y="630" type="curve" smooth="yes"/>
      <point x="331" y="421" type="line" smooth="yes"/>
      <point x="318" y="390"/>
      <point x="302" y="353"/>
      <point x="294" y="335" type="curve"/>
      <point x="277" y="376"/>
      <point x="263" y="406"/>
      <point x="247" y="442" type="curve" smooth="yes"/>
      <point x="166" y="631" type="line" smooth="yes"/>
      <point x="155" y="656"/>
      <point x="150" y="669"/>
      <point x="150" y="681" type="curve" smooth="yes"/>
      <point x="150" y="697"/>
      <point x="159" y="704"/>
      <point x="201" y="704" type="curve" smooth="yes"/>
      <point x="221" y="704" type="line"/>
      <point x="221" y="714" type="line"/>
      <point x="-3" y="714" type="line"/>
      <point x="-3" y="704" type="line"/>
      <point x="3" y="704" type="line" smooth="yes"/>
      <point x="30" y="704"/>
      <point x="42" y="697"/>
      <point x="60" y="657" type="curve" smooth="yes"/>
      <point x="211" y="326" type="line"/>
      <point x="211" y="89" type="line" smooth="yes"/>
      <point x="211" y="23"/>
      <point x="201" y="10"/>
      <point x="154" y="10" type="curve" smooth="yes"/>
      <point x="126" y="10" type="line"/>
    </contour>
  </outline>
</glyph>
<glyph name="Z" format="2">
  <advance width="354"/>
  <unicode hex="005A"/>
  <anchor x="183" y="0" name="bottom"/>
  <anchor x="178" y="714" name="top"/>
  <anchor x="335" y="714" name="topright"/>
  <outline>
    <contour>
      <point x="335" y="0" type="line"/>
      <point x="335" y="76" type="line"/>
      <point x="115" y="76" type="line"/>
      <point x="329" y="648" type="line"/>
      <point x="329" y="714" type="line"/>
      <point x="29" y="714" type="line"/>
      <point x="29" y="638" type="line"/>
      <point x="237" y="638" type="line"/>
      <point x="25" y="65" type="line"/>
      <point x="25" y="0" type="line"/>
    </contour>
  </outline>
</glyph>
<glyph name="Z.serif" format="2">
  <advance width="482"/>
  <unicode hex="005A"/>
  <anchor x="238" y="0" name="bottom"/>
  <anchor x="238" y="714" name="top"/>
  <anchor x="459" y="714" name="topright"/>
  <outline>
    <contour>
      <point x="28" y="0" type="line"/>
      <point x="448" y="0" type="line"/>
      <point x="448" y="168" type="line"/>
      <point x="438" y="168" type="line"/>
      <point x="436" y="112" type="line" smooth="yes"/>
      <point x="433" y="39"/>
      <point x="407" y="13"/>
      <point x="333" y="13" type="curve" smooth="yes"/>
      <point x="121" y="13" type="line"/>
      <point x="435" y="698" type="line"/>
      <point x="435" y="714" type="line"/>
      <point x="50" y="714" type="line"/>
      <point x="44" y="547" type="line"/>
      <point x="55" y="547" type="line"/>
      <point x="57" y="601" type="line" smooth="yes"/>
      <point x="60" y="674"/>
      <point x="79" y="701"/>
      <point x="161" y="701" type="curve" smooth="yes"/>
      <point x="341" y="701" type="line"/>
      <point x="28" y="17" type="line"/>
    </contour>
  </outline>
</glyph>
<glyph name="bracketleft" format="2">
  <advance width="303"/>
  <unicode hex="005B"/>
  <outline>
    <contour>
      <point x="273" y="-161" type="line"/>
      <point x="273" y="-93" type="line"/>
      <point x="146" y="-93" type="line"/>
      <point x="146" y="652" type="line"/>
      <point x="273" y="652" type="line"/>
      <point x="273" y="720" type="line"/>
      <point x="69" y="720" type="line"/>
      <point x="69" y="-161" type="line"/>
    </contour>
  </outline>
</glyph>
<glyph name="bracketleft.serif" format="2">
  <advance width="296"/>
  <unicode hex="005B"/>
  <outline>
    <contour>
      <point x="78" y="-128" type="line"/>
      <point x="266" y="-128" type="line"/>
      <point x="266" y="-118" type="line"/>
      <point x="226" y="-118" type="line" smooth="yes"/>
      <point x="175" y="-118"/>
      <point x="164" y="-104"/>
      <point x="164" y="-37" type="curve" smooth="yes"/>
      <point x="164" y="669" type="line" smooth="yes"/>
      <point x="164" y="736"/>
      <point x="175" y="750"/>
      <point x="226" y="750" type="curve" smooth="yes"/>
      <point x="266" y="750" type="line"/>
      <point x="266" y="760" type="line"/>
      <point x="78" y="760" type="line"/>
    </contour>
  </outline>
</glyph>
<glyph name="backslash" format="2">
  <advance width="362"/>
  <unicode hex="005C"/>
  <outline>
    <contour>
      <point x="93" y="717" type="line"/>
      <point x="17" y="717" type="line"/>
      <point x="272" y="-3" type="line"/>
      <point x="349" y="-3" type="line"/>
    </contour>
  </outline>
</glyph>
<glyph name="bracketright" format="2">
  <advance width="303"/>
  <unicode hex="005D"/>
  <outline>
    <contour>
      <point x="30" y="-93" type="line"/>
      <point x="30" y="-161" type="line"/>
      <point x="234" y="-161" type="line"/>
      <point x="234" y="720" type="line"/>
      <point x="30" y="720" type="line"/>
      <point x="30" y="652" type="line"/>
      <point x="157" y="652" type="line"/>
      <point x="157" y="-93" type="line"/>
    </contour>
  </outline>
</glyph>
<glyph name="bracketright.serif" format="2">
  <advance width="296"/>
  <unicode hex="005D"/>
  <outline>
    <contour>
      <point x="29" y="-128" type="line"/>
      <point x="217" y="-128" type="line"/>
      <point x="217" y="760" type="line"/>
      <point x="29" y="760" type="line"/>
      <point x="29" y="750" type="line"/>
      <point x="69" y="750" type="line" smooth="yes"/>
      <point x="120" y="750"/>
      <point x="131" y="736"/>
      <point x="131" y="669" type="curve" smooth="yes"/>
      <point x="131" y="-37" type="line" smooth="yes"/>
      <point x="131" y="-104"/>
      <point x="120" y="-118"/>
      <point x="69" y="-118" type="curve" smooth="yes"/>
      <point x="29" y="-118" type="line"/>
    </contour>
  </outline>
</glyph>
<glyph name="asciicircum" format="2">
  <advance width="432"/>
  <unicode hex="005E"/>
  <outline>
    <contour>
      <point x="14" y="332" type="line"/>
      <point x="92" y="332" type="line"/>
      <point x="216" y="609" type="line"/>
      <point x="340" y="332" type="line"/>
      <point x="419" y="332" type="line"/>
      <point x="240" y="713" type="line"/>
      <point x="192" y="713" type="line"/>
    </contour>
  </outline>
</glyph>
<glyph name="asciicircum.serif" format="2">
  <advance width="424"/>
  <unicode hex="005E"/>
  <outline>
    <contour>
      <point x="40" y="271" type="line"/>
      <point x="61" y="271" type="line"/>
      <point x="211" y="691" type="line"/>
      <point x="363" y="271" type="line"/>
      <point x="384" y="271" type="line"/>
      <point x="223" y="714" type="line"/>
      <point x="199" y="714" type="line"/>
    </contour>
  </outline>
</glyph>
<glyph name="underscore" format="2">
  <advance width="426"/>
  <unicode hex="005F"/>
  <outline>
    <contour>
      <point x="428" y="-146" type="line"/>
      <point x="428" y="-83" type="line"/>
      <point x="-2" y="-83" type="line"/>
      <point x="-2" y="-146" type="line"/>
    </contour>
  </outline>
</glyph>
<glyph name="grave" format="2">
  <advance width="263"/>
  <unicode hex="0060"/>
  <outline>
    <contour>
      <point x="137" y="766" type="curve"/>
      <point x="40" y="766" type="line"/>
      <point x="40" y="757" type="line"/>
      <point x="65" y="714"/>
      <point x="132" y="640"/>
      <point x="170" y="606" type="curve"/>
      <point x="223" y="606" type="line"/>
      <point x="223" y="617" type="line"/>
      <point x="196" y="654"/>
      <point x="157" y="720"/>
    </contour>
  </outline>
</glyph>
<glyph name="grave.serif" format="2">
  <advance width="230"/>
  <unicode hex="0060"/>
  <outline>
    <contour>
      <point x="183" y="606" type="curve"/>
      <point x="190" y="606" type="line"/>
      <point x="190" y="616" type="line"/>
      <point x="162" y="667"/>
      <point x="139" y="721"/>
      <point x="120" y="766" type="curve"/>
      <point x="40" y="766" type="line"/>
      <point x="40" y="756" type="line"/>
      <point x="66" y="721"/>
      <point x="138" y="649"/>
    </contour>
  </outline>
</glyph>
<glyph name="a" format="2">
  <advance width="407"/>
  <unicode hex="0061"/>
  <anchor x="193" y="0" name="bottom"/>
  <anchor x="209" y="537" name="top"/>
  <anchor x="370" y="537" name="topright"/>
  <outline>
    <contour>
      <point x="209" y="547" type="curve" smooth="yes"/>
      <point x="158" y="547"/>
      <point x="112" y="534"/>
      <point x="71" y="508" type="curve"/>
      <point x="97" y="447" type="line"/>
      <point x="134" y="469"/>
      <point x="166" y="480"/>
      <point x="195" y="480" type="curve" smooth="yes"/>
      <point x="244" y="480"/>
      <point x="265" y="442"/>
      <point x="265" y="360" type="curve" smooth="yes"/>
      <point x="265" y="325" type="line"/>
      <point x="205" y="322" type="line" smooth="yes"/>
      <point x="95" y="317"/>
      <point x="33" y="256"/>
      <point x="33" y="150" type="curve" smooth="yes"/>
      <point x="33" y="65"/>
      <point x="69" y="-10"/>
      <point x="150" y="-10" type="curve" smooth="yes"/>
      <point x="205" y="-10"/>
      <point x="242" y="18"/>
      <point x="270" y="74" type="curve"/>
      <point x="272" y="74" type="line"/>
      <point x="284" y="0" type="line"/>
      <point x="346" y="0" type="line"/>
      <point x="346" y="362" type="line" smooth="yes"/>
      <point x="346" y="480"/>
      <point x="307" y="547"/>
    </contour>
    <contour>
      <point x="219" y="263" type="curve" smooth="yes"/>
      <point x="265" y="266" type="line"/>
      <point x="265" y="212" type="line" smooth="yes"/>
      <point x="265" y="114"/>
      <point x="232" y="56"/>
      <point x="178" y="56" type="curve" smooth="yes"/>
      <point x="139" y="56"/>
      <point x="116" y="86"/>
      <point x="116" y="152" type="curve" smooth="yes"/>
      <point x="116" y="222"/>
      <point x="150" y="259"/>
    </contour>
  </outline>
</glyph>
<glyph name="a.serif" format="2">
  <advance width="453"/>
  <unicode hex="0061"/>
  <anchor x="336" y="0" name="bottom"/>
  <anchor x="227" y="536" name="top"/>
  <anchor x="433" y="536" name="topright"/>
  <outline>
    <contour>
      <point x="160" y="-10" type="curve" smooth="yes"/>
      <point x="220" y="-10"/>
      <point x="263" y="27"/>
      <point x="283" y="96" type="curve"/>
      <point x="285" y="96" type="line"/>
      <point x="285" y="0" type="line"/>
      <point x="421" y="0" type="line"/>
      <point x="421" y="10" type="line"/>
      <point x="419" y="10" type="line" smooth="yes"/>
      <point x="381" y="10"/>
      <point x="370" y="22"/>
      <point x="370" y="87" type="curve" smooth="yes"/>
      <point x="370" y="372" type="line" smooth="yes"/>
      <point x="370" y="498"/>
      <point x="319" y="545"/>
      <point x="222" y="545" type="curve" smooth="yes"/>
      <point x="133" y="545"/>
      <point x="71" y="506"/>
      <point x="71" y="444" type="curve" smooth="yes"/>
      <point x="71" y="405"/>
      <point x="96" y="388"/>
      <point x="143" y="388" type="curve"/>
      <point x="143" y="499"/>
      <point x="163" y="535"/>
      <point x="214" y="535" type="curve" smooth="yes"/>
      <point x="264" y="535"/>
      <point x="283" y="501"/>
      <point x="283" y="396" type="curve" smooth="yes"/>
      <point x="283" y="300" type="line"/>
      <point x="218" y="297" type="line" smooth="yes"/>
      <point x="97" y="291"/>
      <point x="39" y="246"/>
      <point x="39" y="141" type="curve" smooth="yes"/>
      <point x="39" y="43"/>
      <point x="89" y="-10"/>
    </contour>
    <contour>
      <point x="189" y="13" type="curve" smooth="yes"/>
      <point x="147" y="13"/>
      <point x="126" y="53"/>
      <point x="126" y="141" type="curve" smooth="yes"/>
      <point x="126" y="237"/>
      <point x="151" y="282"/>
      <point x="237" y="287" type="curve" smooth="yes"/>
      <point x="283" y="290" type="line"/>
      <point x="283" y="178" type="line" smooth="yes"/>
      <point x="283" y="85"/>
      <point x="245" y="13"/>
    </contour>
  </outline>
</glyph>
<glyph name="b" format="2">
  <advance width="450"/>
  <unicode hex="0062"/>
  <anchor x="241" y="0" name="bottom"/>
  <anchor x="238" y="760" name="top"/>
  <anchor x="401" y="760" name="topright"/>
  <outline>
    <contour>
      <point x="144" y="543" type="curve" smooth="yes"/>
      <point x="144" y="760" type="line"/>
      <point x="63" y="760" type="line"/>
      <point x="63" y="0" type="line"/>
      <point x="129" y="0" type="line"/>
      <point x="140" y="68" type="line"/>
      <point x="145" y="68" type="line"/>
      <point x="175" y="14"/>
      <point x="212" y="-10"/>
      <point x="262" y="-10" type="curve" smooth="yes"/>
      <point x="358" y="-10"/>
      <point x="411" y="90"/>
      <point x="411" y="269" type="curve" smooth="yes"/>
      <point x="411" y="450"/>
      <point x="358" y="546"/>
      <point x="259" y="546" type="curve" smooth="yes"/>
      <point x="211" y="546"/>
      <point x="174" y="520"/>
      <point x="145" y="466" type="curve"/>
      <point x="141" y="466" type="line"/>
      <point x="143" y="496"/>
      <point x="144" y="522"/>
    </contour>
    <contour>
      <point x="240" y="475" type="curve" smooth="yes"/>
      <point x="301" y="475"/>
      <point x="328" y="406"/>
      <point x="328" y="270" type="curve" smooth="yes"/>
      <point x="328" y="126"/>
      <point x="299" y="60"/>
      <point x="241" y="60" type="curve" smooth="yes"/>
      <point x="176" y="60"/>
      <point x="144" y="124"/>
      <point x="144" y="257" type="curve" smooth="yes"/>
      <point x="144" y="276" type="line" smooth="yes"/>
      <point x="144" y="390"/>
      <point x="163" y="475"/>
    </contour>
  </outline>
</glyph>
<glyph name="c" format="2">
  <advance width="339"/>
  <unicode hex="0063"/>
  <anchor x="212" y="0" name="bottom"/>
  <anchor x="203" y="537" name="top"/>
  <anchor x="311" y="537" name="topright"/>
  <outline>
    <contour>
      <point x="215" y="-10" type="curve" smooth="yes"/>
      <point x="245" y="-10"/>
      <point x="285" y="0"/>
      <point x="313" y="18" type="curve"/>
      <point x="313" y="86" type="line"/>
      <point x="282" y="70"/>
      <point x="253" y="61"/>
      <point x="224" y="61" type="curve" smooth="yes"/>
      <point x="158" y="61"/>
      <point x="124" y="129"/>
      <point x="124" y="266" type="curve" smooth="yes"/>
      <point x="124" y="404"/>
      <point x="158" y="475"/>
      <point x="223" y="475" type="curve" smooth="yes"/>
      <point x="246" y="475"/>
      <point x="269" y="468"/>
      <point x="294" y="455" type="curve"/>
      <point x="319" y="522" type="line"/>
      <point x="291" y="538"/>
      <point x="259" y="547"/>
      <point x="217" y="547" type="curve" smooth="yes"/>
      <point x="98" y="547"/>
      <point x="41" y="441"/>
      <point x="41" y="265" type="curve" smooth="yes"/>
      <point x="41" y="82"/>
      <point x="99" y="-10"/>
    </contour>
  </outline>
</glyph>
<glyph name="c.serif" format="2">
  <advance width="396"/>
  <unicode hex="0063"/>
  <anchor x="217" y="0" name="bottom"/>
  <anchor x="217" y="536" name="top"/>
  <anchor x="376" y="536" name="topright"/>
  <outline>
    <contour>
      <point x="223" y="-10" type="curve" smooth="yes"/>
      <point x="330" y="-10"/>
      <point x="367" y="50"/>
      <point x="367" y="92" type="curve" smooth="yes"/>
      <point x="367" y="110"/>
      <point x="360" y="124"/>
      <point x="342" y="129" type="curve"/>
      <point x="332" y="44"/>
      <point x="298" y="1"/>
      <point x="240" y="1" type="curve" smooth="yes"/>
      <point x="165" y="1"/>
      <point x="129" y="69"/>
      <point x="129" y="269" type="curve" smooth="yes"/>
      <point x="129" y="480"/>
      <point x="162" y="535"/>
      <point x="224" y="535" type="curve" smooth="yes"/>
      <point x="275" y="535"/>
      <point x="291" y="498"/>
      <point x="291" y="383" type="curve"/>
      <point x="348" y="383"/>
      <point x="366" y="408"/>
      <point x="366" y="442" type="curve" smooth="yes"/>
      <point x="366" y="496"/>
      <point x="323" y="545"/>
      <point x="225" y="545" type="curve" smooth="yes"/>
      <point x="116" y="545"/>
      <point x="42" y="481"/>
      <point x="42" y="268" type="curve" smooth="yes"/>
      <point x="42" y="57"/>
      <point x="116" y="-10"/>
    </contour>
  </outline>
</glyph>
<glyph name="d" format="2">
  <advance width="450"/>
  <unicode hex="0064"/>
  <anchor x="222" y="0" name="bottom"/>
  <anchor x="225" y="268" name="center"/>
  <anchor x="187" y="760" name="top"/>
  <anchor x="412" y="760" name="topright"/>
  <outline>
    <contour>
      <point x="193" y="-10" type="curve" smooth="yes"/>
      <point x="243" y="-10"/>
      <point x="279" y="17"/>
      <point x="307" y="68" type="curve"/>
      <point x="312" y="68" type="line"/>
      <point x="323" y="0" type="line"/>
      <point x="388" y="0" type="line"/>
      <point x="388" y="760" type="line"/>
      <point x="307" y="760" type="line"/>
      <point x="307" y="542" type="line" smooth="yes"/>
      <point x="307" y="521"/>
      <point x="308" y="498"/>
      <point x="310" y="468" type="curve"/>
      <point x="306" y="468" type="line"/>
      <point x="280" y="519"/>
      <point x="237" y="547"/>
      <point x="190" y="547" type="curve" smooth="yes"/>
      <point x="94" y="547"/>
      <point x="40" y="447"/>
      <point x="40" y="268" type="curve" smooth="yes"/>
      <point x="40" y="87"/>
      <point x="93" y="-10"/>
    </contour>
    <contour>
      <point x="212" y="59" type="curve" smooth="yes"/>
      <point x="151" y="59"/>
      <point x="123" y="130"/>
      <point x="123" y="268" type="curve" smooth="yes"/>
      <point x="123" y="402"/>
      <point x="150" y="475"/>
      <point x="210" y="475" type="curve" smooth="yes"/>
      <point x="277" y="475"/>
      <point x="307" y="412"/>
      <point x="307" y="274" type="curve" smooth="yes"/>
      <point x="307" y="244" type="line" smooth="yes"/>
      <point x="307" y="120"/>
      <point x="274" y="59"/>
    </contour>
  </outline>
</glyph>
<glyph name="d.serif" format="2">
  <advance width="493"/>
  <unicode hex="0064"/>
  <anchor x="247" y="0" name="bottom"/>
  <anchor x="247" y="268" name="center"/>
  <anchor x="247" y="760" name="top"/>
  <anchor x="467" y="760" name="topright"/>
  <outline>
    <contour>
      <point x="200" y="-10" type="curve" smooth="yes"/>
      <point x="270" y="-10"/>
      <point x="304" y="29"/>
      <point x="321" y="107" type="curve"/>
      <point x="323" y="107" type="line"/>
      <point x="323" y="0" type="line"/>
      <point x="479" y="0" type="line"/>
      <point x="479" y="10" type="line"/>
      <point x="470" y="10" type="line" smooth="yes"/>
      <point x="422" y="10"/>
      <point x="409" y="21"/>
      <point x="409" y="82" type="curve" smooth="yes"/>
      <point x="409" y="760" type="line"/>
      <point x="252" y="760" type="line"/>
      <point x="252" y="750" type="line"/>
      <point x="259" y="750" type="line" smooth="yes"/>
      <point x="306" y="750"/>
      <point x="322" y="744"/>
      <point x="322" y="676" type="curve" smooth="yes"/>
      <point x="322" y="563" type="line" smooth="yes"/>
      <point x="322" y="526"/>
      <point x="322" y="489"/>
      <point x="324" y="428" type="curve"/>
      <point x="322" y="428" type="line"/>
      <point x="307" y="509"/>
      <point x="269" y="546"/>
      <point x="201" y="546" type="curve" smooth="yes"/>
      <point x="104" y="546"/>
      <point x="42" y="469"/>
      <point x="42" y="267" type="curve" smooth="yes"/>
      <point x="42" y="66"/>
      <point x="101" y="-10"/>
    </contour>
    <contour>
      <point x="223" y="6" type="curve" smooth="yes"/>
      <point x="160" y="6"/>
      <point x="129" y="72"/>
      <point x="129" y="265" type="curve" smooth="yes"/>
      <point x="129" y="464"/>
      <point x="162" y="528"/>
      <point x="226" y="528" type="curve" smooth="yes"/>
      <point x="299" y="528"/>
      <point x="323" y="438"/>
      <point x="323" y="265" type="curve" smooth="yes"/>
      <point x="323" y="93"/>
      <point x="291" y="6"/>
    </contour>
  </outline>
</glyph>
<glyph name="e" format="2">
  <advance width="407"/>
  <unicode hex="0065"/>
  <anchor x="224" y="0" name="bottom"/>
  <anchor x="207" y="537" name="top"/>
  <anchor x="388" y="537" name="topright"/>
  <outline>
    <contour>
      <point x="209" y="546" type="curve" smooth="yes"/>
      <point x="99" y="546"/>
      <point x="41" y="447"/>
      <point x="41" y="265" type="curve" smooth="yes"/>
      <point x="41" y="109"/>
      <point x="93" y="-10"/>
      <point x="227" y="-10" type="curve" smooth="yes"/>
      <point x="272" y="-10"/>
      <point x="312" y="1"/>
      <point x="349" y="24" type="curve"/>
      <point x="349" y="96" type="line"/>
      <point x="310" y="70"/>
      <point x="274" y="59"/>
      <point x="236" y="59" type="curve" smooth="yes"/>
      <point x="160" y="59"/>
      <point x="123" y="123"/>
      <point x="121" y="253" type="curve"/>
      <point x="369" y="253" type="line"/>
      <point x="369" y="309" type="line" smooth="yes"/>
      <point x="369" y="442"/>
      <point x="317" y="546"/>
    </contour>
    <contour>
      <point x="210" y="480" type="curve" smooth="yes"/>
      <point x="267" y="480"/>
      <point x="293" y="405"/>
      <point x="293" y="317" type="curve"/>
      <point x="122" y="317" type="line"/>
      <point x="127" y="428"/>
      <point x="157" y="480"/>
    </contour>
  </outline>
</glyph>
<glyph name="e.serif" format="2">
  <advance width="431"/>
  <unicode hex="0065"/>
  <anchor x="226" y="0" name="bottom"/>
  <anchor x="226" y="536" name="top"/>
  <anchor x="411" y="536" name="topright"/>
  <outline>
    <contour>
      <point x="232" y="-10" type="curve" smooth="yes"/>
      <point x="332" y="-10"/>
      <point x="378" y="49"/>
      <point x="378" y="92" type="curve" smooth="yes"/>
      <point x="378" y="108"/>
      <point x="369" y="119"/>
      <point x="354" y="123" type="curve"/>
      <point x="344" y="39"/>
      <point x="308" y="2"/>
      <point x="250" y="2" type="curve" smooth="yes"/>
      <point x="170" y="2"/>
      <point x="128" y="79"/>
      <point x="128" y="280" type="curve"/>
      <point x="393" y="280" type="line"/>
      <point x="393" y="298" type="line" smooth="yes"/>
      <point x="393" y="454"/>
      <point x="332" y="545"/>
      <point x="223" y="545" type="curve" smooth="yes"/>
      <point x="108" y="545"/>
      <point x="42" y="451"/>
      <point x="42" y="263" type="curve" smooth="yes"/>
      <point x="42" y="90"/>
      <point x="108" y="-10"/>
    </contour>
    <contour>
      <point x="308" y="290" type="curve"/>
      <point x="128" y="290" type="line"/>
      <point x="130" y="465"/>
      <point x="160" y="535"/>
      <point x="223" y="535" type="curve" smooth="yes"/>
      <point x="286" y="535"/>
      <point x="307" y="463"/>
    </contour>
  </outline>
</glyph>
<glyph name="f" format="2">
  <advance width="249"/>
  <unicode hex="0066"/>
  <anchor x="112" y="0" name="bottom"/>
  <anchor x="183" y="765" name="top"/>
  <anchor x="262" y="765" name="topright"/>
  <outline>
    <contour>
      <point x="236" y="469" type="line"/>
      <point x="236" y="537" type="line"/>
      <point x="153" y="537" type="line"/>
      <point x="153" y="574" type="line"/>
      <point x="154" y="665"/>
      <point x="165" y="694"/>
      <point x="202" y="694" type="curve"/>
      <point x="217" y="694"/>
      <point x="232" y="690"/>
      <point x="250" y="684" type="curve"/>
      <point x="271" y="749" type="line"/>
      <point x="243" y="760"/>
      <point x="220" y="765"/>
      <point x="191" y="765" type="curve" smooth="yes"/>
      <point x="99" y="765"/>
      <point x="72" y="695"/>
      <point x="72" y="571" type="curve" smooth="yes"/>
      <point x="72" y="540" type="line"/>
      <point x="9" y="512" type="line"/>
      <point x="9" y="469" type="line"/>
      <point x="72" y="469" type="line"/>
      <point x="72" y="0" type="line"/>
      <point x="153" y="0" type="line"/>
      <point x="153" y="469" type="line"/>
    </contour>
  </outline>
</glyph>
<glyph name="f.serif" format="2">
  <advance width="299"/>
  <unicode hex="0066"/>
  <anchor x="150" y="0" name="bottom"/>
  <anchor x="214" y="771" name="top"/>
  <anchor x="382" y="771" name="topright"/>
  <outline>
    <contour>
      <point x="20" y="0" type="line"/>
      <point x="276" y="0" type="line"/>
      <point x="276" y="10" type="line"/>
      <point x="236" y="10" type="line" smooth="yes"/>
      <point x="199" y="10"/>
      <point x="181" y="18"/>
      <point x="181" y="84" type="curve" smooth="yes"/>
      <point x="181" y="526" type="line"/>
      <point x="292" y="526" type="line"/>
      <point x="292" y="536" type="line"/>
      <point x="181" y="536" type="line"/>
      <point x="181" y="618" type="line" smooth="yes"/>
      <point x="181" y="723"/>
      <point x="198" y="761"/>
      <point x="245" y="761" type="curve" smooth="yes"/>
      <point x="285" y="761"/>
      <point x="291" y="727"/>
      <point x="291" y="642" type="curve"/>
      <point x="336" y="642"/>
      <point x="353" y="662"/>
      <point x="353" y="698" type="curve" smooth="yes"/>
      <point x="353" y="740"/>
      <point x="325" y="771"/>
      <point x="243" y="771" type="curve" smooth="yes"/>
      <point x="139" y="771"/>
      <point x="95" y="705"/>
      <point x="95" y="584" type="curve" smooth="yes"/>
      <point x="95" y="536" type="line"/>
      <point x="24" y="536" type="line"/>
      <point x="24" y="526" type="line"/>
      <point x="95" y="526" type="line"/>
      <point x="95" y="84" type="line" smooth="yes"/>
      <point x="95" y="18"/>
      <point x="75" y="10"/>
      <point x="40" y="10" type="curve" smooth="yes"/>
      <point x="20" y="10" type="line"/>
    </contour>
  </outline>
</glyph>
<glyph name="g" format="2">
  <advance width="450"/>
  <unicode hex="0067"/>
  <anchor x="205" y="-240" name="bottom"/>
  <anchor x="233" y="537" name="top"/>
  <anchor x="403" y="537" name="topright"/>
  <outline>
    <contour>
      <point x="193" y="547" type="curve" smooth="yes"/>
      <point x="97" y="547"/>
      <point x="40" y="452"/>
      <point x="40" y="266" type="curve" smooth="yes"/>
      <point x="40" y="85"/>
      <point x="94" y="-10"/>
      <point x="190" y="-10" type="curve" smooth="yes"/>
      <point x="242" y="-10"/>
      <point x="279" y="18"/>
      <point x="307" y="75" type="curve"/>
      <point x="311" y="75" type="line"/>
      <point x="308" y="43"/>
      <point x="307" y="13"/>
      <point x="307" y="-9" type="curve" smooth="yes"/>
      <point x="307" y="-25" type="line" smooth="yes"/>
      <point x="307" y="-129"/>
      <point x="266" y="-168"/>
      <point x="188" y="-168" type="curve" smooth="yes"/>
      <point x="148" y="-168"/>
      <point x="109" y="-156"/>
      <point x="65" y="-132" type="curve"/>
      <point x="65" y="-209" type="line"/>
      <point x="103" y="-230"/>
      <point x="142" y="-240"/>
      <point x="190" y="-240" type="curve" smooth="yes"/>
      <point x="329" y="-240"/>
      <point x="388" y="-155"/>
      <point x="388" y="-6" type="curve" smooth="yes"/>
      <point x="388" y="537" type="line"/>
      <point x="320" y="537" type="line"/>
      <point x="311" y="466" type="line"/>
      <point x="306" y="466" type="line"/>
      <point x="278" y="523"/>
      <point x="242" y="547"/>
    </contour>
    <contour>
      <point x="210" y="475" type="curve" smooth="yes"/>
      <point x="277" y="475"/>
      <point x="307" y="412"/>
      <point x="307" y="270" type="curve" smooth="yes"/>
      <point x="307" y="245" type="line" smooth="yes"/>
      <point x="307" y="123"/>
      <point x="274" y="61"/>
      <point x="213" y="61" type="curve" smooth="yes"/>
      <point x="152" y="61"/>
      <point x="123" y="123"/>
      <point x="123" y="265" type="curve" smooth="yes"/>
      <point x="123" y="402"/>
      <point x="150" y="475"/>
    </contour>
  </outline>
</glyph>
<glyph name="h" format="2">
  <advance width="446"/>
  <unicode hex="0068"/>
  <anchor x="227" y="0" name="bottom"/>
  <anchor x="224" y="268" name="center"/>
  <anchor x="104" y="760" name="top"/>
  <anchor x="376" y="760" name="topright"/>
  <outline>
    <contour>
      <point x="144" y="545" type="curve" smooth="yes"/>
      <point x="144" y="760" type="line"/>
      <point x="63" y="760" type="line"/>
      <point x="63" y="0" type="line"/>
      <point x="144" y="0" type="line"/>
      <point x="144" y="279" type="line" smooth="yes"/>
      <point x="144" y="413"/>
      <point x="172" y="474"/>
      <point x="238" y="474" type="curve" smooth="yes"/>
      <point x="285" y="474"/>
      <point x="303" y="438"/>
      <point x="303" y="348" type="curve" smooth="yes"/>
      <point x="303" y="0" type="line"/>
      <point x="385" y="0" type="line"/>
      <point x="385" y="364" type="line" smooth="yes"/>
      <point x="385" y="483"/>
      <point x="345" y="547"/>
      <point x="256" y="547" type="curve" smooth="yes"/>
      <point x="207" y="547"/>
      <point x="164" y="517"/>
      <point x="144" y="465" type="curve"/>
      <point x="138" y="465" type="line"/>
      <point x="142" y="489"/>
      <point x="144" y="516"/>
    </contour>
  </outline>
</glyph>
<glyph name="h.serif" format="2">
  <advance width="509"/>
  <unicode hex="0068"/>
  <anchor x="255" y="0" name="bottom"/>
  <anchor x="255" y="268" name="center"/>
  <anchor x="255" y="760" name="top"/>
  <anchor x="444" y="760" name="topright"/>
  <outline>
    <contour>
      <point x="15" y="0" type="line"/>
      <point x="235" y="0" type="line"/>
      <point x="235" y="10" type="line"/>
      <point x="230" y="10" type="line" smooth="yes"/>
      <point x="179" y="10"/>
      <point x="170" y="20"/>
      <point x="170" y="81" type="curve" smooth="yes"/>
      <point x="170" y="341" type="line" smooth="yes"/>
      <point x="170" y="464"/>
      <point x="203" y="521"/>
      <point x="262" y="521" type="curve" smooth="yes"/>
      <point x="320" y="521"/>
      <point x="339" y="475"/>
      <point x="339" y="370" type="curve" smooth="yes"/>
      <point x="339" y="0" type="line"/>
      <point x="487" y="0" type="line"/>
      <point x="487" y="10" type="line"/>
      <point x="481" y="10" type="line" smooth="yes"/>
      <point x="433" y="10"/>
      <point x="425" y="22"/>
      <point x="425" y="82" type="curve" smooth="yes"/>
      <point x="425" y="361" type="line" smooth="yes"/>
      <point x="425" y="486"/>
      <point x="378" y="545"/>
      <point x="295" y="545" type="curve" smooth="yes"/>
      <point x="228" y="545"/>
      <point x="186" y="507"/>
      <point x="171" y="445" type="curve"/>
      <point x="169" y="445" type="line"/>
      <point x="171" y="485"/>
      <point x="171" y="497"/>
      <point x="171" y="516" type="curve" smooth="yes"/>
      <point x="171" y="760" type="line"/>
      <point x="14" y="760" type="line"/>
      <point x="14" y="750" type="line"/>
      <point x="28" y="750" type="line" smooth="yes"/>
      <point x="74" y="750"/>
      <point x="84" y="738"/>
      <point x="84" y="679" type="curve" smooth="yes"/>
      <point x="84" y="83" type="line" smooth="yes"/>
      <point x="84" y="20"/>
      <point x="74" y="10"/>
      <point x="21" y="10" type="curve" smooth="yes"/>
      <point x="15" y="10" type="line"/>
    </contour>
  </outline>
</glyph>
<glyph name="i" format="2">
  <advance width="207"/>
  <unicode hex="0069"/>
  <anchor x="105" y="0" name="bottom"/>
  <anchor x="104" y="739" name="top"/>
  <anchor x="187" y="739" name="topright"/>
  <outline>
    <contour>
      <point x="144" y="537" type="line"/>
      <point x="63" y="537" type="line"/>
      <point x="63" y="0" type="line"/>
      <point x="144" y="0" type="line"/>
    </contour>
    <contour>
      <point x="105" y="739" type="curve" smooth="yes"/>
      <point x="74" y="739"/>
      <point x="57" y="719"/>
      <point x="57" y="681" type="curve" smooth="yes"/>
      <point x="57" y="645"/>
      <point x="75" y="624"/>
      <point x="105" y="624" type="curve" smooth="yes"/>
      <point x="135" y="624"/>
      <point x="151" y="645"/>
      <point x="151" y="681" type="curve" smooth="yes"/>
      <point x="151" y="718"/>
      <point x="136" y="739"/>
    </contour>
  </outline>
</glyph>
<glyph name="i.serif" format="2">
  <advance width="260"/>
  <unicode hex="0069"/>
  <anchor x="130" y="0" name="bottom"/>
  <anchor x="130" y="752" name="top"/>
  <anchor x="224" y="752" name="topright"/>
  <outline>
    <contour>
      <point x="17" y="0" type="line"/>
      <point x="248" y="0" type="line"/>
      <point x="248" y="10" type="line"/>
      <point x="237" y="10" type="line" smooth="yes"/>
      <point x="190" y="10"/>
      <point x="177" y="20"/>
      <point x="177" y="84" type="curve" smooth="yes"/>
      <point x="177" y="536" type="line"/>
      <point x="23" y="536" type="line"/>
      <point x="23" y="526" type="line"/>
      <point x="33" y="526" type="line" smooth="yes"/>
      <point x="78" y="526"/>
      <point x="91" y="515"/>
      <point x="91" y="452" type="curve" smooth="yes"/>
      <point x="91" y="85" type="line" smooth="yes"/>
      <point x="91" y="20"/>
      <point x="78" y="10"/>
      <point x="30" y="10" type="curve" smooth="yes"/>
      <point x="17" y="10" type="line"/>
    </contour>
    <contour>
      <point x="129" y="644" type="curve" smooth="yes"/>
      <point x="154" y="644"/>
      <point x="175" y="659"/>
      <point x="175" y="698" type="curve" smooth="yes"/>
      <point x="175" y="738"/>
      <point x="154" y="752"/>
      <point x="129" y="752" type="curve" smooth="yes"/>
      <point x="103" y="752"/>
      <point x="84" y="738"/>
      <point x="84" y="698" type="curve" smooth="yes"/>
      <point x="84" y="659"/>
      <point x="103" y="644"/>
    </contour>
  </outline>
</glyph>
<glyph name="j" format="2">
  <advance width="207"/>
  <unicode hex="006A"/>
  <anchor x="36" y="-240" name="bottom"/>
  <anchor x="104" y="739" name="top"/>
  <anchor x="188" y="739" name="topright"/>
  <outline>
    <contour>
      <point x="36" y="-240" type="curve" smooth="yes"/>
      <point x="107" y="-240"/>
      <point x="144" y="-190"/>
      <point x="144" y="-82" type="curve" smooth="yes"/>
      <point x="144" y="537" type="line"/>
      <point x="63" y="537" type="line"/>
      <point x="63" y="-83" type="line" smooth="yes"/>
      <point x="63" y="-141"/>
      <point x="51" y="-167"/>
      <point x="21" y="-167" type="curve" smooth="yes"/>
      <point x="11" y="-167"/>
      <point x="-1" y="-164"/>
      <point x="-13" y="-159" type="curve"/>
      <point x="-13" y="-231" type="line"/>
      <point x="1" y="-237"/>
      <point x="17" y="-240"/>
    </contour>
    <contour>
      <point x="57" y="681" type="curve" smooth="yes"/>
      <point x="57" y="645"/>
      <point x="75" y="624"/>
      <point x="105" y="624" type="curve" smooth="yes"/>
      <point x="135" y="624"/>
      <point x="151" y="645"/>
      <point x="151" y="681" type="curve" smooth="yes"/>
      <point x="151" y="718"/>
      <point x="136" y="739"/>
      <point x="105" y="739" type="curve" smooth="yes"/>
      <point x="74" y="739"/>
      <point x="57" y="719"/>
    </contour>
  </outline>
</glyph>
<glyph name="j.serif" format="2">
  <advance width="256"/>
  <unicode hex="006A"/>
  <anchor x="92" y="-240" name="bottom"/>
  <anchor x="131" y="752" name="top"/>
  <anchor x="228" y="752" name="topright"/>
  <outline>
    <contour>
      <point x="-3" y="-240" type="line"/>
      <point x="11" y="-240" type="line" smooth="yes"/>
      <point x="107" y="-240"/>
      <point x="179" y="-195"/>
      <point x="179" y="-14" type="curve" smooth="yes"/>
      <point x="179" y="536" type="line"/>
      <point x="25" y="536" type="line"/>
      <point x="25" y="526" type="line"/>
      <point x="33" y="526" type="line" smooth="yes"/>
      <point x="76" y="526"/>
      <point x="92" y="516"/>
      <point x="92" y="454" type="curve" smooth="yes"/>
      <point x="92" y="-43" type="line" smooth="yes"/>
      <point x="92" y="-187"/>
      <point x="60" y="-230"/>
      <point x="3" y="-230" type="curve" smooth="yes"/>
      <point x="-3" y="-230" type="line"/>
    </contour>
    <contour>
      <point x="131" y="644" type="curve" smooth="yes"/>
      <point x="156" y="644"/>
      <point x="178" y="659"/>
      <point x="178" y="698" type="curve" smooth="yes"/>
      <point x="178" y="738"/>
      <point x="156" y="752"/>
      <point x="131" y="752" type="curve" smooth="yes"/>
      <point x="107" y="752"/>
      <point x="86" y="738"/>
      <point x="86" y="698" type="curve" smooth="yes"/>
      <point x="86" y="659"/>
      <point x="107" y="644"/>
    </contour>
  </outline>
</glyph>
<glyph name="k" format="2">
  <advance width="392"/>
  <unicode hex="006B"/>
  <anchor x="211" y="0" name="bottom"/>
  <anchor x="104" y="760" name="top"/>
  <anchor x="278" y="830" name="topright"/>
  <outline>
    <contour>
      <point x="144" y="383" type="curve" smooth="yes"/>
      <point x="144" y="760" type="line"/>
      <point x="63" y="760" type="line"/>
      <point x="63" y="0" type="line"/>
      <point x="144" y="0" type="line"/>
      <point x="144" y="199" type="line"/>
      <point x="198" y="265" type="line"/>
      <point x="301" y="0" type="line"/>
      <point x="388" y="0" type="line"/>
      <point x="253" y="330" type="line"/>
      <point x="380" y="537" type="line"/>
      <point x="292" y="537" type="line"/>
      <point x="177" y="339" type="line" smooth="yes"/>
      <point x="166" y="320"/>
      <point x="154" y="298"/>
      <point x="143" y="276" type="curve"/>
      <point x="140" y="276" type="line"/>
      <point x="143" y="311"/>
      <point x="144" y="346"/>
    </contour>
  </outline>
</glyph>
<glyph name="k.serif" format="2">
  <advance width="473"/>
  <unicode hex="006B"/>
  <anchor x="237" y="0" name="bottom"/>
  <anchor x="237" y="760" name="top"/>
  <anchor x="344" y="860" name="topright"/>
  <outline>
    <contour>
      <point x="14" y="0" type="line"/>
      <point x="236" y="0" type="line"/>
      <point x="236" y="10" type="line"/>
      <point x="232" y="10" type="line" smooth="yes"/>
      <point x="192" y="10"/>
      <point x="171" y="17"/>
      <point x="171" y="81" type="curve" smooth="yes"/>
      <point x="171" y="212" type="line"/>
      <point x="219" y="279" type="line"/>
      <point x="304" y="96" type="line" smooth="yes"/>
      <point x="345" y="8"/>
      <point x="373" y="0"/>
      <point x="469" y="0" type="curve" smooth="yes"/>
      <point x="474" y="0" type="line"/>
      <point x="474" y="10" type="line"/>
      <point x="469" y="10" type="line" smooth="yes"/>
      <point x="446" y="10"/>
      <point x="436" y="19"/>
      <point x="412" y="67" type="curve" smooth="yes"/>
      <point x="270" y="350" type="line"/>
      <point x="353" y="465" type="line" smooth="yes"/>
      <point x="389" y="515"/>
      <point x="409" y="526"/>
      <point x="445" y="526" type="curve"/>
      <point x="445" y="536" type="line"/>
      <point x="268" y="536" type="line"/>
      <point x="268" y="526" type="line"/>
      <point x="329" y="526"/>
      <point x="349" y="520"/>
      <point x="349" y="500" type="curve" smooth="yes"/>
      <point x="349" y="486"/>
      <point x="338" y="461"/>
      <point x="291" y="396" type="curve" smooth="yes"/>
      <point x="169" y="226" type="line"/>
      <point x="171" y="264"/>
      <point x="171" y="319"/>
      <point x="171" y="354" type="curve" smooth="yes"/>
      <point x="171" y="760" type="line"/>
      <point x="14" y="760" type="line"/>
      <point x="14" y="750" type="line"/>
      <point x="20" y="750" type="line" smooth="yes"/>
      <point x="67" y="750"/>
      <point x="84" y="743"/>
      <point x="84" y="680" type="curve" smooth="yes"/>
      <point x="84" y="81" type="line" smooth="yes"/>
      <point x="84" y="17"/>
      <point x="67" y="10"/>
      <point x="20" y="10" type="curve" smooth="yes"/>
      <point x="14" y="10" type="line"/>
    </contour>
  </outline>
</glyph>
<glyph name="m" format="2">
  <advance width="666"/>
  <unicode hex="006D"/>
  <anchor x="334" y="0" name="bottom"/>
  <anchor x="345" y="537" name="top"/>
  <anchor x="629" y="537" name="topright"/>
  <outline>
    <contour>
      <point x="482" y="547" type="curve" smooth="yes"/>
      <point x="425" y="547"/>
      <point x="391" y="520"/>
      <point x="367" y="461" type="curve"/>
      <point x="361" y="461" type="line"/>
      <point x="349" y="511"/>
      <point x="314" y="547"/>
      <point x="255" y="547" type="curve" smooth="yes"/>
      <point x="202" y="547"/>
      <point x="163" y="519"/>
      <point x="142" y="464" type="curve"/>
      <point x="137" y="464" type="line"/>
      <point x="128" y="537" type="line"/>
      <point x="63" y="537" type="line"/>
      <point x="63" y="0" type="line"/>
      <point x="144" y="0" type="line"/>
      <point x="144" y="281" type="line" smooth="yes"/>
      <point x="144" y="395"/>
      <point x="160" y="475"/>
      <point x="229" y="475" type="curve" smooth="yes"/>
      <point x="273" y="475"/>
      <point x="294" y="440"/>
      <point x="294" y="348" type="curve" smooth="yes"/>
      <point x="294" y="0" type="line"/>
      <point x="374" y="0" type="line"/>
      <point x="374" y="296" type="line" smooth="yes"/>
      <point x="374" y="413"/>
      <point x="397" y="475"/>
      <point x="459" y="475" type="curve" smooth="yes"/>
      <point x="502" y="475"/>
      <point x="524" y="438"/>
      <point x="524" y="345" type="curve" smooth="yes"/>
      <point x="524" y="0" type="line"/>
      <point x="605" y="0" type="line"/>
      <point x="605" y="360" type="line" smooth="yes"/>
      <point x="605" y="486"/>
      <point x="566" y="547"/>
    </contour>
  </outline>
</glyph>
<glyph name="m.serif" format="2">
  <advance width="755"/>
  <unicode hex="006D"/>
  <anchor x="377" y="0" name="bottom"/>
  <anchor x="377" y="536" name="top"/>
  <anchor x="735" y="536" name="topright"/>
  <outline>
    <contour>
      <point x="21" y="0" type="line"/>
      <point x="241" y="0" type="line"/>
      <point x="241" y="10" type="line"/>
      <point x="239" y="10" type="line" smooth="yes"/>
      <point x="185" y="10"/>
      <point x="176" y="17"/>
      <point x="176" y="82" type="curve" smooth="yes"/>
      <point x="176" y="347" type="line" smooth="yes"/>
      <point x="176" y="443"/>
      <point x="204" y="520"/>
      <point x="266" y="520" type="curve" smooth="yes"/>
      <point x="318" y="520"/>
      <point x="338" y="477"/>
      <point x="338" y="373" type="curve" smooth="yes"/>
      <point x="338" y="0" type="line"/>
      <point x="485" y="0" type="line"/>
      <point x="485" y="10" type="line"/>
      <point x="481" y="10" type="line" smooth="yes"/>
      <point x="432" y="10"/>
      <point x="424" y="17"/>
      <point x="424" y="83" type="curve" smooth="yes"/>
      <point x="424" y="361" type="line" smooth="yes"/>
      <point x="424" y="452"/>
      <point x="448" y="520"/>
      <point x="513" y="520" type="curve" smooth="yes"/>
      <point x="567" y="520"/>
      <point x="586" y="471"/>
      <point x="586" y="373" type="curve" smooth="yes"/>
      <point x="586" y="0" type="line"/>
      <point x="734" y="0" type="line"/>
      <point x="734" y="10" type="line"/>
      <point x="732" y="10" type="line" smooth="yes"/>
      <point x="683" y="10"/>
      <point x="673" y="17"/>
      <point x="673" y="81" type="curve" smooth="yes"/>
      <point x="673" y="361" type="line" smooth="yes"/>
      <point x="673" y="487"/>
      <point x="627" y="545"/>
      <point x="544" y="545" type="curve" smooth="yes"/>
      <point x="480" y="545"/>
      <point x="436" y="506"/>
      <point x="422" y="442" type="curve"/>
      <point x="420" y="442" type="line"/>
      <point x="400" y="515"/>
      <point x="363" y="545"/>
      <point x="303" y="545" type="curve" smooth="yes"/>
      <point x="234" y="545"/>
      <point x="194" y="506"/>
      <point x="177" y="442" type="curve"/>
      <point x="175" y="442" type="line"/>
      <point x="175" y="536" type="line"/>
      <point x="28" y="536" type="line"/>
      <point x="28" y="526" type="line"/>
      <point x="30" y="526" type="line" smooth="yes"/>
      <point x="80" y="526"/>
      <point x="90" y="517"/>
      <point x="90" y="450" type="curve" smooth="yes"/>
      <point x="90" y="84" type="line" smooth="yes"/>
      <point x="90" y="17"/>
      <point x="79" y="10"/>
      <point x="27" y="10" type="curve" smooth="yes"/>
      <point x="21" y="10" type="line"/>
    </contour>
  </outline>
</glyph>
<glyph name="n" format="2">
  <advance width="446"/>
  <unicode hex="006E"/>
  <anchor x="224" y="0" name="bottom"/>
  <anchor x="231" y="537" name="top"/>
  <anchor x="409" y="537" name="topright"/>
  <outline>
    <contour>
      <point x="257" y="547" type="curve" smooth="yes"/>
      <point x="207" y="547"/>
      <point x="165" y="517"/>
      <point x="142" y="464" type="curve"/>
      <point x="137" y="464" type="line"/>
      <point x="128" y="537" type="line"/>
      <point x="63" y="537" type="line"/>
      <point x="63" y="0" type="line"/>
      <point x="144" y="0" type="line"/>
      <point x="144" y="279" type="line" smooth="yes"/>
      <point x="144" y="417"/>
      <point x="171" y="475"/>
      <point x="238" y="475" type="curve" smooth="yes"/>
      <point x="284" y="475"/>
      <point x="303" y="432"/>
      <point x="303" y="348" type="curve" smooth="yes"/>
      <point x="303" y="0" type="line"/>
      <point x="385" y="0" type="line"/>
      <point x="385" y="364" type="line" smooth="yes"/>
      <point x="385" y="488"/>
      <point x="341" y="547"/>
    </contour>
  </outline>
</glyph>
<glyph name="o" format="2">
  <advance width="433"/>
  <unicode hex="006F"/>
  <anchor x="217" y="0" name="bottom"/>
  <anchor x="217" y="269" name="center"/>
  <anchor x="216" y="537" name="top"/>
  <anchor x="414" y="537" name="topright"/>
  <outline>
    <contour>
      <point x="393" y="269" type="curve" smooth="yes"/>
      <point x="393" y="452"/>
      <point x="328" y="547"/>
      <point x="217" y="547" type="curve" smooth="yes"/>
      <point x="96" y="547"/>
      <point x="40" y="446"/>
      <point x="40" y="269" type="curve" smooth="yes"/>
      <point x="40" y="101"/>
      <point x="98" y="-10"/>
      <point x="215" y="-10" type="curve" smooth="yes"/>
      <point x="338" y="-10"/>
      <point x="393" y="102"/>
    </contour>
    <contour>
      <point x="123" y="269" type="curve" smooth="yes"/>
      <point x="123" y="407"/>
      <point x="151" y="476"/>
      <point x="217" y="476" type="curve" smooth="yes"/>
      <point x="281" y="476"/>
      <point x="311" y="407"/>
      <point x="311" y="269" type="curve" smooth="yes"/>
      <point x="311" y="130"/>
      <point x="281" y="61"/>
      <point x="217" y="61" type="curve" smooth="yes"/>
      <point x="152" y="61"/>
      <point x="123" y="132"/>
    </contour>
  </outline>
</glyph>
<glyph name="o.serif" format="2">
  <advance width="463"/>
  <unicode hex="006F"/>
  <anchor x="232" y="0" name="bottom"/>
  <anchor x="232" y="268" name="center"/>
  <anchor x="232" y="536" name="top"/>
  <anchor x="448" y="536" name="topright"/>
  <outline>
    <contour>
      <point x="231" y="-10" type="curve" smooth="yes"/>
      <point x="356" y="-10"/>
      <point x="421" y="77"/>
      <point x="421" y="268" type="curve" smooth="yes"/>
      <point x="421" y="453"/>
      <point x="356" y="545"/>
      <point x="233" y="545" type="curve" smooth="yes"/>
      <point x="104" y="545"/>
      <point x="42" y="454"/>
      <point x="42" y="268" type="curve" smooth="yes"/>
      <point x="42" y="79"/>
      <point x="112" y="-10"/>
    </contour>
    <contour>
      <point x="232" y="0" type="curve" smooth="yes"/>
      <point x="160" y="0"/>
      <point x="130" y="73"/>
      <point x="130" y="268" type="curve" smooth="yes"/>
      <point x="130" y="465"/>
      <point x="156" y="535"/>
      <point x="231" y="535" type="curve" smooth="yes"/>
      <point x="308" y="535"/>
      <point x="334" y="465"/>
      <point x="334" y="268" type="curve" smooth="yes"/>
      <point x="334" y="74"/>
      <point x="308" y="0"/>
    </contour>
  </outline>
</glyph>
<glyph name="p" format="2">
  <advance width="450"/>
  <unicode hex="0070"/>
  <anchor x="103" y="-240" name="bottom"/>
  <anchor x="245" y="537" name="top"/>
  <anchor x="431" y="537" name="topright"/>
  <outline>
    <contour>
      <point x="258" y="547" type="curve" smooth="yes"/>
      <point x="211" y="547"/>
      <point x="173" y="522"/>
      <point x="144" y="464" type="curve"/>
      <point x="140" y="464" type="line"/>
      <point x="129" y="537" type="line"/>
      <point x="63" y="537" type="line"/>
      <point x="63" y="-240" type="line"/>
      <point x="144" y="-240" type="line"/>
      <point x="144" y="0" type="line" smooth="yes"/>
      <point x="144" y="20"/>
      <point x="143" y="44"/>
      <point x="141" y="72" type="curve"/>
      <point x="144" y="72" type="line"/>
      <point x="169" y="20"/>
      <point x="212" y="-10"/>
      <point x="263" y="-10" type="curve" smooth="yes"/>
      <point x="358" y="-10"/>
      <point x="411" y="92"/>
      <point x="411" y="269" type="curve" smooth="yes"/>
      <point x="411" y="454"/>
      <point x="358" y="547"/>
    </contour>
    <contour>
      <point x="239" y="477" type="curve" smooth="yes"/>
      <point x="303" y="477"/>
      <point x="328" y="407"/>
      <point x="328" y="268" type="curve" smooth="yes"/>
      <point x="328" y="127"/>
      <point x="299" y="61"/>
      <point x="240" y="61" type="curve" smooth="yes"/>
      <point x="175" y="61"/>
      <point x="144" y="124"/>
      <point x="144" y="265" type="curve" smooth="yes"/>
      <point x="144" y="285" type="line" smooth="yes"/>
      <point x="144" y="417"/>
      <point x="175" y="477"/>
    </contour>
  </outline>
</glyph>
<glyph name="p.serif" format="2">
  <advance width="492"/>
  <unicode hex="0070"/>
  <anchor x="247" y="-234" name="bottom"/>
  <anchor x="247" y="536" name="top"/>
  <anchor x="477" y="536" name="topright"/>
  <outline>
    <contour>
      <point x="13" y="-234" type="line"/>
      <point x="248" y="-234" type="line"/>
      <point x="248" y="-224" type="line"/>
      <point x="232" y="-224" type="line" smooth="yes"/>
      <point x="181" y="-224"/>
      <point x="169" y="-213"/>
      <point x="169" y="-146" type="curve" smooth="yes"/>
      <point x="169" y="-27" type="line" smooth="yes"/>
      <point x="169" y="21"/>
      <point x="169" y="65"/>
      <point x="168" y="113" type="curve"/>
      <point x="170" y="113" type="line"/>
      <point x="188" y="32"/>
      <point x="223" y="-10"/>
      <point x="292" y="-10" type="curve" smooth="yes"/>
      <point x="392" y="-10"/>
      <point x="450" y="78"/>
      <point x="450" y="274" type="curve" smooth="yes"/>
      <point x="450" y="464"/>
      <point x="395" y="547"/>
      <point x="294" y="547" type="curve" smooth="yes"/>
      <point x="223" y="547"/>
      <point x="187" y="506"/>
      <point x="170" y="422" type="curve"/>
      <point x="168" y="422" type="line"/>
      <point x="168" y="536" type="line"/>
      <point x="12" y="536" type="line"/>
      <point x="12" y="526" type="line"/>
      <point x="21" y="526" type="line" smooth="yes"/>
      <point x="68" y="526"/>
      <point x="82" y="520"/>
      <point x="82" y="457" type="curve" smooth="yes"/>
      <point x="82" y="-146" type="line" smooth="yes"/>
      <point x="82" y="-213"/>
      <point x="71" y="-224"/>
      <point x="18" y="-224" type="curve" smooth="yes"/>
      <point x="13" y="-224" type="line"/>
    </contour>
    <contour>
      <point x="271" y="6" type="curve" smooth="yes"/>
      <point x="197" y="6"/>
      <point x="169" y="106"/>
      <point x="169" y="268" type="curve" smooth="yes"/>
      <point x="169" y="444"/>
      <point x="202" y="530"/>
      <point x="271" y="530" type="curve" smooth="yes"/>
      <point x="335" y="530"/>
      <point x="364" y="458"/>
      <point x="364" y="267" type="curve" smooth="yes"/>
      <point x="364" y="90"/>
      <point x="339" y="6"/>
    </contour>
  </outline>
</glyph>
<glyph name="q" format="2">
  <advance width="450"/>
  <unicode hex="0071"/>
  <anchor x="347" y="-240" name="bottom"/>
  <anchor x="225" y="537" name="top"/>
  <anchor x="412" y="537" name="topright"/>
  <outline>
    <contour>
      <point x="307" y="-18" type="curve" smooth="yes"/>
      <point x="307" y="-240" type="line"/>
      <point x="388" y="-240" type="line"/>
      <point x="388" y="537" type="line"/>
      <point x="320" y="537" type="line"/>
      <point x="311" y="466" type="line"/>
      <point x="306" y="466" type="line"/>
      <point x="278" y="523"/>
      <point x="242" y="547"/>
      <point x="193" y="547" type="curve" smooth="yes"/>
      <point x="97" y="547"/>
      <point x="40" y="452"/>
      <point x="40" y="266" type="curve" smooth="yes"/>
      <point x="40" y="85"/>
      <point x="94" y="-10"/>
      <point x="190" y="-10" type="curve" smooth="yes"/>
      <point x="240" y="-10"/>
      <point x="279" y="18"/>
      <point x="307" y="75" type="curve"/>
      <point x="311" y="75" type="line"/>
      <point x="308" y="35"/>
      <point x="307" y="4"/>
    </contour>
    <contour>
      <point x="213" y="61" type="curve" smooth="yes"/>
      <point x="152" y="61"/>
      <point x="123" y="123"/>
      <point x="123" y="265" type="curve" smooth="yes"/>
      <point x="123" y="402"/>
      <point x="150" y="475"/>
      <point x="210" y="475" type="curve" smooth="yes"/>
      <point x="277" y="475"/>
      <point x="307" y="412"/>
      <point x="307" y="270" type="curve" smooth="yes"/>
      <point x="307" y="245" type="line" smooth="yes"/>
      <point x="307" y="123"/>
      <point x="274" y="61"/>
    </contour>
  </outline>
</glyph>
<glyph name="r" format="2">
  <advance width="298"/>
  <unicode hex="0072"/>
  <anchor x="108" y="0" name="bottom"/>
  <anchor x="172" y="537" name="top"/>
  <anchor x="278" y="537" name="topright"/>
  <outline>
    <contour>
      <point x="245" y="547" type="curve" smooth="yes"/>
      <point x="199" y="547"/>
      <point x="165" y="507"/>
      <point x="142" y="445" type="curve"/>
      <point x="137" y="445" type="line"/>
      <point x="126" y="537" type="line"/>
      <point x="63" y="537" type="line"/>
      <point x="63" y="0" type="line"/>
      <point x="144" y="0" type="line"/>
      <point x="144" y="280" type="line" smooth="yes"/>
      <point x="144" y="385"/>
      <point x="183" y="463"/>
      <point x="238" y="463" type="curve" smooth="yes"/>
      <point x="253" y="463"/>
      <point x="266" y="461"/>
      <point x="277" y="456" type="curve"/>
      <point x="289" y="540" type="line"/>
      <point x="273" y="545"/>
      <point x="259" y="547"/>
    </contour>
  </outline>
</glyph>
<glyph name="r.serif" format="2">
  <advance width="383"/>
  <unicode hex="0072"/>
  <anchor x="138" y="0" name="bottom"/>
  <anchor x="208" y="536" name="top"/>
  <anchor x="402" y="536" name="topright"/>
  <outline>
    <contour>
      <point x="24" y="0" type="line"/>
      <point x="257" y="0" type="line"/>
      <point x="257" y="10" type="line"/>
      <point x="246" y="10" type="line" smooth="yes"/>
      <point x="187" y="10"/>
      <point x="177" y="20"/>
      <point x="177" y="81" type="curve" smooth="yes"/>
      <point x="177" y="300" type="line" smooth="yes"/>
      <point x="177" y="443"/>
      <point x="211" y="518"/>
      <point x="261" y="518" type="curve" smooth="yes"/>
      <point x="294" y="518"/>
      <point x="303" y="491"/>
      <point x="303" y="408" type="curve"/>
      <point x="348" y="408"/>
      <point x="371" y="431"/>
      <point x="371" y="472" type="curve" smooth="yes"/>
      <point x="371" y="516"/>
      <point x="344" y="546"/>
      <point x="292" y="546" type="curve" smooth="yes"/>
      <point x="227" y="546"/>
      <point x="196" y="496"/>
      <point x="178" y="424" type="curve"/>
      <point x="176" y="424" type="line"/>
      <point x="176" y="536" type="line"/>
      <point x="24" y="536" type="line"/>
      <point x="24" y="526" type="line"/>
      <point x="27" y="526" type="line" smooth="yes"/>
      <point x="81" y="526"/>
      <point x="90" y="517"/>
      <point x="90" y="456" type="curve" smooth="yes"/>
      <point x="90" y="81" type="line" smooth="yes"/>
      <point x="90" y="20"/>
      <point x="80" y="10"/>
      <point x="25" y="10" type="curve" smooth="yes"/>
      <point x="24" y="10" type="line"/>
    </contour>
  </outline>
</glyph>
<glyph name="s" format="2">
  <advance width="331"/>
  <unicode hex="0073"/>
  <anchor x="154" y="0" name="bottom"/>
  <anchor x="175" y="537" name="top"/>
  <anchor x="302" y="537" name="topright"/>
  <outline>
    <contour>
      <point x="300" y="144" type="curve" smooth="yes"/>
      <point x="300" y="226"/>
      <point x="256" y="265"/>
      <point x="192" y="307" type="curve" smooth="yes"/>
      <point x="132" y="346"/>
      <point x="110" y="365"/>
      <point x="110" y="408" type="curve" smooth="yes"/>
      <point x="110" y="450"/>
      <point x="137" y="478"/>
      <point x="180" y="478" type="curve" smooth="yes"/>
      <point x="212" y="478"/>
      <point x="242" y="466"/>
      <point x="270" y="447" type="curve"/>
      <point x="299" y="512" type="line"/>
      <point x="263" y="535"/>
      <point x="224" y="547"/>
      <point x="179" y="547" type="curve" smooth="yes"/>
      <point x="91" y="547"/>
      <point x="32" y="491"/>
      <point x="32" y="406" type="curve" smooth="yes"/>
      <point x="32" y="323"/>
      <point x="75" y="283"/>
      <point x="140" y="242" type="curve" smooth="yes"/>
      <point x="198" y="206"/>
      <point x="220" y="183"/>
      <point x="220" y="141" type="curve" smooth="yes"/>
      <point x="220" y="92"/>
      <point x="193" y="63"/>
      <point x="148" y="63" type="curve" smooth="yes"/>
      <point x="105" y="63"/>
      <point x="61" y="80"/>
      <point x="32" y="104" type="curve"/>
      <point x="32" y="20" type="line"/>
      <point x="62" y="3"/>
      <point x="103" y="-10"/>
      <point x="152" y="-10" type="curve" smooth="yes"/>
      <point x="246" y="-10"/>
      <point x="300" y="45"/>
    </contour>
  </outline>
</glyph>
<glyph name="s.serif" format="2">
  <advance width="360"/>
  <unicode hex="0073"/>
  <anchor x="181" y="0" name="bottom"/>
  <anchor x="181" y="536" name="top"/>
  <anchor x="334" y="536" name="topright"/>
  <outline>
    <contour>
      <point x="171" y="-10" type="curve" smooth="yes"/>
      <point x="276" y="-10"/>
      <point x="329" y="49"/>
      <point x="329" y="144" type="curve" smooth="yes"/>
      <point x="329" y="240"/>
      <point x="275" y="271"/>
      <point x="208" y="308" type="curve" smooth="yes"/>
      <point x="137" y="347"/>
      <point x="103" y="373"/>
      <point x="103" y="437" type="curve" smooth="yes"/>
      <point x="103" y="500"/>
      <point x="136" y="534"/>
      <point x="186" y="534" type="curve" smooth="yes"/>
      <point x="240" y="534"/>
      <point x="262" y="494"/>
      <point x="262" y="396" type="curve"/>
      <point x="298" y="396"/>
      <point x="316" y="415"/>
      <point x="316" y="450" type="curve" smooth="yes"/>
      <point x="316" y="503"/>
      <point x="274" y="544"/>
      <point x="190" y="544" type="curve" smooth="yes"/>
      <point x="99" y="544"/>
      <point x="43" y="495"/>
      <point x="43" y="401" type="curve" smooth="yes"/>
      <point x="43" y="313"/>
      <point x="92" y="282"/>
      <point x="170" y="236" type="curve" smooth="yes"/>
      <point x="238" y="196"/>
      <point x="270" y="176"/>
      <point x="270" y="109" type="curve" smooth="yes"/>
      <point x="270" y="36"/>
      <point x="233" y="0"/>
      <point x="175" y="0" type="curve" smooth="yes"/>
      <point x="108" y="0"/>
      <point x="83" y="47"/>
      <point x="83" y="157" type="curve"/>
      <point x="55" y="157"/>
      <point x="31" y="140"/>
      <point x="31" y="98" type="curve" smooth="yes"/>
      <point x="31" y="46"/>
      <point x="69" y="-10"/>
    </contour>
  </outline>
</glyph>
<glyph name="t" format="2">
  <advance width="255"/>
  <unicode hex="0074"/>
  <anchor x="156" y="0" name="bottom"/>
  <anchor x="128" y="268" name="center"/>
  <anchor x="116" y="658" name="top"/>
  <anchor x="155" y="830" name="topright"/>
  <outline>
    <contour>
      <point x="193" y="62" type="curve" smooth="yes"/>
      <point x="156" y="62"/>
      <point x="146" y="89"/>
      <point x="146" y="143" type="curve" smooth="yes"/>
      <point x="146" y="469" type="line"/>
      <point x="234" y="469" type="line"/>
      <point x="234" y="537" type="line"/>
      <point x="146" y="537" type="line"/>
      <point x="146" y="658" type="line"/>
      <point x="91" y="658" type="line"/>
      <point x="69" y="535" type="line"/>
      <point x="16" y="513" type="line"/>
      <point x="16" y="469" type="line"/>
      <point x="65" y="469" type="line"/>
      <point x="65" y="133" type="line" smooth="yes"/>
      <point x="65" y="37"/>
      <point x="96" y="-10"/>
      <point x="166" y="-10" type="curve" smooth="yes"/>
      <point x="196" y="-10"/>
      <point x="220" y="-4"/>
      <point x="241" y="6" type="curve"/>
      <point x="241" y="72" type="line"/>
      <point x="225" y="66"/>
      <point x="209" y="62"/>
    </contour>
  </outline>
</glyph>
<glyph name="u" format="2">
  <advance width="446"/>
  <unicode hex="0075"/>
  <anchor x="214" y="0" name="bottom"/>
  <anchor x="224" y="537" name="top"/>
  <anchor x="405" y="537" name="topright"/>
  <outline>
    <contour>
      <point x="383" y="537" type="line"/>
      <point x="301" y="537" type="line"/>
      <point x="301" y="251" type="line" smooth="yes"/>
      <point x="301" y="123"/>
      <point x="277" y="63"/>
      <point x="206" y="63" type="curve" smooth="yes"/>
      <point x="162" y="63"/>
      <point x="142" y="107"/>
      <point x="142" y="202" type="curve" smooth="yes"/>
      <point x="142" y="537" type="line"/>
      <point x="61" y="537" type="line"/>
      <point x="61" y="187" type="line" smooth="yes"/>
      <point x="61" y="67"/>
      <point x="96" y="-10"/>
      <point x="190" y="-10" type="curve" smooth="yes"/>
      <point x="240" y="-10"/>
      <point x="280" y="19"/>
      <point x="303" y="72" type="curve"/>
      <point x="308" y="72" type="line"/>
      <point x="318" y="0" type="line"/>
      <point x="383" y="0" type="line"/>
    </contour>
  </outline>
</glyph>
<glyph name="v" format="2">
  <advance width="364"/>
  <unicode hex="0076"/>
  <anchor x="182" y="0" name="bottom"/>
  <anchor x="183" y="537" name="top"/>
  <anchor x="344" y="537" name="topright"/>
  <outline>
    <contour>
      <point x="136" y="0" type="line"/>
      <point x="226" y="0" type="line"/>
      <point x="360" y="537" type="line"/>
      <point x="276" y="537" type="line"/>
      <point x="202" y="198" type="line" smooth="yes"/>
      <point x="192" y="154"/>
      <point x="185" y="116"/>
      <point x="183" y="93" type="curve"/>
      <point x="179" y="93" type="line"/>
      <point x="173" y="137"/>
      <point x="166" y="178"/>
      <point x="157" y="218" type="curve" smooth="yes"/>
      <point x="88" y="537" type="line"/>
      <point x="4" y="537" type="line"/>
    </contour>
  </outline>
</glyph>
<glyph name="v.serif" format="2">
  <advance width="463"/>
  <unicode hex="0076"/>
  <anchor x="236" y="0" name="bottom"/>
  <anchor x="236" y="536" name="top"/>
  <anchor x="456" y="536" name="topright"/>
  <outline>
    <contour>
      <point x="56" y="479" type="curve" smooth="yes"/>
      <point x="197" y="0" type="line"/>
      <point x="258" y="0" type="line"/>
      <point x="394" y="478" type="line" smooth="yes"/>
      <point x="407" y="525"/>
      <point x="414" y="526"/>
      <point x="444" y="526" type="curve" smooth="yes"/>
      <point x="462" y="526" type="line"/>
      <point x="462" y="536" type="line"/>
      <point x="317" y="536" type="line"/>
      <point x="317" y="526" type="line"/>
      <point x="340" y="526" type="line" smooth="yes"/>
      <point x="378" y="526"/>
      <point x="386" y="521"/>
      <point x="386" y="506" type="curve" smooth="yes"/>
      <point x="386" y="489"/>
      <point x="376" y="451"/>
      <point x="354" y="374" type="curve" smooth="yes"/>
      <point x="308" y="214" type="line" smooth="yes"/>
      <point x="293" y="163"/>
      <point x="286" y="139"/>
      <point x="262" y="51" type="curve"/>
      <point x="253" y="92"/>
      <point x="230" y="180"/>
      <point x="220" y="214" type="curve" smooth="yes"/>
      <point x="155" y="432" type="line" smooth="yes"/>
      <point x="147" y="458"/>
      <point x="139" y="486"/>
      <point x="139" y="502" type="curve" smooth="yes"/>
      <point x="139" y="520"/>
      <point x="148" y="526"/>
      <point x="180" y="526" type="curve" smooth="yes"/>
      <point x="208" y="526" type="line"/>
      <point x="208" y="536" type="line"/>
      <point x="4" y="536" type="line"/>
      <point x="4" y="526" type="line"/>
      <point x="36" y="526"/>
      <point x="44" y="519"/>
    </contour>
  </outline>
</glyph>
<glyph name="w" format="2">
  <advance width="592"/>
  <unicode hex="0077"/>
  <anchor x="295" y="0" name="bottom"/>
  <anchor x="296" y="537" name="top"/>
  <anchor x="573" y="537" name="topright"/>
  <outline>
    <contour>
      <point x="315" y="325" type="curve"/>
      <point x="374" y="0" type="line"/>
      <point x="469" y="0" type="line"/>
      <point x="583" y="537" type="line"/>
      <point x="504" y="537" type="line"/>
      <point x="440" y="212" type="line"/>
      <point x="431" y="164"/>
      <point x="426" y="124"/>
      <point x="424" y="98" type="curve"/>
      <point x="421" y="98" type="line"/>
      <point x="411" y="170"/>
      <point x="402" y="227"/>
      <point x="395" y="264" type="curve" smooth="yes"/>
      <point x="342" y="537" type="line"/>
      <point x="251" y="537" type="line"/>
      <point x="197" y="265" type="line" smooth="yes"/>
      <point x="185" y="202"/>
      <point x="177" y="146"/>
      <point x="172" y="98" type="curve"/>
      <point x="169" y="98" type="line"/>
      <point x="161" y="155"/>
      <point x="152" y="216"/>
      <point x="142" y="269" type="curve" smooth="yes"/>
      <point x="90" y="537" type="line"/>
      <point x="9" y="537" type="line"/>
      <point x="121" y="0" type="line"/>
      <point x="214" y="0" type="line"/>
      <point x="277" y="325" type="line"/>
      <point x="284" y="361"/>
      <point x="290" y="404"/>
      <point x="296" y="443" type="curve"/>
      <point x="298" y="443" type="line"/>
      <point x="302" y="406"/>
      <point x="308" y="363"/>
    </contour>
  </outline>
</glyph>
